aileron_heavy-italic.sfdir

StartChar: exclam
Encoding: 33 33 250
Width: 298
Flags: MW
HStem: -14 166<93.5 134.5> 670 20G<164 311 311 311>
VStem: 28 172<58.5 80> 28 283
LayerCount: 2
Fore
SplineSet
198 203 m 1xd0
 75 203 l 1
 164 690 l 1
 311 690 l 1
 198 203 l 1xd0
125 152 m 0xe0
 171 152 200 125 200 82 c 0
 200 35 166 -14 103 -14 c 0
 56 -14 28 13 28 56 c 0
 28 104 62 152 125 152 c 0xe0
EndSplineSet
EndChar

StartChar: quotedbl
Encoding: 34 34 257
Width: 384
Flags: MW
HStem: 451 284<95 150 44 222 95 222 272 328>
VStem: 44 356<451 735>
LayerCount: 2
Fore
SplineSet
150 451 m 1
 44 451 l 1
 95 735 l 1
 222 735 l 1
 150 451 l 1
328 451 m 1
 222 451 l 1
 272 735 l 1
 400 735 l 1
 328 451 l 1
EndSplineSet
EndChar

StartChar: numbersign
Encoding: 35 35 252
Width: 642
Flags: MW
HStem: 0 21G<66 157 66 66 245 336 245 245> 206 86<76 146 61 180 271 325 76 237 450 531> 399 86<140 222 124 255 140 313 346 401 525 594> 670 20G<335 426 426 426 514 605 605 605>
VStem: 61 549<206 485>
LayerCount: 2
Fore
SplineSet
492 399 m 1
 450 292 l 1
 546 292 l 1
 531 206 l 1
 416 206 l 1
 336 0 l 1
 245 0 l 1
 325 206 l 1
 237 206 l 1
 157 0 l 1
 66 0 l 1
 146 206 l 1
 61 206 l 1
 76 292 l 1
 180 292 l 1
 222 399 l 1
 124 399 l 1
 140 485 l 1
 255 485 l 1
 335 690 l 1
 426 690 l 1
 346 485 l 1
 434 485 l 1
 514 690 l 1
 605 690 l 1
 525 485 l 1
 610 485 l 1
 594 399 l 1
 492 399 l 1
401 399 m 1
 313 399 l 1
 271 292 l 1
 359 292 l 1
 401 399 l 1
EndSplineSet
EndChar

StartChar: dollar
Encoding: 36 36 285
Width: 642
Flags: MW
HStem: -9 21G<224 224> 493 287<364 622 364 471>
VStem: 27 150<197 197> 99 148<483.5 526.5 483.5 545.5> 423 153<153.5 197> 471 151<493 493>
LayerCount: 2
Fore
SplineSet
418 583 m 1xd4
 386 403 l 1
 515 348 576 296 576 190 c 0
 576 66 468 -9 312 -14 c 1
 299 -90 l 1
 210 -90 l 1
 224 -9 l 1
 86 11 36 92 27 197 c 1
 177 197 l 1
 181 148 204 117 244 103 c 1xe8
 277 290 l 1
 162 333 99 387 99 490 c 0
 99 601 191 692 350 703 c 1
 364 780 l 1
 453 780 l 1
 439 700 l 1
 554 680 616 600 622 493 c 1
 471 493 l 1
 472 534 450 566 418 583 c 1xd4
247 502 m 0x98
 247 465 267 444 302 427 c 1
 331 593 l 1
 278 584 247 551 247 502 c 0x98
361 259 m 1
 332 97 l 1
 390 103 423 129 423 178 c 0
 423 216 404 240 361 259 c 1
EndSplineSet
EndChar

StartChar: percent
Encoding: 37 37 305
Width: 787
Flags: MW
HStem: -14 78<553.5 589 553.5 619> 0 21G<59 189 59 59> 241 78<570 605.5> 371 78<209.5 244.5 209.5 274.5> 626 78<225.5 261> 670 20G<626 757 757 757>
VStem: 74 103<490 543 490 560> 294 102<532.5 585> 419 102<105 158 105 175> 638 102<147.5 200>
LayerCount: 2
Fore
SplineSet
215 371 m 0xbac0
 130 371 74 423 74 511 c 0
 74 609 136 704 256 704 c 0
 340 704 396 653 396 564 c 0xbbc0
 396 466 334 371 215 371 c 0xbac0
757 690 m 1x76c0
 189 0 l 1
 59 0 l 1
 626 690 l 1
 757 690 l 1x76c0
246 626 m 0xbbc0
 205 626 177 575 177 511 c 0
 177 469 195 449 224 449 c 0
 265 449 294 501 294 564 c 0
 294 606 276 626 246 626 c 0xbbc0
600 319 m 0
 684 319 740 268 740 179 c 0
 740 81 679 -14 559 -14 c 0
 475 -14 419 38 419 126 c 0xbac0
 419 224 480 319 600 319 c 0
568 64 m 0xbac0
 610 64 638 116 638 179 c 0
 638 221 620 241 591 241 c 0
 549 241 521 190 521 126 c 0
 521 84 539 64 568 64 c 0xbac0
EndSplineSet
EndChar

StartChar: ampersand
Encoding: 38 38 313
Width: 680
Flags: MW
HStem: -14 116<251.5 300 251.5 308.5> 289 122<358 430 402 409 587 658> 588 116<350.5 408> 674 20G<511 511>
VStem: 9 170<148.5 203.5> 107 164<459 517.5 459 555>
LayerCount: 2
Fore
SplineSet
680 411 m 1xe4
 658 289 l 1
 565 289 l 1
 517 12 l 1
 443 -4 357 -14 260 -14 c 0
 117 -14 9 24 9 145 c 0xe8
 9 262 92 335 210 353 c 1
 147 373 107 423 107 488 c 0
 107 622 222 704 408 704 c 0xe4
 449 704 482 701 511 694 c 1xd4
 491 579 l 1
 451 587 426 588 390 588 c 0
 311 588 271 552 271 483 c 0
 271 435 303 415 345 412 c 0
 363 411 385 411 402 411 c 2
 430 411 l 1
 445 497 l 1
 602 497 l 1
 587 411 l 1
 680 411 l 1xe4
179 177 m 0
 179 120 219 102 284 102 c 0
 316 102 339 103 377 110 c 1
 409 289 l 1
 369 289 l 2
 347 289 335 289 315 288 c 0
 225 282 179 243 179 177 c 0
EndSplineSet
EndChar

StartChar: quotesingle
Encoding: 39 39 258
Width: 206
Flags: MW
HStem: 451 284<95 150 44 222>
VStem: 44 178
LayerCount: 2
Fore
SplineSet
150 451 m 1
 44 451 l 1
 95 735 l 1
 222 735 l 1
 150 451 l 1
EndSplineSet
EndChar

StartChar: parenleft
Encoding: 40 40 266
Width: 381
Flags: MW
HStem: -80 860<203 436 203 436>
VStem: 118 97<165 310.5 165 312>
LayerCount: 2
Fore
SplineSet
284 -80 m 1
 203 -80 l 1
 148 -7 118 92 118 224 c 0
 118 400 185 620 355 780 c 1
 436 780 l 1
 276 593 215 395 215 226 c 0
 215 104 239 4 284 -80 c 1
EndSplineSet
EndChar

StartChar: parenright
Encoding: 41 41 267
Width: 381
Flags: MW
HStem: -80 860<-25 208 -25 208>
VStem: 196 97<390 535>
LayerCount: 2
Fore
SplineSet
127 780 m 1
 208 780 l 1
 263 707 293 608 293 476 c 0
 293 301 226 81 56 -80 c 1
 -25 -80 l 1
 135 107 196 306 196 474 c 0
 196 596 173 696 127 780 c 1
EndSplineSet
EndChar

StartChar: asterisk
Encoding: 42 42 244
Width: 553
Flags: MW
HStem: 70 405<160 363 321 321>
VStem: 78 400<281 281>
LayerCount: 2
Fore
SplineSet
324 323 m 1
 464 379 l 1
 478 281 l 1
 333 249 l 1
 415 130 l 1
 321 70 l 1
 265 199 l 1
 160 70 l 1
 88 130 l 1
 211 249 l 1
 78 281 l 1
 126 379 l 1
 247 323 l 1
 261 475 l 1
 363 475 l 1
 324 323 l 1
EndSplineSet
EndChar

StartChar: plus
Encoding: 43 43 307
Width: 642
Flags: MW
HStem: 277 80<113 275 98 289 378 541 113 365>
VStem: 98 457<277 357>
LayerCount: 2
Fore
SplineSet
541 277 m 1
 365 277 l 1
 330 78 l 1
 240 78 l 1
 275 277 l 1
 98 277 l 1
 113 357 l 1
 289 357 l 1
 324 556 l 1
 413 556 l 1
 378 357 l 1
 555 357 l 1
 541 277 l 1
EndSplineSet
EndChar

StartChar: hyphen
Encoding: 45 45 271
Width: 304
Flags: MW
HStem: 240 86<39 265 25 279>
VStem: 25 254<240 326>
LayerCount: 2
Fore
SplineSet
265 240 m 1
 25 240 l 1
 39 326 l 1
 279 326 l 1
 265 240 l 1
EndSplineSet
EndChar

StartChar: period
Encoding: 46 46 253
Width: 271
Flags: MW
HStem: -14 182<69 100>
VStem: -8 185<63.5 90.5>
LayerCount: 2
Fore
SplineSet
101 168 m 0
 143 168 177 143 177 97 c 0
 177 30 132 -14 68 -14 c 0
 26 -14 -8 11 -8 57 c 0
 -8 124 37 168 101 168 c 0
EndSplineSet
EndChar

StartChar: slash
Encoding: 47 47 260
Width: 335
Flags: MW
HStem: -30 750<-68 410 -68 410>
VStem: -68 478
LayerCount: 2
Fore
SplineSet
27 -30 m 1
 -68 -30 l 1
 316 720 l 1
 410 720 l 1
 27 -30 l 1
EndSplineSet
EndChar

StartChar: zero
Encoding: 48 48 233
Width: 642
Flags: MW
HStem: -14 116<267 360 267 422.5> 588 116<304 396.5>
VStem: 41 166<194 292 194 348.5> 457 166<400.5 496.5>
LayerCount: 2
Fore
SplineSet
366 704 m 0
 542 704 623 598 623 438 c 0
 623 251 547 -14 298 -14 c 0
 122 -14 41 93 41 252 c 0
 41 445 119 704 366 704 c 0
298 102 m 0
 422 102 457 348 457 453 c 0
 457 540 427 588 366 588 c 0
 242 588 207 347 207 237 c 0
 207 151 236 102 298 102 c 0
EndSplineSet
EndChar

StartChar: one
Encoding: 49 49 234
Width: 642
Flags: MW
HStem: 0 21G<267 423 267 267> 670 20G<472 544 544 544>
VStem: 135 409<416 690>
LayerCount: 2
Fore
SplineSet
544 690 m 1
 423 0 l 1
 267 0 l 1
 359 526 l 1
 135 416 l 1
 160 559 l 1
 341 655 l 2
 386 678 428 690 472 690 c 2
 544 690 l 1
EndSplineSet
EndChar

StartChar: two
Encoding: 50 50 235
Width: 642
Flags: MW
HStem: 0 123<273 526> 590 116<351.5 407>
VStem: 458 168<493 539.5>
LayerCount: 2
Fore
SplineSet
273 123 m 1
 548 123 l 1
 526 0 l 1
 9 0 l 1
 22 71 l 1
 286 288 l 2
 412 391 458 445 458 516 c 0
 458 563 432 590 382 590 c 0
 321 590 284 553 263 473 c 1
 260 463 l 1
 104 463 l 1
 106 473 l 1
 147 626 242 706 416 706 c 0
 554 706 626 640 626 538 c 0
 626 448 579 377 404 232 c 2
 273 123 l 1
EndSplineSet
EndChar

StartChar: three
Encoding: 51 51 236
Width: 642
Flags: MW
HStem: -14 116<259.5 330 259.5 363> 298 105.5 588 116<352 406>
VStem: 32 157<205 205> 419 167<181 240.5> 458 168<501.5 540>
LayerCount: 2
Fore
SplineSet
467 364 m 1xf8
 545 346 586 302 586 231 c 0
 586 86 455 -14 271 -14 c 0
 107 -14 22 65 32 205 c 1
 33 215 l 1
 190 215 l 1
 189 205 l 1
 188 145 223 102 296 102 c 0
 364 102 419 148 419 214 c 0xf8
 419 267 380 295 308 298 c 1
 284 298 l 1
 302 403 l 1
 326 404 l 1
 406 409 458 456 458 519 c 0
 458 561 430 588 382 588 c 0
 322 588 283 545 269 488 c 1
 267 478 l 1
 111 478 l 1
 113 488 l 1
 144 607 232 704 419 704 c 0
 560 704 626 634 626 548 c 0xf4
 626 455 573 388 467 364 c 1xf8
EndSplineSet
EndChar

StartChar: four
Encoding: 52 52 237
Width: 642
Flags: MW
HStem: 0 21G<319 475 319 319> 159 123<208 347 526 588> 670 20G<436 604 604 604>
VStem: 18 591<159 282>
LayerCount: 2
Fore
SplineSet
588 159 m 1
 503 159 l 1
 475 0 l 1
 319 0 l 1
 347 159 l 1
 18 159 l 1
 33 244 l 1
 436 690 l 1
 604 690 l 1
 526 282 l 1
 609 282 l 1
 588 159 l 1
369 282 m 1
 415 515 l 1
 397 491 381 469 364 451 c 2
 208 282 l 1
 369 282 l 1
EndSplineSet
EndChar

StartChar: five
Encoding: 53 53 238
Width: 642
Flags: MW
HStem: -14 116<254 326.5 254 354> 350 116<305 457.5> 568 122<300 300 300 615>
VStem: 45 156<191 201 191 201> 420 168<210 280.5>
LayerCount: 2
Fore
SplineSet
300 568 m 1
 245 394 l 1
 284 440 l 1
 319 459 357 466 396 466 c 0
 519 466 588 394 588 277 c 0
 588 87 436 -14 272 -14 c 0
 124 -14 34 49 45 191 c 1
 45 201 l 1
 201 201 l 1
 201 191 l 1
 199 134 225 102 283 102 c 0
 370 102 420 169 420 251 c 0
 420 310 389 350 330 350 c 0
 280 350 245 329 216 279 c 1
 71 279 l 1
 196 690 l 1
 636 690 l 1
 615 568 l 1
 300 568 l 1
EndSplineSet
EndChar

StartChar: six
Encoding: 54 54 239
Width: 642
Flags: MW
HStem: -14 116<265 332 265 355> 347 116<301.5 467> 588 116<351 413.5>
VStem: 50 156<171 246 171 373> 422 170<209.5 278> 467 159<498 508 508 508>
LayerCount: 2
Fore
SplineSet
419 704 m 0xf4
 564 704 633 628 626 508 c 1
 625 498 l 1
 467 498 l 1
 467 508 l 1
 462 563 438 588 389 588 c 0xf4
 313 588 254 516 224 361 c 1
 271 425 l 1
 314 455 352 463 401 463 c 0
 533 463 592 383 592 281 c 0xf8
 592 94 434 -14 276 -14 c 0
 130 -14 50 72 50 225 c 0
 50 521 214 704 419 704 c 0xf4
334 347 m 0xf8
 269 347 206 292 206 200 c 0
 206 142 237 102 293 102 c 0
 371 102 422 170 422 249 c 0
 422 307 393 347 334 347 c 0xf8
EndSplineSet
EndChar

StartChar: seven
Encoding: 55 55 240
Width: 642
Flags: MW
HStem: 0 21G<48 221 48 48> 568 122<126 459 104 669>
VStem: 48 621
LayerCount: 2
Fore
SplineSet
669 690 m 1
 653 605 l 1
 221 0 l 1
 48 0 l 1
 459 568 l 1
 104 568 l 1
 126 690 l 1
 669 690 l 1
EndSplineSet
EndChar

StartChar: eight
Encoding: 56 56 241
Width: 642
Flags: MW
HStem: -15 116<261.5 336 261.5 353.5> 304 114<330.5 358> 588 116<355 408>
VStem: 32 167<157.5 216> 122 160<465 517.5 465 547> 419 163<185.5 244> 458 163<489.5 540.5>
LayerCount: 2
Fore
SplineSet
478 366 m 1xf4
 535 344 582 297 582 222 c 0
 582 57 438 -15 269 -15 c 0
 126 -15 32 35 32 158 c 0xf4
 32 274 116 340 200 366 c 1
 155 384 122 421 122 483 c 0
 122 611 230 704 407 704 c 0
 547 704 621 637 621 540 c 0xea
 621 439 551 388 478 366 c 1xf4
353 418 m 0xea
 414 418 458 457 458 520 c 0
 458 561 432 588 384 588 c 0
 326 588 282 548 282 487 c 0
 282 443 308 418 353 418 c 0xea
292 101 m 0xf4
 380 101 419 152 419 219 c 0
 419 269 389 304 327 304 c 0
 252 304 199 254 199 183 c 0
 199 132 231 101 292 101 c 0xf4
EndSplineSet
EndChar

StartChar: nine
Encoding: 57 57 242
Width: 642
Flags: MW
HStem: -14 116<250.5 313 250.5 348> 227 116<197.5 362.5> 588 116<332.5 399>
VStem: 38 159<183 193> 73 169<412 481 412 502.5> 458 156<444.5 520>
LayerCount: 2
Fore
SplineSet
388 704 m 0xec
 534 704 614 619 614 466 c 0
 614 169 450 -14 246 -14 c 0
 101 -14 31 62 38 183 c 1
 39 193 l 1
 197 193 l 1
 197 183 l 1
 202 127 226 102 275 102 c 0xf4
 351 102 410 174 441 331 c 1
 393 265 l 1
 351 236 312 227 263 227 c 0
 132 227 73 308 73 409 c 0
 73 596 230 704 388 704 c 0xec
330 343 m 0
 395 343 458 398 458 491 c 0
 458 549 427 588 371 588 c 0
 294 588 242 521 242 441 c 0
 242 383 271 343 330 343 c 0
EndSplineSet
EndChar

StartChar: colon
Encoding: 58 58 247
Width: 271
Flags: MW
HStem: -14 21G<57 109.5> -14 182<78.5 109.5> 365 182<145.5 176.5> 527 20G<145.5 198.5>
VStem: 2 185<63.5 90.5> 68 185<442.5 469.5>
LayerCount: 2
Fore
SplineSet
177 547 m 0x94
 220 547 253 522 253 476 c 0
 253 409 208 365 145 365 c 0xa4
 103 365 68 390 68 436 c 0
 68 503 114 547 177 547 c 0x94
110 168 m 0x58
 153 168 187 143 187 97 c 0
 187 30 141 -14 78 -14 c 0
 36 -14 2 11 2 57 c 0
 2 124 47 168 110 168 c 0x58
EndSplineSet
EndChar

StartChar: semicolon
Encoding: 59 59 259
Width: 271
Flags: MW
HStem: -123 277<-97 180 -97 180> 365 182<145.5 176.5> 527 20G<145.5 198.5>
VStem: 68 185<442.5 469.5>
LayerCount: 2
Fore
SplineSet
177 547 m 0xb0
 220 547 253 522 253 476 c 0
 253 409 208 365 145 365 c 0xd0
 103 365 68 390 68 436 c 0
 68 503 114 547 177 547 c 0xb0
177 136 m 1
 27 -123 l 1
 -97 -123 l 1
 32 154 l 1
 180 154 l 1
 177 136 l 1
EndSplineSet
EndChar

StartChar: less
Encoding: 60 60 298
Width: 642
Flags: MW
HStem: 23 485<516 601>
VStem: 95 506<206 508>
LayerCount: 2
Fore
SplineSet
582 401 m 1
 205 264 l 1
 535 128 l 1
 516 23 l 1
 95 206 l 1
 116 325 l 1
 601 508 l 1
 582 401 l 1
EndSplineSet
EndChar

StartChar: equal
Encoding: 61 61 293
Width: 642
Flags: MW
HStem: 177 80<80 538 66 552> 377 80<115 574 101 587>
VStem: 66 521<177 457>
LayerCount: 2
Fore
SplineSet
574 377 m 1
 101 377 l 1
 115 457 l 1
 587 457 l 1
 574 377 l 1
538 177 m 1
 66 177 l 1
 80 257 l 1
 552 257 l 1
 538 177 l 1
EndSplineSet
EndChar

StartChar: greater
Encoding: 62 62 294
Width: 642
Flags: MW
HStem: 23 485<26 111>
VStem: 26 507<23 325>
LayerCount: 2
Fore
SplineSet
533 325 m 1
 512 206 l 1
 26 23 l 1
 45 129 l 1
 423 266 l 1
 92 402 l 1
 111 508 l 1
 533 325 l 1
EndSplineSet
EndChar

StartChar: question
Encoding: 63 63 255
Width: 627
Flags: MW
HStem: -14 166<267.5 308.5> 588 116<351 399.5>
VStem: 202 172<58.5 80> 447 167<501 544>
LayerCount: 2
Fore
SplineSet
407 704 m 0
 540 704 614 644 614 546 c 0
 614 456 577 405 472 325 c 0
 413 281 390 255 374 203 c 1
 243 203 l 1
 259 277 283 312 341 366 c 0
 424 442 447 475 447 523 c 0
 447 565 422 588 377 588 c 0
 325 588 287 554 271 479 c 1
 114 479 l 1
 140 620 254 704 407 704 c 0
299 152 m 0
 345 152 374 125 374 82 c 0
 374 35 340 -14 277 -14 c 0
 230 -14 202 13 202 56 c 0
 202 104 236 152 299 152 c 0
EndSplineSet
EndChar

StartChar: at
Encoding: 64 64 315
Width: 911
Flags: MW
HStem: -127 87<338 463.5> 70 86<648.5 689 648.5 689.5> 72 108<336 439> 380 108<439 449 372 478.5> 606 87<397 568>
VStem: 39 97<163.5 370 163.5 380> 234 146<224.5 286.5 224.5 309> 501.94 22.06 762 96<278.5 424>
LayerCount: 2
Fore
SplineSet
678 470 m 1xdf80
 638 305 l 2
 624 247 623 230 623 214 c 0
 623 180 634 156 663 156 c 0
 715 156 762 218 762 339 c 0
 762 509 652 606 484 606 c 0
 310 606 136 485 136 255 c 0
 136 72 244 -40 432 -40 c 0
 517 -40 598 -18 662 29 c 1
 696 -47 l 1
 608 -104 506 -127 421 -127 c 0
 242 -127 39 -21 39 249 c 0
 39 511 246 693 488 693 c 0
 726 693 858 530 858 347 c 0
 858 146 750 70 629 70 c 0
 557 70 507 101 490 163 c 1xdf80
 461 105 l 1
 431 81 401 72 370 72 c 0xbf80
 302 72 234 111 234 239 c 0
 234 379 314 488 430 488 c 0
 468 488 497 476 510 460 c 1
 524 407 l 1
 544 470 l 1
 678 470 l 1xdf80
423 180 m 0xbf80
 455 180 476 212 485 249 c 2
 499 312 l 2
 509 357 494 380 463 380 c 0
 415 380 380 323 380 250 c 0
 380 199 397 180 423 180 c 0xbf80
EndSplineSet
EndChar

StartChar: B
Encoding: 66 66 12
Width: 665
GlyphClass: 2
Flags: MW
HStem: 0 123<207 291> 297 115<258 343 238 352> 568 122<286 286 286 377>
VStem: 457 166<194 247> 481 169<497.5 523.5>
LayerCount: 2
Fore
SplineSet
515 372 m 1xf0
 588 348 623 296 623 220 c 0xf0
 623 82 495 17 390 4 c 0
 354 0 332 0 291 0 c 2
 29 0 l 1
 151 690 l 1
 414 690 l 2
 450 690 468 690 502 686 c 0
 599 674 650 616 650 539 c 0xe8
 650 456 603 398 515 372 c 1xf0
286 568 m 1
 258 412 l 1
 352 412 l 2
 369 412 384 413 400 415 c 0
 453 423 481 453 481 505 c 0
 481 542 459 560 425 565 c 0xe8
 410 567 393 568 377 568 c 2
 286 568 l 1
362 124 m 0xf0
 408 127 457 163 457 225 c 0
 457 269 428 291 390 295 c 0
 375 297 359 297 343 297 c 2
 238 297 l 1
 207 123 l 1
 316 123 l 2
 332 123 348 123 362 124 c 0xf0
EndSplineSet
Position2: "'cpsp' Capital Spacing in Latin lookup 0 subtable" dx=5 dy=0 dh=10 dv=0
EndChar

StartChar: C
Encoding: 67 67 13
Width: 755
GlyphClass: 2
Flags: MW
HStem: -14 116<324.5 403.5 324.5 432> 588 116<384.5 487>
VStem: 62 166 575 157<455 465 465 465>
AnchorPoint: "Anchor-0" 65 0 basechar 0
LayerCount: 2
Fore
SplineSet
461 704 m 0
 652 704 742 601 732 465 c 1
 731 455 l 1
 575 455 l 1
 575 465 l 1
 573 550 529 588 445 588 c 0
 324 588 228 473 228 283 c 0
 228 154 286 102 363 102 c 0
 444 102 500 151 531 233 c 1
 535 243 l 1
 691 243 l 1
 688 233 l 1
 644 75 520 -14 344 -14 c 0
 172 -14 61 88 62 271 c 1
 61 534 243 704 461 704 c 0
EndSplineSet
Position2: "'cpsp' Capital Spacing in Latin lookup 0 subtable" dx=5 dy=0 dh=10 dv=0
EndChar

StartChar: F
Encoding: 70 70 31
Width: 597
GlyphClass: 2
Flags: MW
HStem: 0 21G<29 185 29 29> 285 122<257 548 235 570> 568 122<285 285 285 630>
VStem: 29 623
LayerCount: 2
Fore
SplineSet
285 568 m 1
 257 407 l 1
 570 407 l 1
 548 285 l 1
 235 285 l 1
 185 0 l 1
 29 0 l 1
 151 690 l 1
 652 690 l 1
 630 568 l 1
 285 568 l 1
EndSplineSet
Position2: "'cpsp' Capital Spacing in Latin lookup 0 subtable" dx=5 dy=0 dh=10 dv=0
EndChar

StartChar: H
Encoding: 72 72 36
Width: 754
GlyphClass: 2
Flags: MW
HStem: 0 21G<29 185 29 29 487 644 487 487> 277 123<256 536 234 558> 670 20G<151 307 307 307 609 766 766 766>
VStem: 29 737<0 690>
LayerCount: 2
Fore
SplineSet
766 690 m 1
 644 0 l 1
 487 0 l 1
 536 277 l 1
 234 277 l 1
 185 0 l 1
 29 0 l 1
 151 690 l 1
 307 690 l 1
 256 400 l 1
 558 400 l 1
 609 690 l 1
 766 690 l 1
EndSplineSet
Position2: "'cpsp' Capital Spacing in Latin lookup 0 subtable" dx=5 dy=0 dh=10 dv=0
EndChar

StartChar: I
Encoding: 73 73 38
Width: 295
GlyphClass: 2
Flags: MW
HStem: 0 21G<29 185 29 29> 670 20G<151 307 307 307>
VStem: 29 278
LayerCount: 2
Fore
SplineSet
185 0 m 1
 29 0 l 1
 151 690 l 1
 307 690 l 1
 185 0 l 1
EndSplineSet
Position2: "'cpsp' Capital Spacing in Latin lookup 0 subtable" dx=5 dy=0 dh=10 dv=0
EndChar

StartChar: J
Encoding: 74 74 47
Width: 608
GlyphClass: 2
Flags: MW
HStem: -14 116<229.5 287.5 229.5 323> 670 20G<456 612 612 612>
VStem: 16.67 162.33
LayerCount: 2
Fore
SplineSet
612 690 m 1
 542 290 l 2
 537 260 533 238 522 191 c 0
 494 71 412 -14 234 -14 c 0
 76 -14 -1 79 20 224 c 1
 24 257 l 1
 181 257 l 1
 177 224 l 1
 167 133 200 102 259 102 c 0
 316 102 351 137 368 200 c 0
 374 223 378 245 383 270 c 2
 456 690 l 1
 612 690 l 1
EndSplineSet
Position2: "'cpsp' Capital Spacing in Latin lookup 0 subtable" dx=5 dy=0 dh=10 dv=0
EndChar

StartChar: M
Encoding: 77 77 56
Width: 903
GlyphClass: 2
Flags: MW
HStem: 0 21G<29 185 29 29 319 503 319 319 636 793 636 636> 0 166<442 442 442 503 319 442> 536 154<278 278> 670 20G<151 406 406 406 654 915 915 915>
VStem: 29 886<0 690>
LayerCount: 2
Fore
SplineSet
915 690 m 1x98
 793 0 l 1
 636 0 l 1
 732 533 l 1
 503 0 l 1
 319 0 l 1
 278 536 l 1xa8
 185 0 l 1
 29 0 l 1
 151 690 l 1
 406 690 l 1
 442 166 l 1x58
 654 690 l 1
 915 690 l 1x98
EndSplineSet
Position2: "'cpsp' Capital Spacing in Latin lookup 0 subtable" dx=5 dy=0 dh=10 dv=0
EndChar

StartChar: P
Encoding: 80 80 73
Width: 638
GlyphClass: 2
Flags: MW
HStem: 0 21G<29 185 29 29> 252 123<251 322 230 338> 567 123<285 372 285 285>
VStem: 491 166<456.5 514>
LayerCount: 2
Fore
SplineSet
495 685 m 0
 583 675 657 616 657 510 c 0
 657 356 542 270 426 257 c 0
 390 253 363 252 322 252 c 2
 230 252 l 1
 185 0 l 1
 29 0 l 1
 151 690 l 1
 392 690 l 2
 433 690 460 689 495 685 c 0
394 377 m 0
 451 384 491 422 491 491 c 0
 491 537 466 561 428 565 c 0
 413 567 394 567 372 567 c 2
 285 567 l 1
 251 375 l 1
 338 375 l 2
 360 375 378 375 394 377 c 0
EndSplineSet
Position2: "'cpsp' Capital Spacing in Latin lookup 0 subtable" dx=5 dy=0 dh=10 dv=0
EndChar

StartChar: Q
Encoding: 81 81 75
Width: 788
GlyphClass: 2
Flags: MW
HStem: -14 116<329 383> 6 96<329 535> 588 116<376.5 504>
VStem: 63 166<226 349 226 403.5> 605 166<347.5 464>
LayerCount: 2
Fore
SplineSet
771 413 m 0xb8
 771 282 719 167 636 110 c 1
 670 99 700 80 733 51 c 1
 653 -49 l 1
 588 -8 556 6 514 6 c 0x78
 487 6 469 3 441 -5 c 0
 418 -11 395 -14 371 -14 c 0
 169 -14 63 109 63 278 c 0
 63 529 222 704 462 704 c 0
 664 704 771 582 771 413 c 0xb8
229 281 m 0
 229 171 281 102 377 102 c 0
 537 102 605 273 605 409 c 0
 605 519 552 588 456 588 c 0
 297 588 229 417 229 281 c 0
EndSplineSet
Position2: "'cpsp' Capital Spacing in Latin lookup 0 subtable" dx=5 dy=0 dh=10 dv=0
EndChar

StartChar: S
Encoding: 83 83 80
Width: 612
GlyphClass: 2
Flags: MW
HStem: -14 116<256.5 320 256.5 350> -14 221<16 350> 483 221<450 461 301 608 450 450> 588 116<330 391>
VStem: 91 169<480 529.5 480 542> 404 169<165 212.5> 450 158<483 483>
AnchorPoint: "Anchor-0" 263 0 basechar 0
LayerCount: 2
Fore
SplineSet
375 704 m 0x9a
 547 704 615 608 608 483 c 1xaa
 450 483 l 1x9a
 454 547 424 588 358 588 c 0
 302 588 260 558 260 501 c 0
 260 459 294 432 390 409 c 0
 516 378 573 315 573 223 c 0
 573 69 430 -14 270 -14 c 0x9c
 109 -14 2 58 16 207 c 1x5c
 174 207 l 1
 175 136 225 102 288 102 c 0
 352 102 404 137 404 193 c 0x9c
 404 232 372 264 293 285 c 0
 167 317 91 364 91 466 c 0
 91 618 227 704 375 704 c 0x9a
EndSplineSet
Position2: "'cpsp' Capital Spacing in Latin lookup 0 subtable" dx=5 dy=0 dh=10 dv=0
EndChar

StartChar: T
Encoding: 84 84 85
Width: 627
GlyphClass: 2
Flags: MW
HStem: 0 21G<202 358 202 202> 568 122<94 302 72 710 458 687 458 458>
VStem: 72 638<568 690>
AnchorPoint: "Anchor-0" 280 0 basechar 0
LayerCount: 2
Fore
SplineSet
687 568 m 1
 458 568 l 1
 358 0 l 1
 202 0 l 1
 302 568 l 1
 72 568 l 1
 94 690 l 1
 710 690 l 1
 687 568 l 1
EndSplineSet
Position2: "'cpsp' Capital Spacing in Latin lookup 0 subtable" dx=5 dy=0 dh=10 dv=0
EndChar

StartChar: V
Encoding: 86 86 99
Width: 720
GlyphClass: 2
Flags: MW
HStem: 0 21G<227 432 227 227> 0 121<352 352 352 432> 670 20G<107 277 277 277 630 798 798 798>
VStem: 107 691<690 690>
LayerCount: 2
Fore
SplineSet
432 0 m 1xb0
 227 0 l 1
 107 690 l 1
 277 690 l 1
 352 121 l 1x70
 630 690 l 1
 798 690 l 1
 432 0 l 1xb0
EndSplineSet
Position2: "'cpsp' Capital Spacing in Latin lookup 0 subtable" dx=5 dy=0 dh=10 dv=0
EndChar

StartChar: X
Encoding: 88 88 105
Width: 685
GlyphClass: 2
Flags: MW
HStem: 0 21G<-58 130 -58 -58 454 634 454 454> 670 20G<81 258 258 258 563 744 744 744>
VStem: -58 802<0 690>
LayerCount: 2
Fore
SplineSet
437 345 m 1
 634 0 l 1
 454 0 l 1
 324 247 l 1
 130 0 l 1
 -58 0 l 1
 257 352 l 1
 81 690 l 1
 258 690 l 1
 369 450 l 1
 563 690 l 1
 744 690 l 1
 437 345 l 1
EndSplineSet
Position2: "'cpsp' Capital Spacing in Latin lookup 0 subtable" dx=5 dy=0 dh=10 dv=0
EndChar

StartChar: Y
Encoding: 89 89 106
Width: 658
GlyphClass: 2
Flags: MW
HStem: 0 21G<219 376 219 219> 670 20G<98 265 265 265 566 741 741 741>
VStem: 98 643<690 690>
LayerCount: 2
Fore
SplineSet
422 261 m 1
 376 0 l 1
 219 0 l 1
 266 266 l 1
 98 690 l 1
 265 690 l 1
 369 398 l 1
 566 690 l 1
 741 690 l 1
 422 261 l 1
EndSplineSet
Position2: "'cpsp' Capital Spacing in Latin lookup 0 subtable" dx=5 dy=0 dh=10 dv=0
EndChar

StartChar: bracketleft
Encoding: 91 91 264
Width: 384
Flags: MW
HStem: -80 86<140 281> 694 86<262 418 262 262>
VStem: 35 398
LayerCount: 2
Fore
SplineSet
187 780 m 1
 433 780 l 1
 418 694 l 1
 262 694 l 1
 140 6 l 1
 296 6 l 1
 281 -80 l 1
 35 -80 l 1
 187 780 l 1
EndSplineSet
EndChar

StartChar: backslash
Encoding: 92 92 245
Width: 335
Flags: MW
HStem: -30 750<65 278 65 184>
VStem: 65 213
LayerCount: 2
Fore
SplineSet
278 -30 m 1
 184 -30 l 1
 65 720 l 1
 159 720 l 1
 278 -30 l 1
EndSplineSet
EndChar

StartChar: bracketright
Encoding: 93 93 265
Width: 384
Flags: MW
HStem: -80 86<-13 143 -13 217 -29 143> 694 86<124 264 108 369>
VStem: -29 398
LayerCount: 2
Fore
SplineSet
217 -80 m 1
 -29 -80 l 1
 -13 6 l 1
 143 6 l 1
 264 694 l 1
 108 694 l 1
 124 780 l 1
 369 780 l 1
 217 -80 l 1
EndSplineSet
EndChar

StartChar: asciicircum
Encoding: 94 94 314
Width: 642
Flags: MW
HStem: 215 401<75 419 75 419 314 520 314 421>
VStem: 75 445<215 215>
LayerCount: 2
Fore
SplineSet
421 215 m 1
 353 529 l 1
 176 215 l 1
 75 215 l 1
 314 616 l 1
 419 616 l 1
 520 215 l 1
 421 215 l 1
EndSplineSet
EndChar

StartChar: underscore
Encoding: 95 95 261
Width: 500
Flags: MW
HStem: -88 86<57 443 43 457>
VStem: 43 414<-88 -2>
LayerCount: 2
Fore
SplineSet
443 -88 m 1
 43 -88 l 1
 57 -2 l 1
 457 -2 l 1
 443 -88 l 1
EndSplineSet
EndChar

StartChar: grave
Encoding: 96 96 333
Width: 300
Flags: MW
HStem: 572 121<113 137 -3 199 113 113>
VStem: -3 202<572 693>
LayerCount: 2
Fore
SplineSet
199 572 m 1
 113 572 l 1
 -3 693 l 1
 137 693 l 1
 199 572 l 1
EndSplineSet
EndChar

StartChar: a
Encoding: 97 97 115
Width: 568
GlyphClass: 2
Flags: MW
HStem: -14 108<120 259.5> 0 94<219 479 219 326> 237.18 88.82 439 108<290 339>
VStem: 12 163<130.5 182 130.5 192.5> 327 152 377 158<388.5 399>
LayerCount: 2
Fore
SplineSet
333 547 m 0xba
 480 547 535 486 535 403 c 0
 535 374 530 344 521 294 c 2x7a
 493 135 l 2
 486 95 482 59 479 0 c 1
 326 0 l 1
 328 77 l 1x7c
 295 24 l 1xbc
 259 -2 212 -14 161 -14 c 0
 79 -14 12 32 12 128 c 0
 12 257 146 338 371 326 c 1
 372 332 l 2
 375 350 377 367 377 384 c 0
 377 414 361 439 317 439 c 0
 263 439 231 409 218 356 c 1
 68 356 l 1
 91 478 201 547 333 547 c 0xba
347 194 m 1x7c
 354 235 l 1
 251 246 175 215 175 149 c 0
 175 112 200 94 238 94 c 0
 281 94 335 129 347 192 c 1
 347 194 l 1x7c
EndSplineSet
Substitution2: "'salt' Stylistic Alternatives in Latin lookup 5 subtable" a.alt
EndChar

StartChar: b
Encoding: 98 98 126
Width: 663
GlyphClass: 2
Flags: MW
HStem: -14 108<305 365 269.5 433> 0 94 439 108<339.5 502.5> 715 20G<143 300 300 300>
VStem: 477 166<255.5 354>
LayerCount: 2
Fore
SplineSet
436 547 m 0xb8
 569 547 643 470 643 335 c 0
 643 157 539 -14 327 -14 c 0
 283 -14 232 -2 209 17 c 1
 183 75 l 1xb8
 170 0 l 1
 13 0 l 1x78
 143 735 l 1
 300 735 l 1
 250 454 l 1
 301 512 l 1
 334 535 382 547 436 547 c 0xb8
317 94 m 0
 413 94 477 199 477 312 c 0
 477 396 438 439 375 439 c 0
 304 439 240 394 218 273 c 1
 213 249 l 1
 211 240 l 1
 214 249 l 1
 201 170 222 94 317 94 c 0
EndSplineSet
EndChar

StartChar: c
Encoding: 99 99 127
Width: 587
GlyphClass: 2
Flags: MW
HStem: -14 108<249 301.5 249 334> 333 211<421 424.5 246.5 574 421 421> 436 108<287.5 359.5>
VStem: 22 166<171 270.5 171 302.5> 421 153<333 394>
AnchorPoint: "Anchor-0" 250 0 basechar 0
LayerCount: 2
Fore
SplineSet
345 544 m 0xb8
 504 544 574 455 574 333 c 1xd8
 421 333 l 1
 420 403 387 436 332 436 c 0
 243 436 188 332 188 209 c 0
 188 133 225 94 273 94 c 0
 330 94 373 127 395 189 c 1
 551 189 l 1
 502 55 408 -14 260 -14 c 0
 123 -14 22 55 22 210 c 0
 22 395 148 544 345 544 c 0xb8
EndSplineSet
EndChar

StartChar: d
Encoding: 100 100 132
Width: 662
GlyphClass: 2
Flags: MW
HStem: -14 108<161.5 324.5> 0 94<257.5 556 257.5 399> 439 108<298.5 358 230.5 394> 715 20G<529 686 686 686>
VStem: 21 166<179 277.5 179 287>
LayerCount: 2
Fore
SplineSet
686 735 m 1xb8
 556 0 l 1
 399 0 l 1
 413 79 l 1x78
 363 21 l 1
 330 -2 282 -14 228 -14 c 0
 95 -14 21 63 21 198 c 0
 21 376 125 547 336 547 c 0
 380 547 431 535 455 517 c 1
 481 459 l 1
 529 735 l 1
 686 735 l 1xb8
445 260 m 1
 450 285 l 1
 463 363 441 439 347 439 c 0
 250 439 187 334 187 221 c 0
 187 137 226 94 289 94 c 0xb8
 360 94 423 140 445 259 c 1
 445 260 l 1
EndSplineSet
EndChar

StartChar: e
Encoding: 101 101 136
Width: 594
GlyphClass: 2
Flags: MW
HStem: -14 108<244.5 298.5 244.5 327> 226 99<181 412 199 412 199 554> 439 108<294 353.5>
VStem: 22 159<165 205 205 226 165 302> 413 159<340.5 372.5>
AnchorPoint: "Anchor-0" 252 0 basechar 0
LayerCount: 2
Fore
SplineSet
181 226 m 1
 181 205 l 2
 181 125 218 94 271 94 c 0
 326 94 369 124 386 174 c 1
 541 174 l 1
 499 51 395 -14 259 -14 c 0
 128 -14 22 50 22 205 c 0
 22 399 148 547 339 547 c 0
 497 547 572 450 572 332 c 0
 572 299 565 259 554 226 c 1
 181 226 l 1
324 439 m 0
 264 439 221 393 199 325 c 1
 412 325 l 1
 413 333 413 338 413 343 c 0
 413 402 383 439 324 439 c 0
EndSplineSet
EndChar

StartChar: f
Encoding: 102 102 145
Width: 330
GlyphClass: 2
Flags: MW
HStem: 0 21G<19 176 19 19> 429 100<64 95 47 113 268 360> 645 102<349 425>
VStem: 19 406
LayerCount: 2
Fore
SplineSet
281 589 m 0
 276 572 273 559 271 546 c 2
 268 529 l 1
 377 529 l 1
 360 429 l 1
 251 429 l 1
 176 0 l 1
 19 0 l 1
 95 429 l 1
 47 429 l 1
 64 529 l 1
 113 529 l 1
 115 543 l 2
 118 561 123 585 128 603 c 0
 155 704 221 754 318 754 c 0
 372 754 400 751 425 747 c 1
 406 641 l 1
 394 644 382 645 372 645 c 0
 326 645 293 625 281 589 c 0
EndSplineSet
EndChar

StartChar: g
Encoding: 103 103 146
Width: 663
GlyphClass: 2
Flags: MW
HStem: -218 116<215.5 286 215.5 323.5> -10 109<161.5 324.5> 439 94 439 108<298.5 358 230.5 394>
VStem: -6 153<-34 -33> 21 166<179 277.5 179 287>
LayerCount: 2
Fore
SplineSet
651 533 m 1xe4
 580 135 l 2
 574 102 567 61 561 32 c 0
 525 -139 423 -218 224 -218 c 0
 71 -218 -15 -153 -6 -34 c 1
 -5 -24 l 1
 148 -24 l 1
 147 -33 l 1
 144 -76 183 -102 248 -102 c 0xd8
 324 -102 382 -65 401 14 c 0
 405 33 410 56 414 81 c 1
 415 85 l 1
 363 26 l 1
 330 3 282 -10 228 -10 c 0
 95 -10 21 71 21 198 c 0
 21 376 125 547 336 547 c 0
 380 547 431 535 455 517 c 1
 481 459 l 1xd4
 494 533 l 1
 651 533 l 1xe4
289 99 m 0
 360 99 424 140 445 260 c 1
 444 253 l 1
 450 286 l 1
 450 285 l 1
 463 363 441 439 347 439 c 0
 250 439 187 334 187 221 c 0xd4
 187 137 226 99 289 99 c 0
EndSplineSet
EndChar

StartChar: h
Encoding: 104 104 150
Width: 631
GlyphClass: 2
Flags: MW
HStem: 0 21G<13 170 13 13 374 530 374 374> 439 108<354 490.5> 720 20G<143 300 300 300>
VStem: 433 164<349.5 450>
LayerCount: 2
Fore
SplineSet
436 547 m 0
 545 547 597 490 597 410 c 0
 597 382 594 355 585 306 c 2
 530 0 l 1
 374 0 l 1
 423 274 l 2
 429 312 433 340 433 359 c 0
 433 407 413 439 354 439 c 0
 290 438 237 380 212 244 c 1
 170 0 l 1
 13 0 l 1
 143 740 l 1
 300 740 l 1
 249 454 l 1
 305 513 l 1
 345 537 386 547 436 547 c 0
EndSplineSet
EndChar

StartChar: i
Encoding: 105 105 152
Width: 276
GlyphClass: 2
Flags: MW
HStem: 0 21G<13 170 13 13> 513 20G<108 264 264 264> 580 159<191.5 232>
VStem: 128 167<649.5 670.5>
LayerCount: 2
Fore
SplineSet
222 739 m 0
 267 739 295 713 295 672 c 0
 295 627 263 580 201 580 c 0
 156 580 128 606 128 648 c 0
 128 693 161 739 222 739 c 0
170 0 m 1
 13 0 l 1
 108 533 l 1
 264 533 l 1
 170 0 l 1
EndSplineSet
EndChar

StartChar: j
Encoding: 106 106 161
Width: 253
GlyphClass: 2
Flags: MW
HStem: -210 112<-117 -12.5> 513 20G<91 248 248 248> 580 159<169 214>
VStem: 106 171<642.5 676.5>
LayerCount: 2
Fore
SplineSet
198 739 m 0
 249 739 277 713 277 673 c 0
 277 612 243 580 185 580 c 0
 134 580 106 606 106 646 c 0
 106 707 140 739 198 739 c 0
248 533 m 1
 154 1 l 2
 151 -20 145 -46 140 -64 c 0
 118 -155 56 -210 -81 -210 c 0
 -101 -210 -120 -209 -136 -207 c 1
 -117 -98 l 1
 -57 -105 -26 -91 -14 -49 c 0
 -9 -35 -6 -17 -2 1 c 2
 91 533 l 1
 248 533 l 1
EndSplineSet
EndChar

StartChar: k
Encoding: 107 107 162
Width: 610
GlyphClass: 2
Flags: MW
HStem: 0 21G<13 170 13 13 385 575 385 385> 513 20G<466 652 652 652> 715 20G<143 300 300 300>
VStem: 13 639<0 533>
AnchorPoint: "Anchor-0" 264 0 basechar 0
LayerCount: 2
Fore
SplineSet
377 284 m 1
 575 0 l 1
 385 0 l 1
 254 209 l 1
 198 160 l 1
 170 0 l 1
 13 0 l 1
 143 735 l 1
 300 735 l 1
 223 301 l 1
 466 533 l 1
 652 533 l 1
 377 284 l 1
EndSplineSet
EndChar

StartChar: l
Encoding: 108 108 164
Width: 292
GlyphClass: 2
Flags: MW
HStem: -9 105<102 245> 715 20G<140 296 296 296>
VStem: 27 164<41 135.5> 27 269
AnchorPoint: "Anchor-0" 106 0 basechar 0
LayerCount: 2
Fore
SplineSet
296 735 m 1xd0
 198 182 l 2
 193 159 191 142 191 129 c 0
 191 99 206 94 245 96 c 1
 227 -3 l 1
 201 -7 175 -9 140 -9 c 0
 64 -9 27 13 27 69 c 0
 27 96 31 128 40 179 c 2xe0
 140 735 l 1
 296 735 l 1xd0
EndSplineSet
EndChar

StartChar: m
Encoding: 109 109 170
Width: 939
GlyphClass: 2
Flags: MW
HStem: 0 21G<13 170 13 13 348 504 348 348 682 839 682 682> 439 94<107 360.5> 439 108<310.5 464>
VStem: 741 166<352.5 452>
LayerCount: 2
Fore
SplineSet
748 547 m 0xb0
 859 547 907 488 907 416 c 0
 907 388 902 359 894 315 c 2
 839 0 l 1
 682 0 l 1
 731 275 l 2
 736 306 741 340 741 365 c 0
 741 412 718 439 676 439 c 0
 622 439 573 378 554 285 c 1
 553 277 l 1
 504 0 l 1
 348 0 l 1
 396 275 l 2
 401 309 406 341 406 365 c 0
 406 412 384 439 337 439 c 0
 284 439 237 379 219 280 c 1
 219 277 l 1
 170 0 l 1
 13 0 l 1
 107 533 l 1
 263 533 l 1
 250 458 l 1xd0
 301 516 l 1
 337 537 373 547 421 547 c 0
 507 547 555 506 568 450 c 1
 621 510 l 1
 661 539 700 547 748 547 c 0xb0
EndSplineSet
EndChar

StartChar: p
Encoding: 112 112 187
Width: 663
GlyphClass: 2
Flags: MW
HStem: -14 108<305 365 269.5 433> 439 94<108 406.5> 439 108<339.5 502.5>
VStem: 477 166<255.5 354>
LayerCount: 2
Fore
SplineSet
436 547 m 0xb0
 569 547 643 470 643 335 c 0
 643 157 539 -14 327 -14 c 0
 283 -14 232 -2 209 17 c 1
 183 75 l 1
 135 -196 l 1
 -22 -196 l 1
 108 533 l 1
 264 533 l 1
 250 454 l 1xd0
 301 512 l 1
 334 535 382 547 436 547 c 0xb0
317 94 m 0
 413 94 477 199 477 312 c 0
 477 396 438 439 375 439 c 0
 304 439 240 394 218 273 c 1
 214 249 l 2
 201 170 222 94 317 94 c 0
EndSplineSet
EndChar

StartChar: q
Encoding: 113 113 189
Width: 663
GlyphClass: 2
Flags: MW
HStem: -14 108<161.5 324.5> 439 94 439 108<298.5 358 230.5 394>
VStem: 21 166<179 277.5 179 287>
LayerCount: 2
Fore
SplineSet
651 533 m 1xd0
 521 -196 l 1
 364 -196 l 1
 413 79 l 1
 363 21 l 1
 330 -2 282 -14 228 -14 c 0
 95 -14 21 63 21 198 c 0
 21 376 125 547 336 547 c 0
 380 547 431 535 455 517 c 1
 481 459 l 1xb0
 494 533 l 1
 651 533 l 1xd0
445 260 m 1
 450 285 l 1
 463 363 441 439 347 439 c 0
 250 439 187 334 187 221 c 0
 187 137 226 94 289 94 c 0
 360 94 423 140 445 258 c 1
 445 260 l 1
EndSplineSet
EndChar

StartChar: t
Encoding: 116 116 200
Width: 372
GlyphClass: 2
Flags: MW
HStem: -13 110.05 -13 113<143.5 320> 429 100<52 111 34 129 286 378>
VStem: 34 362<429 529> 57 165<51.5 153.5>
AnchorPoint: "Anchor-0" 159 0 basechar 0
LayerCount: 2
Fore
SplineSet
269 429 m 1xb0
 229 205 l 2
 223 176 222 162 222 145 c 0xa8
 222 101 252 91 320 100 c 1x68
 302 -1 l 1
 266 -9 231 -13 192 -13 c 0
 95 -13 57 19 57 84 c 0
 57 106 60 135 68 184 c 2
 111 429 l 1
 34 429 l 1
 52 529 l 1
 129 529 l 1
 153 663 l 1xa8
 310 663 l 1
 286 529 l 1
 396 529 l 1
 378 429 l 1
 269 429 l 1xb0
EndSplineSet
EndChar

StartChar: u
Encoding: 117 117 205
Width: 626
GlyphClass: 2
Flags: MW
HStem: -14 109<137 305> 0 95<273 520 273 364> 513 20G<97 254 254 254 458 614 614 614>
VStem: 30 164<83 183.5>
LayerCount: 2
Fore
SplineSet
614 533 m 1x70
 520 0 l 1
 364 0 l 1
 378 79 l 1x70
 322 20 l 1
 282 -4 242 -14 191 -14 c 0xb0
 83 -14 30 43 30 123 c 0
 30 151 33 178 42 228 c 2
 97 533 l 1
 254 533 l 1
 204 259 l 2
 198 222 194 193 194 174 c 0
 194 127 215 94 273 95 c 1
 337 95 391 153 415 289 c 2
 458 533 l 1
 614 533 l 1x70
EndSplineSet
EndChar

StartChar: v
Encoding: 118 118 214
Width: 562
GlyphClass: 2
Flags: MW
HStem: 0 21G<144 321 144 144> 0 128<257 257 257 321 144 257> 513 20G<32 207 207 207 450 622 622 622>
VStem: 32 590<533 533>
LayerCount: 2
Fore
SplineSet
622 533 m 1xb0
 321 0 l 1
 144 0 l 1
 32 533 l 1
 207 533 l 1
 257 128 l 1x70
 450 533 l 1
 622 533 l 1xb0
EndSplineSet
EndChar

StartChar: w
Encoding: 119 119 215
Width: 823
GlyphClass: 2
Flags: MW
HStem: 0 21G<107 284 107 107 444 621 444 444> 0 136<564 564 564 621 444 564> 513 20G<32 205 205 205 715 884 884 884>
VStem: 438 120
LayerCount: 2
Fore
SplineSet
884 533 m 1xb0
 621 0 l 1
 444 0 l 1
 432 388 l 1
 284 0 l 1
 107 0 l 1
 32 533 l 1
 205 533 l 1
 220 138 l 1
 364 530 l 1
 552 530 l 1
 564 136 l 1x70
 715 533 l 1
 884 533 l 1xb0
EndSplineSet
EndChar

StartChar: x
Encoding: 120 120 220
Width: 553
GlyphClass: 2
Flags: MW
HStem: 0 21G<-58 123 -58 -58 323 506 323 323> 513 20G<44 227 227 227 418 599 599 599>
VStem: -58 657<0 533>
LayerCount: 2
Fore
SplineSet
357 266 m 1
 506 0 l 1
 323 0 l 1
 248 161 l 1
 123 0 l 1
 -58 0 l 1
 180 266 l 1
 44 533 l 1
 227 533 l 1
 291 371 l 1
 418 533 l 1
 599 533 l 1
 357 266 l 1
EndSplineSet
EndChar

StartChar: z
Encoding: 122 122 226
Width: 526
GlyphClass: 2
Flags: MW
HStem: 0 101<185 453> 428 101<95 335 78 538>
VStem: -20 558<0 529>
LayerCount: 2
Fore
SplineSet
520 429 m 1
 185 101 l 1
 470 101 l 1
 453 0 l 1
 -20 0 l 1
 -4 95 l 1
 335 428 l 1
 78 428 l 1
 95 529 l 1
 538 529 l 1
 520 429 l 1
EndSplineSet
EndChar

StartChar: braceleft
Encoding: 123 123 262
Width: 398
Flags: MW
HStem: -80 86<173 270 251 255> 694 86<366 372 372 392>
VStem: 96 91<26 38> 158 92<257 271.5> 202 89<560 619 560 640>
LayerCount: 2
Fore
SplineSet
407 780 m 1xc8
 392 694 l 1
 372 694 l 2
 313 694 291 678 291 560 c 0xc8
 292 437 271 368 181 351 c 1
 227 341 250 315 250 273 c 0xd0
 250 241 244 205 218 140 c 0
 192 74 187 59 187 39 c 0
 187 13 206 6 251 6 c 2
 270 6 l 1
 255 -80 l 1
 214 -80 l 2
 132 -80 96 -39 96 21 c 0xe8
 96 55 101 73 132 150 c 1
 152 203 158 238 158 259 c 0
 158 284 143 304 87 307 c 1xd0
 101 393 l 1
 182 399 202 423 202 550 c 0
 202 730 239 780 366 780 c 2
 407 780 l 1xc8
EndSplineSet
EndChar

StartChar: bar
Encoding: 124 124 316
Width: 312
Flags: MW
HStem: -200 1000<15 292 15 292>
VStem: 15 277
LayerCount: 2
Fore
SplineSet
116 -200 m 1
 15 -200 l 1
 191 800 l 1
 292 800 l 1
 116 -200 l 1
EndSplineSet
EndChar

StartChar: braceright
Encoding: 125 125 263
Width: 398
Flags: MW
HStem: -80 86<15 35 35 41 0 35> 694 86<152 156 137 193>
VStem: 115 90<140 150 60 202> 157 91<429 443> 220 91<662 674.5>
LayerCount: 2
Fore
SplineSet
248 441 m 0xd0
 248 417 264 397 320 393 c 1xd0
 305 307 l 1
 224 302 204 277 205 150 c 1
 205 -30 168 -80 41 -80 c 2
 0 -80 l 1
 15 6 l 1
 35 6 l 2
 93 6 116 22 115 140 c 1xe0
 115 264 136 332 225 350 c 1
 179 361 157 387 157 427 c 0xd0
 157 459 163 495 189 560 c 0
 215 627 220 641 220 661 c 0
 220 688 200 694 156 694 c 2
 137 694 l 1
 152 780 l 1
 193 780 l 2
 275 780 311 739 311 679 c 0xe8
 311 645 305 627 275 550 c 0
 254 497 248 463 248 441 c 0xd0
EndSplineSet
EndChar

StartChar: asciitilde
Encoding: 126 126 290
Width: 642
Flags: MW
HStem: 223 95<412 440 412 454> 299 95<194.5 223>
VStem: 67 503<223 394>
LayerCount: 2
Fore
SplineSet
484 394 m 1x60
 570 394 l 1x60
 549 278 495 223 413 223 c 0xa0
 371 223 344 238 297 264 c 1
 255 289 234 299 212 299 c 0
 177 299 162 272 153 223 c 1
 67 223 l 1
 87 339 141 394 223 394 c 0x60
 267 394 295 378 339 353 c 0
 379 330 400 318 424 318 c 0xa0
 456 318 474 339 484 394 c 1x60
EndSplineSet
EndChar

StartChar: exclamdown
Encoding: 161 161 251
Width: 275
Flags: MW
HStem: 382 165<140.5 181.5>
VStem: 75 172<453.5 474.5>
LayerCount: 2
Fore
SplineSet
150 382 m 0
 104 382 75 409 75 451 c 0
 75 498 109 547 172 547 c 0
 219 547 247 520 247 477 c 0
 247 430 213 382 150 382 c 0
77 331 m 1
 200 331 l 1
 111 -157 l 1
 -36 -157 l 1
 77 331 l 1
EndSplineSet
EndChar

StartChar: cent
Encoding: 162 162 283
Width: 642
Flags: MW
HStem: -11 21G<227 227> 333 287<339 592 339 439>
VStem: 39 166<183.5 259.5 183.5 296.5> 439 153<333 387>
LayerCount: 2
Fore
SplineSet
395 426 m 1
 337 103 l 1
 371 116 397 146 412 189 c 1
 568 189 l 1
 524 67 442 -1 317 -12 c 1
 303 -90 l 1
 213 -90 l 1
 227 -11 l 1
 116 5 39 75 39 210 c 0
 39 383 149 524 325 542 c 1
 339 620 l 1
 429 620 l 1
 415 540 l 1
 537 523 592 441 592 333 c 1
 439 333 l 1
 438 381 423 412 395 426 c 1
205 209 m 0
 205 158 222 123 248 106 c 1
 305 427 l 1
 242 398 205 310 205 209 c 0
EndSplineSet
EndChar

StartChar: sterling
Encoding: 163 163 287
Width: 618
Flags: MW
HStem: 0 123<192 518> 296 80<66 114 66 137 52 114 297 469 297 297> 588 116<325.5 379.5>
VStem: 100 163<460 509.5 460 535.5> 141 157<248 264.5> 431 158<497 497>
LayerCount: 2
Fore
SplineSet
297 296 m 1xec
 298 278 l 1
 298 218 267 155 192 123 c 1
 540 123 l 1
 518 0 l 1
 -9 0 l 1
 10 109 l 1
 113 128 141 199 141 259 c 0
 141 270 140 282 137 296 c 1
 52 296 l 1
 66 376 l 1xec
 114 376 l 1
 106 405 100 436 100 473 c 0
 100 598 195 704 365 704 c 0
 534 704 582 601 589 497 c 1
 431 497 l 1
 429 552 404 588 355 588 c 0
 296 588 263 538 263 481 c 0
 263 439 271 413 282 376 c 1xf4
 482 376 l 1
 469 296 l 1
 297 296 l 1xec
EndSplineSet
EndChar

StartChar: currency
Encoding: 164 164 284
Width: 642
Flags: MW
HStem: 121 85<286 320> 396 85
VStem: 142 92<273 306> 409 92<296 329 296 336>
LayerCount: 2
Fore
SplineSet
548 450 m 1
 484 394 l 1
 495 370 501 343 501 315 c 0
 501 277 486 233 457 196 c 1
 500 143 l 1
 443 95 l 1
 399 146 l 1
 372 131 339 121 301 121 c 0
 261 121 227 133 201 154 c 1
 139 103 l 1
 96 154 l 1
 159 208 l 1
 148 232 142 259 142 287 c 0
 142 325 156 369 184 405 c 1
 142 457 l 1
 202 508 l 1
 244 458 l 1
 272 473 304 482 342 481 c 0
 382 480 415 468 441 447 c 1
 506 501 l 1
 548 450 l 1
310 206 m 0
 377 206 409 262 409 310 c 0
 409 362 380 396 332 396 c 0
 265 396 234 340 234 293 c 0
 234 240 262 206 310 206 c 0
EndSplineSet
EndChar

StartChar: yen
Encoding: 165 165 288
Width: 642
Flags: MW
HStem: 0 230<182 222 70 339 182 182> 144 86<70 207 54 222 379 517> 288 86<95 205 95 233 80 205 450 542> 670 20G<86 252 252 252 519 680 680 680>
VStem: 54 626<144 690>
LayerCount: 2
Fore
SplineSet
450 374 m 1x78
 558 374 l 1
 542 288 l 1
 390 288 l 1
 379 230 l 1
 532 230 l 1
 517 144 l 1
 364 144 l 1x78
 339 0 l 1
 182 0 l 1xb8
 207 144 l 1
 54 144 l 1
 70 230 l 1
 222 230 l 1
 233 288 l 1
 80 288 l 1
 95 374 l 1
 205 374 l 1
 86 690 l 1
 252 690 l 1
 332 382 l 1
 519 690 l 1
 680 690 l 1
 450 374 l 1x78
EndSplineSet
EndChar

StartChar: brokenbar
Encoding: 166 166 317
Width: 300
Flags: MW
HStem: 670 20G<172 261 261 261>
VStem: 22 239
LayerCount: 2
Fore
SplineSet
201 350 m 1
 112 350 l 1
 172 690 l 1
 261 690 l 1
 201 350 l 1
111 -160 m 1
 22 -160 l 1
 82 180 l 1
 171 180 l 1
 111 -160 l 1
EndSplineSet
EndChar

StartChar: section
Encoding: 167 167 324
Width: 637
Flags: MW
HStem: -174 100<232 275.5 232 320> 529 175<423 435.5 292.5 579 423 423> 604 100<341.5 380.5>
VStem: 19 155<5 5> 36 163<273.5 305.5 273.5 309.5> 137 163<508.5 548 505.5 564> 333 163<-30.5 17> 423 156<529 529> 434 163<217 255.5>
LayerCount: 2
Fore
SplineSet
597 245 m 0xa480
 597 183 556 119 475 84 c 1
 489 61 496 36 496 9 c 0
 496 -103 395 -174 245 -174 c 0
 121 -174 31 -116 19 5 c 1
 174 5 l 1xb2
 178 -46 211 -74 253 -74 c 0
 298 -74 333 -55 333 -6 c 0
 333 40 303 67 198 104 c 0
 97 139 36 188 36 276 c 0xaa
 36 343 72 411 153 448 c 1
 142 469 137 494 137 523 c 0
 137 605 217 704 368 704 c 0xa5
 503 704 567 633 579 529 c 1
 423 529 l 1xc5
 420 578 398 604 363 604 c 0
 320 604 300 567 300 529 c 0
 300 482 330 461 412 437 c 0
 537 399 597 342 597 245 c 0xa480
293 206 m 0xa880
 329 193 361 179 388 164 c 1
 415 175 434 199 434 235 c 0
 434 276 404 299 329 326 c 0
 296 338 267 350 242 363 c 1
 210 349 199 318 199 293 c 0
 199 254 232 228 293 206 c 0xa880
EndSplineSet
EndChar

StartChar: dieresis
Encoding: 168 168 331
Width: 300
Flags: MW
HStem: 573 132<40 61 227 247>
VStem: -18 136<625.5 652> 169 136<625.5 652>
LayerCount: 2
Fore
SplineSet
58 705 m 0
 95 705 118 685 118 650 c 0
 118 601 79 573 43 573 c 0
 4 573 -18 593 -18 628 c 0
 -18 676 22 705 58 705 c 0
245 705 m 0
 282 705 305 685 305 650 c 0
 305 601 265 573 229 573 c 0
 191 573 169 593 169 628 c 0
 169 676 209 705 245 705 c 0
EndSplineSet
EndChar

StartChar: guillemotleft
Encoding: 171 171 272
Width: 644
Flags: MW
HStem: 82 332<277 330 219 403 277 439 497 550>
VStem: 111 512<248 414>
LayerCount: 2
Fore
SplineSet
228 239 m 1
 330 82 l 1
 219 82 l 1
 111 248 l 1
 277 414 l 1
 403 414 l 1
 228 239 l 1
448 239 m 1
 550 82 l 1
 439 82 l 1
 331 248 l 1
 497 414 l 1
 623 414 l 1
 448 239 l 1
EndSplineSet
EndChar

StartChar: logicalnot
Encoding: 172 172 300
Width: 642
Flags: MW
HStem: 309 86<132 428 116 533>
VStem: 116 417<309 395>
LayerCount: 2
Fore
SplineSet
495 182 m 1
 406 182 l 1
 428 309 l 1
 116 309 l 1
 132 395 l 1
 533 395 l 1
 495 182 l 1
EndSplineSet
EndChar

StartChar: registered
Encoding: 174 174 323
Width: 492
Flags: MW
HStem: 344 54<185 285.5 185 292.5> 523 45<226 234 218 240> 621 44<236 248 236 236> 711 53<207 307.5>
VStem: 30 58<492.5 581.5 492.5 593> 258 59<500 519.5> 283 61<594 604.5> 404 58<526.5 615.5>
LayerCount: 2
Fore
SplineSet
272 764 m 0xfb
 392 764 462 679 462 578 c 0
 462 451 365 344 220 344 c 0
 100 344 30 429 30 530 c 0
 30 656 127 764 272 764 c 0xfb
230 398 m 0
 341 398 404 477 404 576 c 0
 404 655 352 711 263 711 c 0
 151 711 88 631 88 532 c 0
 88 453 140 398 230 398 c 0
281 664 m 0
 321 660 344 640 344 608 c 0xfb
 344 580 325 560 291 552 c 1
 310 546 317 531 317 508 c 1
 316 490 318 473 327 454 c 1
 262 454 l 1
 259 468 257 483 258 500 c 0
 258 515 251 523 234 523 c 2
 218 523 l 1
 206 454 l 1xfd
 149 454 l 1
 186 665 l 1
 254 665 l 2
 264 665 272 665 281 664 c 0
226 568 m 1
 240 568 l 2
 248 568 252 568 259 569 c 0
 274 572 283 583 283 598 c 0
 283 611 276 618 266 620 c 0
 260 621 256 621 248 621 c 2
 236 621 l 1
 226 568 l 1
EndSplineSet
EndChar

StartChar: macron
Encoding: 175 175 335
Width: 300
Flags: MW
HStem: 588 85<15 285 0 300>
VStem: 0 300<588 673>
LayerCount: 2
Fore
SplineSet
285 588 m 1
 0 588 l 1
 15 673 l 1
 300 673 l 1
 285 588 l 1
EndSplineSet
EndChar

StartChar: degree
Encoding: 176 176 321
Width: 319
Flags: MW
HStem: 487 80<203 231.5 203 250.5> 669 80<212 240.5>
VStem: 85 87<597.5 629 597.5 647.5> 272 87<607.5 639>
LayerCount: 2
Fore
SplineSet
236 749 m 0
 312 749 359 700 359 632 c 0
 359 546 292 487 209 487 c 0
 131 487 85 537 85 604 c 0
 85 691 151 749 236 749 c 0
228 669 m 0
 196 669 172 646 172 612 c 0
 172 583 191 567 215 567 c 0
 248 567 272 591 272 624 c 0
 272 654 253 669 228 669 c 0
EndSplineSet
EndChar

StartChar: plusminus
Encoding: 177 177 308
Width: 642
Flags: MW
HStem: 0 80<82 473 68 487> 275 86<132 274 116 289 378 521 132 363>
VStem: 68 469<0 361>
LayerCount: 2
Fore
SplineSet
537 361 m 1
 521 275 l 1
 363 275 l 1
 336 122 l 1
 247 122 l 1
 274 275 l 1
 116 275 l 1
 132 361 l 1
 289 361 l 1
 316 512 l 1
 405 512 l 1
 378 361 l 1
 537 361 l 1
82 80 m 1
 487 80 l 1
 473 0 l 1
 68 0 l 1
 82 80 l 1
EndSplineSet
EndChar

StartChar: acute
Encoding: 180 180 326
Width: 300
Flags: MW
HStem: 572 121<90 335 90 335>
VStem: 90 245<572 693>
LayerCount: 2
Fore
SplineSet
176 572 m 1
 90 572 l 1
 195 693 l 1
 335 693 l 1
 176 572 l 1
EndSplineSet
EndChar

StartChar: paragraph
Encoding: 182 182 322
Width: 605
Flags: MW
HStem: 604 86<408 516 408 408>
VStem: 78 543<442.5 690>
LayerCount: 2
Fore
SplineSet
621 690 m 1
 479 -110 l 1
 389 -110 l 1
 516 604 l 1
 408 604 l 1
 281 -110 l 1
 192 -110 l 1
 268 320 l 1
 262 320 l 2
 244 320 223 320 206 321 c 0
 121 326 78 404 78 481 c 0
 78 566 135 681 271 689 c 0
 289 690 310 690 328 690 c 2
 621 690 l 1
EndSplineSet
EndChar

StartChar: periodcentered
Encoding: 183 183 254
Width: 261
Flags: MW
HStem: 213 184<123 154>
VStem: 45 188<292 318.5>
LayerCount: 2
Fore
SplineSet
155 397 m 0
 199 397 233 372 233 326 c 0
 233 258 186 213 122 213 c 0
 80 213 45 238 45 285 c 0
 45 352 91 397 155 397 c 0
EndSplineSet
EndChar

StartChar: cedilla
Encoding: 184 184 329
Width: 300
Flags: MW
HStem: -210 62<87.5 115 84.5 145.5> -86 95<69 211>
VStem: 160 96<-124.5 -101.5>
LayerCount: 2
Fore
SplineSet
211 9 m 1
 176 -42 l 1
 229 -50 256 -74 256 -112 c 0
 256 -180 186 -210 105 -210 c 0
 70 -210 44 -208 27 -203 c 1
 39 -141 l 1
 58 -147 75 -148 94 -148 c 0
 136 -148 160 -135 160 -114 c 0
 160 -89 122 -81 69 -86 c 1
 132 9 l 1
 211 9 l 1
EndSplineSet
EndChar

StartChar: guillemotright
Encoding: 187 187 273
Width: 653
Flags: MW
HStem: 82 332<87 141 14 199 87 234 307 361>
VStem: 14 513<82 248>
LayerCount: 2
Fore
SplineSet
307 248 m 1
 141 82 l 1
 14 82 l 1
 189 257 l 1
 87 414 l 1
 199 414 l 1
 307 248 l 1
527 248 m 1
 361 82 l 1
 234 82 l 1
 409 257 l 1
 307 414 l 1
 419 414 l 1
 527 248 l 1
EndSplineSet
EndChar

StartChar: questiondown
Encoding: 191 191 256
Width: 521
Flags: MW
HStem: -171 116<164 212.5 164 233> 382 165<254.5 295.5>
VStem: -51 167<-11 32.5> 189 172<331 498.5 453.5 474.5>
LayerCount: 2
Fore
SplineSet
264 382 m 0
 218 382 189 409 189 451 c 0
 189 498 223 547 286 547 c 0
 333 547 361 520 361 477 c 0
 361 430 327 382 264 382 c 0
156 -171 m 0
 24 -171 -51 -111 -51 -13 c 0
 -51 78 -14 128 92 208 c 0
 150 253 173 279 189 331 c 1
 320 331 l 1
 305 256 280 221 222 168 c 0
 139 92 116 58 116 10 c 0
 116 -32 141 -55 187 -55 c 0
 238 -55 277 -21 292 54 c 1
 450 54 l 1
 423 -87 310 -171 156 -171 c 0
EndSplineSet
EndChar

StartChar: Acircumflex
Encoding: 194 194 4
Width: 692
GlyphClass: 2
Flags: MW
HStem: 0 21G<-37 131 -37 -37 484 484 484 654> 195 123<289 437 289 456 228 437> 548 142<404 404> 670 20G<329 534 534 534> 735 118<399 409 315 526 474 474 474 526 399 568>
VStem: -37 691<0 0>
LayerCount: 2
Fore
SplineSet
409 735 m 1xdc
 315 735 l 1
 399 853 l 1
 526 853 l 1
 568 735 l 1
 474 735 l 1
 454 803 l 1
 409 735 l 1xdc
456 195 m 1
 228 195 l 1
 131 0 l 1
 -37 0 l 1
 329 690 l 1
 534 690 l 1
 654 0 l 1
 484 0 l 1
 456 195 l 1
437 318 m 1
 404 548 l 1xec
 289 318 l 1
 437 318 l 1
EndSplineSet
Position2: "'cpsp' Capital Spacing in Latin lookup 0 subtable" dx=5 dy=0 dh=10 dv=0
EndChar

StartChar: Atilde
Encoding: 195 195 10
Width: 692
GlyphClass: 2
Flags: MW
HStem: 0 21G<-37 131 -37 -37 484 484 484 654> 195 123<289 437 289 456 228 437> 548 142<404 404> 670 20G<329 534 534 534> 741 118<532 546> 744 118<360 375 293 398.5>
VStem: -37 691<0 0>
LayerCount: 2
Fore
SplineSet
397 772 m 0xd6
 386 772 378 764 375 744 c 1
 293 744 l 1
 308 828 333 862 387 862 c 0xd6
 410 862 428 859 465 843 c 0
 488 834 500 831 511 831 c 0
 522 831 528 839 532 859 c 1
 613 859 l 1
 598 775 573 741 519 741 c 0xda
 498 741 480 743 441 760 c 0
 420 769 408 772 397 772 c 0xd6
456 195 m 1
 228 195 l 1
 131 0 l 1
 -37 0 l 1
 329 690 l 1
 534 690 l 1
 654 0 l 1
 484 0 l 1
 456 195 l 1
437 318 m 1
 404 548 l 1xe6
 289 318 l 1
 437 318 l 1
EndSplineSet
Position2: "'cpsp' Capital Spacing in Latin lookup 0 subtable" dx=5 dy=0 dh=10 dv=0
EndChar

StartChar: Adieresis
Encoding: 196 196 5
Width: 692
GlyphClass: 2
Flags: MW
HStem: 0 21G<-37 131 -37 -37 484 484 484 654> 195 123<289 437 289 456 228 437> 548 142<404 404> 670 20G<329 534 534 534> 726 132<348 369 533 554>
VStem: 290 136<779 805.5> 475 136<779 805.5>
LayerCount: 2
Fore
SplineSet
351 726 m 0xde
 312 726 290 747 290 781 c 0
 290 830 330 858 366 858 c 0
 403 858 426 838 426 803 c 0
 426 755 387 726 351 726 c 0xde
536 726 m 0
 497 726 475 747 475 781 c 0
 475 830 515 858 551 858 c 0
 588 858 611 838 611 803 c 0
 611 755 572 726 536 726 c 0
456 195 m 1
 228 195 l 1
 131 0 l 1
 -37 0 l 1
 329 690 l 1
 534 690 l 1
 654 0 l 1
 484 0 l 1
 456 195 l 1
437 318 m 1
 404 548 l 1xee
 289 318 l 1
 437 318 l 1
EndSplineSet
Position2: "'cpsp' Capital Spacing in Latin lookup 0 subtable" dx=5 dy=0 dh=10 dv=0
EndChar

StartChar: Aring
Encoding: 197 197 9
Width: 692
GlyphClass: 2
Flags: MW
HStem: 0 21G<-37 131 -37 -37 484 484 484 654> 195 123<289 437 289 456 228 437> 548 142<404 404> 670 20G<329 534 534 534> 721 58<439.5 461 439.5 478.5> 859 59<451 472.5>
VStem: 342 76<801 825 801 839.5> 494 76<813.5 837>
LayerCount: 2
Fore
SplineSet
441 721 m 0xdf
 381 721 342 758 342 806 c 0
 342 873 396 918 471 918 c 0
 530 918 570 880 570 832 c 0
 570 765 516 721 441 721 c 0xdf
463 859 m 0
 439 859 418 840 418 810 c 0
 418 792 430 779 449 779 c 0
 473 779 494 799 494 828 c 0
 494 846 482 859 463 859 c 0
456 195 m 1
 228 195 l 1
 131 0 l 1
 -37 0 l 1
 329 690 l 1
 534 690 l 1
 654 0 l 1
 484 0 l 1
 456 195 l 1
437 318 m 1
 404 548 l 1xef
 289 318 l 1
 437 318 l 1
EndSplineSet
Position2: "'cpsp' Capital Spacing in Latin lookup 0 subtable" dx=5 dy=0 dh=10 dv=0
EndChar

StartChar: AE
Encoding: 198 198 11
Width: 980
GlyphClass: 2
Flags: MW
HStem: 0 123<586 901> 218 122<315 437 232 446> 285 122<607 919 598 941> 568 122<619 619 619 991>
VStem: 428.5 163.5 454.5 158.5
LayerCount: 2
Fore
SplineSet
619 568 m 1xb4
 607 407 l 1xb4
 941 407 l 1
 919 285 l 1
 598 285 l 1xb8
 586 123 l 1
 923 123 l 1
 901 0 l 1
 420 0 l 1
 437 218 l 1
 232 218 l 1xd8
 84 0 l 1
 -87 0 l 1
 407 690 l 1
 1013 690 l 1
 991 568 l 1
 619 568 l 1xb4
446 340 m 1xd4
 463 558 l 1
 315 340 l 1
 446 340 l 1xd4
EndSplineSet
Position2: "'cpsp' Capital Spacing in Latin lookup 0 subtable" dx=5 dy=0 dh=10 dv=0
EndChar

StartChar: Ccedilla
Encoding: 199 199 16
Width: 755
GlyphClass: 2
Flags: MW
HStem: -210 62<-12.5 15 -15.5 45.5> -86 95<-32 111> -14 116<324.5 403.5 324.5 432> 588 116<384.5 487>
VStem: 60 96<-124.5 -101.5> 62 166 575 157<455 465 465 465>
AnchorPoint: "Anchor-0" 65 0 basechar 0
LayerCount: 2
Fore
SplineSet
461 704 m 0xb6
 652 704 742 601 732 465 c 1
 731 455 l 1
 575 455 l 1
 575 465 l 1
 573 550 529 588 445 588 c 0
 324 588 228 473 228 283 c 0
 228 154 286 102 363 102 c 0
 444 102 500 151 531 233 c 1
 535 243 l 1
 691 243 l 1
 688 233 l 1
 644 75 520 -14 344 -14 c 0
 172 -14 61 88 62 271 c 1
 61 534 243 704 461 704 c 0xb6
111 9 m 1xda
 76 -42 l 1
 129 -50 156 -74 156 -112 c 0
 156 -180 86 -210 5 -210 c 0
 -30 -210 -56 -208 -73 -203 c 1
 -62 -141 l 1
 -42 -147 -25 -148 -6 -148 c 0
 36 -148 60 -135 60 -114 c 0
 60 -89 22 -81 -32 -86 c 1
 32 9 l 1
 111 9 l 1xda
EndSplineSet
Position2: "'cpsp' Capital Spacing in Latin lookup 0 subtable" dx=5 dy=0 dh=10 dv=0
EndChar

StartChar: Eacute
Encoding: 201 201 23
Width: 619
GlyphClass: 2
Flags: MW
HStem: 0 123<207 540> 285 122<257 558 235 580> 568 122<285 285 285 630> 735 118<364 606 364 606>
VStem: 29 623
AnchorPoint: "Anchor-0" 266 0 basechar 0
LayerCount: 2
Fore
SplineSet
450 735 m 1
 364 735 l 1
 466 853 l 1
 606 853 l 1
 450 735 l 1
285 568 m 1
 257 407 l 1
 580 407 l 1
 558 285 l 1
 235 285 l 1
 207 123 l 1
 562 123 l 1
 540 0 l 1
 29 0 l 1
 151 690 l 1
 652 690 l 1
 630 568 l 1
 285 568 l 1
EndSplineSet
Position2: "'cpsp' Capital Spacing in Latin lookup 0 subtable" dx=5 dy=0 dh=10 dv=0
EndChar

StartChar: Ecircumflex
Encoding: 202 202 25
Width: 619
GlyphClass: 2
Flags: MW
HStem: 0 123<207 540> 285 122<257 558 235 580> 568 122<285 285 285 630> 735 118<371 381 287 498 446 446 446 498 371 540>
VStem: 29 623
AnchorPoint: "Anchor-0" 266 0 basechar 0
LayerCount: 2
Fore
SplineSet
381 735 m 1
 287 735 l 1
 371 853 l 1
 498 853 l 1
 540 735 l 1
 446 735 l 1
 426 803 l 1
 381 735 l 1
285 568 m 1
 257 407 l 1
 580 407 l 1
 558 285 l 1
 235 285 l 1
 207 123 l 1
 562 123 l 1
 540 0 l 1
 29 0 l 1
 151 690 l 1
 652 690 l 1
 630 568 l 1
 285 568 l 1
EndSplineSet
Position2: "'cpsp' Capital Spacing in Latin lookup 0 subtable" dx=5 dy=0 dh=10 dv=0
EndChar

StartChar: Edieresis
Encoding: 203 203 26
Width: 619
GlyphClass: 2
Flags: MW
HStem: 0 123<207 540> 285 122<257 558 235 580> 568 122<285 285 285 630> 726 132<319 340 504 525>
VStem: 261 136<779 805.5> 446 136<779 805.5>
AnchorPoint: "Anchor-0" 266 0 basechar 0
LayerCount: 2
Fore
SplineSet
322 726 m 0
 283 726 261 747 261 781 c 0
 261 830 301 858 337 858 c 0
 374 858 397 838 397 803 c 0
 397 755 358 726 322 726 c 0
507 726 m 0
 468 726 446 747 446 781 c 0
 446 830 486 858 522 858 c 0
 559 858 582 838 582 803 c 0
 582 755 543 726 507 726 c 0
285 568 m 1
 257 407 l 1
 580 407 l 1
 558 285 l 1
 235 285 l 1
 207 123 l 1
 562 123 l 1
 540 0 l 1
 29 0 l 1
 151 690 l 1
 652 690 l 1
 630 568 l 1
 285 568 l 1
EndSplineSet
Position2: "'cpsp' Capital Spacing in Latin lookup 0 subtable" dx=5 dy=0 dh=10 dv=0
EndChar

StartChar: Igrave
Encoding: 204 204 44
Width: 295
GlyphClass: 2
Flags: MW
HStem: 0 21G<29 185 29 29> 670 20G<151 307 307 307> 735 118<205 229 89 291 205 205>
VStem: 29 278
LayerCount: 2
Fore
SplineSet
291 735 m 1
 205 735 l 1
 89 853 l 1
 229 853 l 1
 291 735 l 1
185 0 m 1
 29 0 l 1
 151 690 l 1
 307 690 l 1
 185 0 l 1
EndSplineSet
Position2: "'cpsp' Capital Spacing in Latin lookup 0 subtable" dx=5 dy=0 dh=10 dv=0
EndChar

StartChar: Iacute
Encoding: 205 205 40
Width: 295
GlyphClass: 2
Flags: MW
HStem: 0 21G<29 185 29 29> 670 20G<151 307 307 307> 735 118<188 430 188 430>
VStem: 29 401
LayerCount: 2
Fore
SplineSet
274 735 m 1
 188 735 l 1
 290 853 l 1
 430 853 l 1
 274 735 l 1
185 0 m 1
 29 0 l 1
 151 690 l 1
 307 690 l 1
 185 0 l 1
EndSplineSet
Position2: "'cpsp' Capital Spacing in Latin lookup 0 subtable" dx=5 dy=0 dh=10 dv=0
EndChar

StartChar: Icircumflex
Encoding: 206 206 41
Width: 295
GlyphClass: 2
Flags: MW
HStem: 0 21G<29 185 29 29> 670 20G<151 307 307 307> 735 118<195 205 111 322 270 270 270 322 195 364>
VStem: 29 335
LayerCount: 2
Fore
SplineSet
205 735 m 1
 111 735 l 1
 195 853 l 1
 322 853 l 1
 364 735 l 1
 270 735 l 1
 250 803 l 1
 205 735 l 1
151 690 m 1
 307 690 l 1
 185 0 l 1
 29 0 l 1
 151 690 l 1
EndSplineSet
Position2: "'cpsp' Capital Spacing in Latin lookup 0 subtable" dx=5 dy=0 dh=10 dv=0
EndChar

StartChar: Idieresis
Encoding: 207 207 42
Width: 295
GlyphClass: 2
Flags: MW
HStem: 0 21G<29 185 29 29> 670 20G<151 307 307 307> 726 132<144 165 329 350>
VStem: 86 136<779 805.5> 271 136<779 805.5>
LayerCount: 2
Fore
SplineSet
162 858 m 0
 199 858 222 838 222 803 c 0
 222 755 183 726 147 726 c 0
 108 726 86 747 86 781 c 0
 86 830 126 858 162 858 c 0
347 858 m 0
 384 858 407 838 407 803 c 0
 407 755 368 726 332 726 c 0
 293 726 271 747 271 781 c 0
 271 830 311 858 347 858 c 0
185 0 m 1
 29 0 l 1
 151 690 l 1
 307 690 l 1
 185 0 l 1
EndSplineSet
Position2: "'cpsp' Capital Spacing in Latin lookup 0 subtable" dx=5 dy=0 dh=10 dv=0
EndChar

StartChar: Eth
Encoding: 208 208 19
Width: 734
GlyphClass: 2
Flags: MW
HStem: 0 123<207 270> 296 86<28 81 13 97 253 344> 568 122<286 356 286 286>
VStem: 554 166<325.5 448.5>
LayerCount: 2
Fore
SplineSet
477 686 m 0
 614 671 720 581 720 396 c 0
 720 200 602 26 359 3 c 0
 323 0 306 0 270 0 c 2
 29 0 l 1
 81 296 l 1
 13 296 l 1
 28 382 l 1
 97 382 l 1
 151 690 l 1
 383 690 l 2
 420 690 443 690 477 686 c 0
348 125 m 0
 490 141 554 259 554 392 c 0
 554 505 502 557 423 565 c 0
 401 567 383 568 356 568 c 2
 286 568 l 1
 253 382 l 1
 359 382 l 1
 344 296 l 1
 238 296 l 1
 207 123 l 1
 279 123 l 2
 307 123 325 123 348 125 c 0
EndSplineSet
Position2: "'cpsp' Capital Spacing in Latin lookup 0 subtable" dx=5 dy=0 dh=10 dv=0
EndChar

StartChar: Ntilde
Encoding: 209 209 62
Width: 769
GlyphClass: 2
Flags: MW
HStem: 0 21G<29 185 29 29 450 659 450 450> 670 20G<151 352 352 352 624 781 781 781> 741 118<568 582> 744 118<396 411 329 434.5>
VStem: 29 752<0 690>
AnchorPoint: "Anchor-0" 348 0 basechar 0
LayerCount: 2
Fore
SplineSet
433 772 m 0xd8
 422 772 414 764 411 744 c 1
 329 744 l 1
 344 828 369 862 423 862 c 0xd8
 446 862 464 859 501 843 c 0
 524 834 536 831 547 831 c 0
 558 831 564 839 568 859 c 1
 649 859 l 1
 634 775 609 741 555 741 c 0xe8
 534 741 516 743 477 760 c 0
 456 769 444 772 433 772 c 0xd8
781 690 m 1xe8
 659 0 l 1
 450 0 l 1
 272 494 l 1
 185 0 l 1
 29 0 l 1
 151 690 l 1
 352 690 l 1
 535 181 l 1
 624 690 l 1
 781 690 l 1xe8
EndSplineSet
Position2: "'cpsp' Capital Spacing in Latin lookup 0 subtable" dx=5 dy=0 dh=10 dv=0
EndChar

StartChar: Oacute
Encoding: 211 211 64
Width: 793
GlyphClass: 2
Flags: MW
HStem: -14 116<338 465.5 338 498.5> 588 116<377 505> 735 118<444 686 444 686>
VStem: 64 166<234 357 234 408.5> 613 166<333 456.5>
LayerCount: 2
Fore
SplineSet
530 735 m 1
 444 735 l 1
 546 853 l 1
 686 853 l 1
 530 735 l 1
462 704 m 0
 666 704 779 574 779 405 c 0
 779 159 616 -14 381 -14 c 0
 177 -14 64 116 64 285 c 0
 64 532 227 704 462 704 c 0
390 102 m 0
 541 102 613 265 613 401 c 0
 613 512 557 588 453 588 c 0
 301 588 230 425 230 289 c 0
 230 179 286 102 390 102 c 0
EndSplineSet
Position2: "'cpsp' Capital Spacing in Latin lookup 0 subtable" dx=5 dy=0 dh=10 dv=0
EndChar

StartChar: Ocircumflex
Encoding: 212 212 65
Width: 793
GlyphClass: 2
Flags: MW
HStem: -14 116<338 465.5 338 498.5> 588 116<377 505> 735 118<450 460 366 577 525 525 525 577 450 619>
VStem: 64 166<234 357 234 408.5> 613 166<333 456.5>
LayerCount: 2
Fore
SplineSet
460 735 m 1
 366 735 l 1
 450 853 l 1
 577 853 l 1
 619 735 l 1
 525 735 l 1
 505 803 l 1
 460 735 l 1
462 704 m 0
 666 704 779 574 779 405 c 0
 779 159 616 -14 381 -14 c 0
 177 -14 64 116 64 285 c 0
 64 532 227 704 462 704 c 0
390 102 m 0
 541 102 613 265 613 401 c 0
 613 512 557 588 453 588 c 0
 301 588 230 425 230 289 c 0
 230 179 286 102 390 102 c 0
EndSplineSet
Position2: "'cpsp' Capital Spacing in Latin lookup 0 subtable" dx=5 dy=0 dh=10 dv=0
EndChar

StartChar: Otilde
Encoding: 213 213 71
Width: 793
GlyphClass: 2
Flags: MW
HStem: -14 116<338 465.5 338 498.5> 588 116<377 505> 741 118<583 597> 744 118<411 426 344 449.5>
VStem: 64 166<234 357 234 408.5> 613 166<333 456.5>
LayerCount: 2
Fore
SplineSet
448 772 m 0xdc
 437 772 429 764 426 744 c 1
 344 744 l 1
 359 828 384 862 438 862 c 0xdc
 461 862 479 859 516 843 c 0
 539 834 551 831 562 831 c 0
 573 831 579 839 583 859 c 1
 664 859 l 1
 649 775 624 741 570 741 c 0xec
 549 741 531 743 492 760 c 0
 471 769 459 772 448 772 c 0xdc
462 704 m 0xec
 666 704 779 574 779 405 c 0
 779 159 616 -14 381 -14 c 0
 177 -14 64 116 64 285 c 0
 64 532 227 704 462 704 c 0xec
390 102 m 0
 541 102 613 265 613 401 c 0
 613 512 557 588 453 588 c 0
 301 588 230 425 230 289 c 0
 230 179 286 102 390 102 c 0
EndSplineSet
Position2: "'cpsp' Capital Spacing in Latin lookup 0 subtable" dx=5 dy=0 dh=10 dv=0
EndChar

StartChar: Odieresis
Encoding: 214 214 66
Width: 793
GlyphClass: 2
Flags: MW
HStem: -14 116<338 465.5 338 498.5> 588 116<377 505> 726 132<399 420 584 605>
VStem: 64 166<234 357 234 408.5> 341 136<779 805.5> 526 136<779 805.5> 613 166<333 456.5>
LayerCount: 2
Fore
SplineSet
402 726 m 0xfc
 363 726 341 747 341 781 c 0
 341 830 381 858 417 858 c 0
 454 858 477 838 477 803 c 0
 477 755 438 726 402 726 c 0xfc
587 726 m 0
 548 726 526 747 526 781 c 0
 526 830 566 858 602 858 c 0
 639 858 662 838 662 803 c 0
 662 755 623 726 587 726 c 0
462 704 m 0xd2
 666 704 779 574 779 405 c 0
 779 159 616 -14 381 -14 c 0
 177 -14 64 116 64 285 c 0
 64 532 227 704 462 704 c 0xd2
390 102 m 0
 541 102 613 265 613 401 c 0
 613 512 557 588 453 588 c 0
 301 588 230 425 230 289 c 0
 230 179 286 102 390 102 c 0
EndSplineSet
Position2: "'cpsp' Capital Spacing in Latin lookup 0 subtable" dx=5 dy=0 dh=10 dv=0
EndChar

StartChar: multiply
Encoding: 215 215 302
Width: 642
Flags: MW
HStem: 515 20G<499 499>
VStem: 90 470<188 462>
LayerCount: 2
Fore
SplineSet
393 320 m 1
 506 183 l 1
 431 120 l 1
 318 257 l 1
 151 115 l 1
 90 188 l 1
 258 331 l 1
 145 468 l 1
 219 531 l 1
 332 394 l 1
 499 535 l 1
 560 462 l 1
 393 320 l 1
EndSplineSet
EndChar

StartChar: Oslash
Encoding: 216 216 70
Width: 789
GlyphClass: 2
Flags: MW
HStem: -14 116<361.5 466 361.5 499> -7 21G<63 63> 514 20G<574 574> 588 116<378 480.5> 677 20G<766 766>
VStem: 64 166<281.5 357 281.5 408.5> 614 166<333 411>
LayerCount: 2
Fore
SplineSet
818 634 m 1xae
 738 566 l 1
 766 520 780 465 780 405 c 0
 780 159 617 -14 381 -14 c 0
 282 -14 204 17 151 68 c 1xb6
 63 -7 l 1
 11 56 l 1
 101 132 l 1
 77 177 64 229 64 285 c 0
 64 532 227 704 463 704 c 0
 558 704 633 676 686 629 c 1x76
 766 697 l 1
 818 634 l 1xae
230 289 m 0
 230 274 231 259 233 245 c 1
 574 534 l 1
 547 568 507 588 454 588 c 0
 302 588 230 425 230 289 c 0
614 401 m 0
 614 421 612 439 609 456 c 1
 264 164 l 1
 291 125 333 102 390 102 c 0
 542 102 614 265 614 401 c 0
EndSplineSet
Position2: "'cpsp' Capital Spacing in Latin lookup 0 subtable" dx=5 dy=0 dh=10 dv=0
EndChar

StartChar: Ugrave
Encoding: 217 217 94
Width: 710
GlyphClass: 2
Flags: MW
HStem: -14 116<310.5 386 310.5 434> 670 20G<150 306 306 306 582 738 738 738> 735 118<420 444 304 506 420 420>
VStem: 69 156<172 203.5>
LayerCount: 2
Fore
SplineSet
506 735 m 1
 420 735 l 1
 304 853 l 1
 444 853 l 1
 506 735 l 1
738 690 m 1
 671 306 l 2
 664 267 660 246 651 210 c 0
 619 76 534 -14 334 -14 c 0
 154 -14 69 69 69 186 c 0
 69 221 73 252 84 315 c 2
 150 690 l 1
 306 690 l 1
 232 270 l 2
 227 242 225 225 225 205 c 0
 225 139 275 102 346 102 c 0
 426 102 475 132 498 222 c 0
 502 236 504 249 508 268 c 2
 582 690 l 1
 738 690 l 1
EndSplineSet
Position2: "'cpsp' Capital Spacing in Latin lookup 0 subtable" dx=5 dy=0 dh=10 dv=0
EndChar

StartChar: Ucircumflex
Encoding: 219 219 92
Width: 710
GlyphClass: 2
Flags: MW
HStem: -14 116<310.5 386 310.5 434> 670 20G<150 306 306 306 582 738 738 738> 735 118<410 420 326 537 485 485 485 537 410 579>
VStem: 69 156<172 203.5>
LayerCount: 2
Fore
SplineSet
420 735 m 1
 326 735 l 1
 410 853 l 1
 537 853 l 1
 579 735 l 1
 485 735 l 1
 465 803 l 1
 420 735 l 1
738 690 m 1
 671 306 l 2
 664 267 660 246 651 210 c 0
 619 76 534 -14 334 -14 c 0
 154 -14 69 69 69 186 c 0
 69 221 73 252 84 315 c 2
 150 690 l 1
 306 690 l 1
 232 270 l 2
 227 242 225 225 225 205 c 0
 225 139 275 102 346 102 c 0
 426 102 475 132 498 222 c 0
 502 236 504 249 508 268 c 2
 582 690 l 1
 738 690 l 1
EndSplineSet
Position2: "'cpsp' Capital Spacing in Latin lookup 0 subtable" dx=5 dy=0 dh=10 dv=0
EndChar

StartChar: Udieresis
Encoding: 220 220 93
Width: 710
GlyphClass: 2
Flags: MW
HStem: -14 116<310.5 386 310.5 434> 670 20G<150 306 306 306 582 738 738 738> 726 132<359 380 544 565>
VStem: 69 156<172 203.5> 301 136<779 805.5> 486 136<779 805.5>
LayerCount: 2
Fore
SplineSet
377 858 m 0
 414 858 437 838 437 803 c 0
 437 755 398 726 362 726 c 0
 323 726 301 747 301 781 c 0
 301 830 341 858 377 858 c 0
562 858 m 0
 599 858 622 838 622 803 c 0
 622 755 583 726 547 726 c 0
 508 726 486 747 486 781 c 0
 486 830 526 858 562 858 c 0
738 690 m 1
 671 306 l 2
 664 267 660 246 651 210 c 0
 619 76 534 -14 334 -14 c 0
 154 -14 69 69 69 186 c 0
 69 221 73 252 84 315 c 2
 150 690 l 1
 306 690 l 1
 232 270 l 2
 227 242 225 225 225 205 c 0
 225 139 275 102 346 102 c 0
 426 102 475 132 498 222 c 0
 502 236 504 249 508 268 c 2
 582 690 l 1
 738 690 l 1
EndSplineSet
Position2: "'cpsp' Capital Spacing in Latin lookup 0 subtable" dx=5 dy=0 dh=10 dv=0
EndChar

StartChar: Thorn
Encoding: 222 222 74
Width: 638
GlyphClass: 2
Flags: MW
HStem: 0 21G<29 185 29 29> 183 123<239 318 217 326> 479 123<291 356 270 391> 670 20G<151 307 307 307>
VStem: 477 166<432 432.5>
LayerCount: 2
Fore
SplineSet
494 597 m 0
 579 587 643 537 643 439 c 0
 643 425 642 409 639 393 c 0
 616 265 524 200 422 188 c 0
 386 184 359 183 318 183 c 2
 217 183 l 1
 185 0 l 1
 29 0 l 1
 151 690 l 1
 307 690 l 1
 291 602 l 1
 391 602 l 2
 432 602 459 601 494 597 c 0
475 393 m 0
 476 400 477 406 477 412 c 0
 477 453 451 472 410 477 c 0
 397 479 378 479 356 479 c 2
 270 479 l 1
 239 306 l 1
 326 306 l 2
 348 306 366 307 381 308 c 0
 428 314 464 338 475 393 c 0
EndSplineSet
Position2: "'cpsp' Capital Spacing in Latin lookup 0 subtable" dx=5 dy=0 dh=10 dv=0
EndChar

StartChar: germandbls
Encoding: 223 223 199
Width: 631
GlyphClass: 2
Flags: MW
HStem: -4 116<350.5 389 350 456> 0 21G<13 170 13 13> 638 116<348 414.5>
VStem: 352 163<373 402.5 373 412> 443 166<161 192> 467 166<567.5 592.5>
LayerCount: 2
Fore
SplineSet
410 754 m 0x64
 557 754 633 682 633 587 c 0xa4
 633 548 621 510 586 466 c 1
 536 442 515 420 515 385 c 0xb0
 515 361 525 337 552 307 c 0
 595 261 609 221 609 174 c 0
 609 78 534 -4 378 -4 c 0
 323 -4 290 -1 252 8 c 1
 273 125 l 1
 315 114 339 112 361 112 c 0
 417 112 443 142 443 180 c 0xa8
 443 204 432 229 408 258 c 0
 371 303 352 334 352 384 c 0xb0
 352 440 383 479 448 514 c 1
 463 538 467 555 467 572 c 0
 467 613 442 638 387 638 c 0
 309 638 272 580 249 451 c 2
 170 0 l 1
 13 0 l 1
 91 443 l 2
 125 641 192 754 410 754 c 0x64
EndSplineSet
EndChar

StartChar: agrave
Encoding: 224 224 120
Width: 568
GlyphClass: 2
Flags: MW
HStem: -14 108<120 259.5> 0 94<219 479 219 326> 237.18 88.82 439 108<290 339> 572 121<316 316 316 340 200 402>
VStem: 12 163<130.5 182 130.5 192.5> 327 152 377 158<388.5 399>
LayerCount: 2
Fore
SplineSet
316 572 m 1x6e
 200 693 l 1
 340 693 l 1
 402 572 l 1
 316 572 l 1x6e
333 547 m 0xbd
 480 547 535 486 535 403 c 0
 535 374 530 344 521 294 c 2x6d
 493 135 l 2
 486 95 482 59 479 0 c 1
 326 0 l 1
 328 77 l 1x6e
 295 24 l 1xae
 259 -2 212 -14 161 -14 c 0
 79 -14 12 32 12 128 c 0
 12 257 146 338 371 326 c 1
 372 332 l 2
 375 350 377 367 377 384 c 0
 377 414 361 439 317 439 c 0
 263 439 231 409 218 356 c 1
 68 356 l 1
 91 478 201 547 333 547 c 0xbd
347 194 m 1x6e
 354 235 l 1
 251 246 175 215 175 149 c 0
 175 112 200 94 238 94 c 0
 281 94 335 129 347 192 c 1
 347 194 l 1x6e
EndSplineSet
EndChar

StartChar: acircumflex
Encoding: 226 226 118
Width: 568
GlyphClass: 2
Flags: MW
HStem: -14 108<120 259.5> 0 94<219 479 219 326> 237.18 88.82 439 108<290 339> 572 121<305 313 220 431 379 379 379 431 305 473> 644 49<359 359>
VStem: 12 163<130.5 182 130.5 192.5> 327 152 377 158<388.5 399>
LayerCount: 2
Fore
SplineSet
313 572 m 1x6b
 220 572 l 1
 305 693 l 1
 431 693 l 1
 473 572 l 1
 379 572 l 1x6b
 359 644 l 1x67
 313 572 l 1x6b
333 547 m 0xba80
 480 547 535 486 535 403 c 0
 535 374 530 344 521 294 c 2x6a80
 493 135 l 2
 486 95 482 59 479 0 c 1
 326 0 l 1
 328 77 l 1x6b
 295 24 l 1xab
 259 -2 212 -14 161 -14 c 0
 79 -14 12 32 12 128 c 0
 12 257 146 338 371 326 c 1
 372 332 l 2
 375 350 377 367 377 384 c 0
 377 414 361 439 317 439 c 0
 263 439 231 409 218 356 c 1
 68 356 l 1
 91 478 201 547 333 547 c 0xba80
347 194 m 1x6b
 354 235 l 1
 251 246 175 215 175 149 c 0
 175 112 200 94 238 94 c 0
 281 94 335 129 347 192 c 1
 347 194 l 1x6b
EndSplineSet
EndChar

StartChar: atilde
Encoding: 227 227 124
Width: 568
GlyphClass: 2
Flags: MW
HStem: -14 108<120 259.5> 0 94<219 479 219 326> 237.18 88.82 439 108<290 339> 576 90<409.5 417.5 406.5 447> 576 118<433 447> 579 118<261 276 194 299.5> 607 90<292.5 299.5 261 303.5>
VStem: 12 163<130.5 182 130.5 192.5> 327 152 377 158<388.5 399>
LayerCount: 2
Fore
SplineSet
298 607 m 0x71c0
 287 607 279 599 276 579 c 1
 194 579 l 1
 209 663 234 697 288 697 c 0x72c0
 311 697 329 694 366 678 c 0
 389 669 401 666 412 666 c 0x78c0
 423 666 429 674 433 694 c 1
 514 694 l 1
 499 610 474 576 420 576 c 0x74c0
 399 576 381 578 342 595 c 0
 321 604 309 607 298 607 c 0x71c0
333 547 m 0xb2a0
 480 547 535 486 535 403 c 0
 535 374 530 344 521 294 c 2x72a0
 493 135 l 2
 486 95 482 59 479 0 c 1
 326 0 l 1
 328 77 l 1x72c0
 295 24 l 1xb2c0
 259 -2 212 -14 161 -14 c 0
 79 -14 12 32 12 128 c 0
 12 257 146 338 371 326 c 1
 372 332 l 2
 375 350 377 367 377 384 c 0
 377 414 361 439 317 439 c 0
 263 439 231 409 218 356 c 1
 68 356 l 1
 91 478 201 547 333 547 c 0xb2a0
347 194 m 1x72c0
 354 235 l 1
 251 246 175 215 175 149 c 0
 175 112 200 94 238 94 c 0
 281 94 335 129 347 192 c 1
 347 194 l 1x72c0
EndSplineSet
EndChar

StartChar: adieresis
Encoding: 228 228 119
Width: 568
GlyphClass: 2
Flags: MW
HStem: -14 108<120 259.5> 0 94<219 479 219 326> 237.18 88.82 439 108<290 339> 573 132<246 267 433 453>
VStem: 12 163<130.5 182 130.5 192.5> 188 136<625.5 652> 327 152 375 136<625.5 652> 377 158<388.5 399>
LayerCount: 2
Fore
SplineSet
249 573 m 0x7e80
 210 573 188 593 188 628 c 0
 188 676 228 705 264 705 c 0
 301 705 324 685 324 650 c 0
 324 601 285 573 249 573 c 0x7e80
435 573 m 0
 397 573 375 593 375 628 c 0
 375 676 415 705 451 705 c 0
 488 705 511 685 511 650 c 0
 511 601 471 573 435 573 c 0
333 547 m 0xb440
 480 547 535 486 535 403 c 0
 535 374 530 344 521 294 c 2x7440
 493 135 l 2
 486 95 482 59 479 0 c 1
 326 0 l 1
 328 77 l 1x75
 295 24 l 1xb5
 259 -2 212 -14 161 -14 c 0
 79 -14 12 32 12 128 c 0
 12 257 146 338 371 326 c 1
 372 332 l 2
 375 350 377 367 377 384 c 0
 377 414 361 439 317 439 c 0
 263 439 231 409 218 356 c 1
 68 356 l 1
 91 478 201 547 333 547 c 0xb440
347 194 m 1x75
 354 235 l 1
 251 246 175 215 175 149 c 0
 175 112 200 94 238 94 c 0
 281 94 335 129 347 192 c 1
 347 194 l 1x75
EndSplineSet
EndChar

StartChar: aring
Encoding: 229 229 123
Width: 568
GlyphClass: 2
Flags: MW
HStem: -14 108<120 259.5> 0 94<219 479 219 326> 237.18 88.82 439 108<290 339> 567 58<342.5 368 342.5 382.5> 711 58<350 375.5>
VStem: 12 163<130.5 182 130.5 192.5> 245 76<647 668 647 686> 327 152 377 158<388.5 399> 397 76<667.5 689>
LayerCount: 2
Fore
SplineSet
344 567 m 0x7f20
 283 567 245 599 245 653 c 0
 245 719 297 769 376 769 c 0
 435 769 473 737 473 683 c 0
 473 616 421 567 344 567 c 0x7f20
366 711 m 0
 334 711 321 679 321 657 c 0
 321 637 333 625 352 625 c 0
 384 625 397 656 397 679 c 0
 397 699 385 711 366 711 c 0
333 547 m 0xb740
 480 547 535 486 535 403 c 0
 535 374 530 344 521 294 c 2x7740
 493 135 l 2
 486 95 482 59 479 0 c 1
 326 0 l 1
 328 77 l 1x7680
 295 24 l 1xb680
 259 -2 212 -14 161 -14 c 0
 79 -14 12 32 12 128 c 0
 12 257 146 338 371 326 c 1
 372 332 l 2
 375 350 377 367 377 384 c 0
 377 414 361 439 317 439 c 0
 263 439 231 409 218 356 c 1
 68 356 l 1
 91 478 201 547 333 547 c 0xb740
347 194 m 1x7720
 354 235 l 1
 251 246 175 215 175 149 c 0
 175 112 200 94 238 94 c 0
 281 94 335 129 347 192 c 1
 347 194 l 1x7720
EndSplineSet
EndChar

StartChar: ae
Encoding: 230 230 125
Width: 958
GlyphClass: 2
Flags: MW
HStem: -14 108<224.5 225.5 606 660> 226 99<375 375 566 776> 436 108<298 348 684.5 726>
VStem: 12 165<127.5 173.5 127.5 177.5> 776 160<325 325>
LayerCount: 2
Fore
SplineSet
918 226 m 1
 544 226 l 1
 543 217 542 209 542 202 c 0
 542 121 580 94 632 94 c 0
 688 94 731 124 748 174 c 1
 903 174 l 1
 853 51 741 -14 611 -14 c 0
 518 -14 448 21 416 98 c 1
 356 29 l 1
 308 -2 254 -14 197 -14 c 0
 82 -14 12 39 12 125 c 0
 12 230 101 325 340 325 c 2
 389 325 l 1
 393 349 394 360 394 370 c 0
 394 414 373 436 323 436 c 0
 273 436 233 406 220 353 c 1
 70 353 l 1
 93 475 208 544 340 544 c 0
 449 544 495 504 512 455 c 1
 565 515 642 544 727 544 c 0
 868 544 936 450 936 333 c 0
 936 299 929 259 918 226 c 1
694 436 m 0
 638 436 592 402 566 325 c 1
 776 325 l 1
 779 390 758 436 694 436 c 0
371 206 m 1
 375 226 l 1
 359 227 345 227 332 227 c 0
 228 227 177 203 177 144 c 0
 177 111 202 94 247 94 c 0
 307 94 359 138 371 206 c 1
EndSplineSet
EndChar

StartChar: ccedilla
Encoding: 231 231 130
Width: 587
GlyphClass: 2
Flags: MW
HStem: -210 62<174.5 202 171.5 232.5> -86 180<156 301.5> -10 21G<206 206> 333 211<421 424.5 246.5 574 421 421> 436 108<287.5 359.5>
VStem: 22 166<171 270.5 171 302.5> 247 96<-124.5 -101.5> 421 153<333 394>
AnchorPoint: "Anchor-0" 250 0 basechar 0
LayerCount: 2
Fore
SplineSet
273 94 m 0xcf
 330 94 373 127 395 189 c 1
 551 189 l 1
 505 62 418 -7 283 -13 c 1
 263 -42 l 1
 316 -50 343 -74 343 -112 c 0
 343 -180 273 -210 192 -210 c 0
 157 -210 131 -208 114 -203 c 1
 126 -141 l 1
 145 -147 162 -148 181 -148 c 0
 223 -148 247 -135 247 -114 c 0
 247 -89 209 -81 156 -86 c 1xcf
 206 -10 l 1
 97 6 22 76 22 210 c 0
 22 395 148 544 345 544 c 0xaf
 504 544 574 455 574 333 c 1xb7
 421 333 l 1
 420 403 387 436 332 436 c 0
 243 436 188 332 188 209 c 0
 188 133 225 94 273 94 c 0xcf
EndSplineSet
EndChar

StartChar: edieresis
Encoding: 235 235 140
Width: 594
GlyphClass: 2
Flags: MW
HStem: -14 108<244.5 298.5 244.5 327> 226 99<181 412 199 412 199 554> 439 108<294 353.5> 573 132<260 281 447 467>
VStem: 22 159<165 205 205 226 165 302> 202 136<625.5 652> 389 136<625.5 652> 413 159<340.5 372.5>
AnchorPoint: "Anchor-0" 252 0 basechar 0
LayerCount: 2
Fore
SplineSet
263 573 m 0xfe
 224 573 202 593 202 628 c 0
 202 676 242 705 278 705 c 0
 315 705 338 685 338 650 c 0
 338 601 299 573 263 573 c 0xfe
449 573 m 0
 411 573 389 593 389 628 c 0
 389 676 429 705 465 705 c 0
 502 705 525 685 525 650 c 0
 525 601 485 573 449 573 c 0
181 226 m 1xe9
 181 205 l 2
 181 125 218 94 271 94 c 0
 326 94 369 124 386 174 c 1
 541 174 l 1
 499 51 395 -14 259 -14 c 0
 128 -14 22 50 22 205 c 0
 22 399 148 547 339 547 c 0
 497 547 572 450 572 332 c 0
 572 299 565 259 554 226 c 1
 181 226 l 1xe9
324 439 m 0
 264 439 221 393 199 325 c 1
 412 325 l 1
 413 333 413 338 413 343 c 0
 413 402 383 439 324 439 c 0
EndSplineSet
EndChar

StartChar: igrave
Encoding: 236 236 157
Width: 276
GlyphClass: 2
Flags: MW
HStem: 0 21G<13 170 13 13> 513 20G<108 264 264 264> 572 121<168 192 52 254 168 168>
VStem: 13 251
LayerCount: 2
Fore
SplineSet
254 572 m 1
 168 572 l 1
 52 693 l 1
 192 693 l 1
 254 572 l 1
170 0 m 1
 13 0 l 1
 108 533 l 1
 264 533 l 1
 170 0 l 1
EndSplineSet
EndChar

StartChar: iacute
Encoding: 237 237 154
Width: 276
GlyphClass: 2
Flags: MW
HStem: 0 21G<13 170 13 13> 513 20G<108 264 264 264> 572 121<145 390 145 390>
VStem: 13 377
LayerCount: 2
Fore
SplineSet
231 572 m 1
 145 572 l 1
 250 693 l 1
 390 693 l 1
 231 572 l 1
170 0 m 1
 13 0 l 1
 108 533 l 1
 264 533 l 1
 170 0 l 1
EndSplineSet
EndChar

StartChar: icircumflex
Encoding: 238 238 155
Width: 276
GlyphClass: 2
Flags: MW
HStem: 0 21G<13 170 13 13> 513 20G<108 264 264 264> 572 121<157 165 72 283 231 231 231 283 157 325> 644 49<211 211>
VStem: 13 312
LayerCount: 2
Fore
SplineSet
165 572 m 1xe8
 72 572 l 1
 157 693 l 1
 283 693 l 1
 325 572 l 1
 231 572 l 1xe8
 211 644 l 1xd8
 165 572 l 1xe8
108 533 m 1
 264 533 l 1
 170 0 l 1
 13 0 l 1
 108 533 l 1
EndSplineSet
EndChar

StartChar: idieresis
Encoding: 239 239 156
Width: 276
GlyphClass: 2
Flags: MW
HStem: 0 21G<13 170 13 13> 513 20G<108 264 264 264> 573 132<98 119 285 305>
VStem: 40 136<625.5 652> 227 136<625.5 652>
LayerCount: 2
Fore
SplineSet
116 705 m 0
 153 705 176 685 176 650 c 0
 176 601 137 573 101 573 c 0
 62 573 40 593 40 628 c 0
 40 676 80 705 116 705 c 0
303 705 m 0
 340 705 363 685 363 650 c 0
 363 601 323 573 287 573 c 0
 249 573 227 593 227 628 c 0
 227 676 267 705 303 705 c 0
170 0 m 1
 13 0 l 1
 108 533 l 1
 264 533 l 1
 170 0 l 1
EndSplineSet
EndChar

StartChar: eth
Encoding: 240 240 133
Width: 651
GlyphClass: 2
Flags: MW
HStem: -14 116<255 347.5 255 397> 432 115<284 345 220.5 373.5> 675 20G<317 317> 681 20G<626 626> 725 20G<450 450>
VStem: 23 163<179 261 179 290> 444 163<285.5 352>
LayerCount: 2
Fore
SplineSet
640 636 m 1xde
 564 619 l 1xde
 594 552 607 468 607 378 c 0
 607 193 519 -14 275 -14 c 0
 111 -14 23 81 23 210 c 0
 23 370 117 547 324 547 c 0
 366 547 392 540 425 518 c 1
 461 459 l 1
 459 504 452 548 429 589 c 1
 305 562 l 1
 292 626 l 1
 384 647 l 1
 366 664 344 680 317 695 c 1xee
 450 745 l 1
 482 730 508 707 529 679 c 1
 626 701 l 1
 640 636 l 1xde
286 102 m 0
 409 102 444 234 444 318 c 0
 444 386 403 432 344 432 c 0
 224 432 186 302 186 220 c 0
 186 138 224 102 286 102 c 0
EndSplineSet
EndChar

StartChar: ntilde
Encoding: 241 241 176
Width: 631
GlyphClass: 2
Flags: MW
HStem: 0 21G<13 170 13 13 374 530 374 374> 439 94<107 383.5> 439 108<354 490.5> 576 90<437.5 445.5 434.5 475> 576 118<461 475> 579 118<289 304 222 327.5> 607 90<320.5 327.5 289 331.5>
VStem: 433 164<349.5 450>
AnchorPoint: "Anchor-0" 269 0 basechar 0
LayerCount: 2
Fore
SplineSet
326 607 m 0xc3
 315 607 307 599 304 579 c 1
 222 579 l 1
 237 663 262 697 316 697 c 0xc5
 339 697 357 694 394 678 c 0
 417 669 429 666 440 666 c 0xd1
 451 666 457 674 461 694 c 1
 542 694 l 1
 527 610 502 576 448 576 c 0xc9
 427 576 409 578 370 595 c 0
 349 604 337 607 326 607 c 0xc3
436 547 m 0xa9
 545 547 597 490 597 410 c 0
 597 382 594 355 585 306 c 2
 530 0 l 1
 374 0 l 1
 423 274 l 2
 429 312 433 340 433 359 c 0
 433 407 413 439 354 439 c 0
 290 438 237 380 212 244 c 1
 170 0 l 1
 13 0 l 1
 107 533 l 1
 263 533 l 1
 249 454 l 1xc9
 305 513 l 1
 345 537 386 547 436 547 c 0xa9
EndSplineSet
EndChar

StartChar: ograve
Encoding: 242 242 181
Width: 626
GlyphClass: 2
Flags: MW
HStem: -14 108<256 339 256 387> 439 108<288.5 371.5> 572 121<341 341 341 365 225 427>
VStem: 24 166<189 280 189 305.5> 437 166<254 344.5>
LayerCount: 2
Fore
SplineSet
341 572 m 1
 225 693 l 1
 365 693 l 1
 427 572 l 1
 341 572 l 1
350 547 m 0xd8
 520 547 603 446 603 310 c 0
 603 145 496 -14 278 -14 c 0
 107 -14 24 87 24 223 c 0
 24 388 131 547 350 547 c 0xd8
290 94 m 0
 388 94 437 201 437 307 c 0
 437 382 406 439 337 439 c 0
 240 439 190 333 190 227 c 0
 190 151 222 94 290 94 c 0
EndSplineSet
EndChar

StartChar: oacute
Encoding: 243 243 178
Width: 626
GlyphClass: 2
Flags: MW
HStem: -14 108<256 339 256 387> 439 108<288.5 371.5> 572 121<318 563 318 563>
VStem: 24 166<189 280 189 305.5> 437 166<254 344.5>
LayerCount: 2
Fore
SplineSet
404 572 m 1
 318 572 l 1
 423 693 l 1
 563 693 l 1
 404 572 l 1
350 547 m 0xd8
 520 547 603 446 603 310 c 0
 603 145 496 -14 278 -14 c 0
 107 -14 24 87 24 223 c 0
 24 388 131 547 350 547 c 0xd8
290 94 m 0
 388 94 437 201 437 307 c 0
 437 382 406 439 337 439 c 0
 240 439 190 333 190 227 c 0
 190 151 222 94 290 94 c 0
EndSplineSet
EndChar

StartChar: ocircumflex
Encoding: 244 244 179
Width: 626
GlyphClass: 2
Flags: MW
HStem: -14 108<256 339 256 387> 439 108<288.5 371.5> 572 121<330 338 245 456 404 404 404 456 330 498> 644 49<384 384>
VStem: 24 166<189 280 189 305.5> 437 166<254 344.5>
LayerCount: 2
Fore
SplineSet
338 572 m 1xac
 245 572 l 1
 330 693 l 1
 456 693 l 1
 498 572 l 1
 404 572 l 1xac
 384 644 l 1x9c
 338 572 l 1xac
350 547 m 0xec
 520 547 603 446 603 310 c 0
 603 145 496 -14 278 -14 c 0
 107 -14 24 87 24 223 c 0
 24 388 131 547 350 547 c 0xec
290 94 m 0
 388 94 437 201 437 307 c 0
 437 382 406 439 337 439 c 0
 240 439 190 333 190 227 c 0
 190 151 222 94 290 94 c 0
EndSplineSet
EndChar

StartChar: odieresis
Encoding: 246 246 180
Width: 626
GlyphClass: 2
Flags: MW
HStem: -14 108<256 339 256 387> 439 108<288.5 371.5> 573 132<271 292 458 478>
VStem: 24 166<189 280 189 305.5> 213 136<625.5 652> 400 136<625.5 652> 437 166<254 344.5>
LayerCount: 2
Fore
SplineSet
274 573 m 0xfc
 235 573 213 593 213 628 c 0
 213 676 253 705 289 705 c 0
 326 705 349 685 349 650 c 0
 349 601 310 573 274 573 c 0xfc
460 573 m 0
 422 573 400 593 400 628 c 0
 400 676 440 705 476 705 c 0
 513 705 536 685 536 650 c 0
 536 601 496 573 460 573 c 0
350 547 m 0xd2
 520 547 603 446 603 310 c 0
 603 145 496 -14 278 -14 c 0
 107 -14 24 87 24 223 c 0
 24 388 131 547 350 547 c 0xd2
290 94 m 0
 388 94 437 201 437 307 c 0
 437 382 406 439 337 439 c 0
 240 439 190 333 190 227 c 0
 190 151 222 94 290 94 c 0
EndSplineSet
EndChar

StartChar: divide
Encoding: 247 247 291
Width: 642
Flags: MW
HStem: 62 148<285 305.5> 275 86<98 556 83 570> 424 148<349 369>
VStem: 220 150<126 146> 284 150<488 508.5>
LayerCount: 2
Fore
SplineSet
372 572 m 0x68
 409 572 434 546 434 512 c 0
 434 464 392 424 346 424 c 0
 309 424 284 450 284 484 c 0
 284 533 326 572 372 572 c 0x68
556 275 m 1
 83 275 l 1
 98 361 l 1
 570 361 l 1
 556 275 l 1
308 210 m 0xd0
 346 210 370 184 370 150 c 0
 370 102 329 62 282 62 c 0
 245 62 220 88 220 122 c 0
 220 170 262 210 308 210 c 0xd0
EndSplineSet
EndChar

StartChar: oslash
Encoding: 248 248 184
Width: 639
GlyphClass: 2
Flags: MW
HStem: -14 108<279 344.5 279 392> 439 108<294 359.5>
VStem: 30 166<216 227 216 305.5> 442 166<254 307>
LayerCount: 2
Fore
SplineSet
653 497 m 1
 579 434 l 1
 598 399 608 356 608 310 c 0
 608 145 501 -14 283 -14 c 0
 210 -14 153 5 111 37 c 1
 33 -30 l 1
 -19 33 l 1
 59 99 l 1
 39 135 30 177 30 223 c 0
 30 388 137 547 355 547 c 0
 428 547 485 528 526 497 c 1
 601 560 l 1
 653 497 l 1
196 227 m 2
 196 216 l 1
 417 403 l 1
 400 426 376 439 343 439 c 0
 245 439 196 333 196 227 c 2
442 307 m 1
 441 317 l 1
 221 130 l 1
 237 108 262 94 296 94 c 0
 393 94 442 201 442 307 c 1
EndSplineSet
EndChar

StartChar: ucircumflex
Encoding: 251 251 207
Width: 626
GlyphClass: 2
Flags: MW
HStem: -14 109<137 305> 0 95<273 520 273 364> 513 20G<97 254 254 254 458 614 614 614> 572 121<342 350 257 468 416 416 416 468 342 510> 644 49<396 396>
VStem: 30 164<83 183.5>
LayerCount: 2
Fore
SplineSet
350 572 m 1x74
 257 572 l 1
 342 693 l 1
 468 693 l 1
 510 572 l 1
 416 572 l 1x74
 396 644 l 1x6c
 350 572 l 1x74
614 533 m 1
 520 0 l 1
 364 0 l 1
 378 79 l 1x74
 322 20 l 1
 282 -4 242 -14 191 -14 c 0xb4
 83 -14 30 43 30 123 c 0
 30 151 33 178 42 228 c 2
 97 533 l 1
 254 533 l 1
 204 259 l 2
 198 222 194 193 194 174 c 0
 194 127 215 94 273 95 c 1
 337 95 391 153 415 289 c 2
 458 533 l 1
 614 533 l 1
EndSplineSet
EndChar

StartChar: udieresis
Encoding: 252 252 208
Width: 626
GlyphClass: 2
Flags: MW
HStem: -14 109<137 305> 0 95<273 520 273 364> 513 20G<97 254 254 254 458 614 614 614> 573 132<283 304 470 490>
VStem: 30 164<83 183.5> 225 136<625.5 652> 412 136<625.5 652>
LayerCount: 2
Fore
SplineSet
286 573 m 0x7e
 247 573 225 593 225 628 c 0
 225 676 265 705 301 705 c 0
 338 705 361 685 361 650 c 0
 361 601 322 573 286 573 c 0x7e
472 573 m 0
 434 573 412 593 412 628 c 0
 412 676 452 705 488 705 c 0
 525 705 548 685 548 650 c 0
 548 601 508 573 472 573 c 0
614 533 m 1
 520 0 l 1
 364 0 l 1
 378 79 l 1x7e
 322 20 l 1
 282 -4 242 -14 191 -14 c 0xbe
 83 -14 30 43 30 123 c 0
 30 151 33 178 42 228 c 2
 97 533 l 1
 254 533 l 1
 204 259 l 2
 198 222 194 193 194 174 c 0
 194 127 215 94 273 95 c 1
 337 95 391 153 415 289 c 2
 458 533 l 1
 614 533 l 1
EndSplineSet
EndChar

StartChar: thorn
Encoding: 254 254 188
Width: 664
GlyphClass: 2
Flags: MW
HStem: -14 108<305 365 269.5 433> 439 108<339.5 502.5> 715 20G<144 301 301 301>
VStem: 480 163<251.5 354>
LayerCount: 2
Fore
SplineSet
436 547 m 0
 569 547 643 463 643 327 c 0
 643 150 539 -14 327 -14 c 0
 283 -14 232 -2 209 17 c 1
 183 75 l 1
 135 -196 l 1
 -22 -196 l 1
 144 735 l 1
 301 735 l 1
 251 454 l 1
 301 512 l 1
 334 535 382 547 436 547 c 0
317 94 m 0
 413 94 480 191 480 312 c 0
 480 396 442 439 375 439 c 0
 304 439 240 394 218 273 c 1
 214 249 l 2
 201 170 222 94 317 94 c 0
EndSplineSet
EndChar

StartChar: ydieresis
Encoding: 255 255 224
Width: 562
GlyphClass: 2
Flags: MW
HStem: -210 105<35.5 65 35.5 106> 513 20G<32 207 207 207 450 622 622 622> 573 132<231 252 418 438>
VStem: 173 136<625.5 652> 360 136<625.5 652>
LayerCount: 2
Fore
SplineSet
234 573 m 0
 195 573 173 593 173 628 c 0
 173 676 213 705 249 705 c 0
 286 705 309 685 309 650 c 0
 309 601 270 573 234 573 c 0
420 573 m 0
 382 573 360 593 360 628 c 0
 360 676 400 705 436 705 c 0
 473 705 496 685 496 650 c 0
 496 601 456 573 420 573 c 0
622 533 m 1
 321 0 l 2
 232 -157 164 -210 48 -210 c 0
 23 -210 3 -208 -19 -205 c 1
 -2 -102 l 1
 13 -104 27 -105 44 -105 c 0
 86 -105 118 -86 144 -36 c 1
 150 -25 l 1
 32 533 l 1
 207 533 l 1
 257 129 l 1
 450 533 l 1
 622 533 l 1
EndSplineSet
EndChar

StartChar: Amacron
Encoding: 256 256 7
Width: 692
GlyphClass: 2
Flags: MW
HStem: 0 21G<-37 131 -37 -37 484 484 484 654> 195 123<289 437 289 456 228 437> 548 142<404 404> 670 20G<329 534 534 534> 759 85<318 588 303 603>
VStem: -37 691<0 0>
LayerCount: 2
Fore
SplineSet
588 759 m 1xdc
 303 759 l 1
 318 844 l 1
 603 844 l 1
 588 759 l 1xdc
456 195 m 1
 228 195 l 1
 131 0 l 1
 -37 0 l 1
 329 690 l 1
 534 690 l 1
 654 0 l 1
 484 0 l 1
 456 195 l 1
437 318 m 1
 404 548 l 1xec
 289 318 l 1
 437 318 l 1
EndSplineSet
Position2: "'cpsp' Capital Spacing in Latin lookup 0 subtable" dx=5 dy=0 dh=10 dv=0
EndChar

StartChar: Abreve
Encoding: 258 258 3
Width: 692
GlyphClass: 2
Flags: MW
HStem: 0 21G<-37 131 -37 -37 484 484 484 654> 195 123<289 437 289 456 228 437> 548 142<404 404> 670 20G<329 534 534 534> 727 126<394 418 337 476.5>
VStem: 334.44 83.56
LayerCount: 2
Fore
SplineSet
441 727 m 0xdc
 347 727 326 789 337 853 c 1
 418 853 l 1
 413 823 423 804 454 804 c 0
 483 804 502 820 510 853 c 1
 590 853 l 1
 575 767 512 727 441 727 c 0xdc
456 195 m 1
 228 195 l 1
 131 0 l 1
 -37 0 l 1
 329 690 l 1
 534 690 l 1
 654 0 l 1
 484 0 l 1
 456 195 l 1
437 318 m 1
 404 548 l 1xec
 289 318 l 1
 437 318 l 1
EndSplineSet
Position2: "'cpsp' Capital Spacing in Latin lookup 0 subtable" dx=5 dy=0 dh=10 dv=0
EndChar

StartChar: abreve
Encoding: 259 259 117
Width: 568
GlyphClass: 2
Flags: MW
HStem: -14 108<120 259.5> 0 94<219 479 219 326> 237.18 88.82 439 108<290 339> 567 77<337.5 369 337.5 376.5> 567 128<293 319 238 376.5>
VStem: 12 163<130.5 182 130.5 192.5> 235.03 83.97 327 152 377 158<388.5 399>
LayerCount: 2
Fore
SplineSet
341 567 m 0x7740
 245 567 226 630 238 695 c 1
 319 695 l 1x7740
 315 667 321 644 354 644 c 0x7b40
 384 644 402 661 411 695 c 1
 492 695 l 1
 476 606 412 567 341 567 c 0x7740
333 547 m 0xb340
 480 547 535 486 535 403 c 0
 535 374 530 344 521 294 c 2x7340
 493 135 l 2
 486 95 482 59 479 0 c 1
 326 0 l 1
 328 77 l 1x7380
 295 24 l 1xb380
 259 -2 212 -14 161 -14 c 0
 79 -14 12 32 12 128 c 0
 12 257 146 338 371 326 c 1
 372 332 l 2
 375 350 377 367 377 384 c 0
 377 414 361 439 317 439 c 0
 263 439 231 409 218 356 c 1
 68 356 l 1
 91 478 201 547 333 547 c 0xb340
347 194 m 1x7340
 354 235 l 1
 251 246 175 215 175 149 c 0
 175 112 200 94 238 94 c 0
 281 94 335 129 347 192 c 1
 347 194 l 1x7340
EndSplineSet
EndChar

StartChar: Aogonek
Encoding: 260 260 8
Width: 692
GlyphClass: 2
Flags: MW
HStem: -223 90<433.5 562.5> 0 21G<-37 131 -37 -37 592 592 592 654> 195 123<289 437 289 456 228 437> 548 142<404 404> 670 20G<329 534 534 534>
VStem: 365 154<-174 -74.5>
LayerCount: 2
Fore
SplineSet
519 -93 m 0xec
 519 -123 535 -133 555 -133 c 0
 570 -133 586 -129 604 -117 c 1
 592 -179 l 1
 561 -205 514 -223 461 -223 c 0
 406 -223 365 -202 365 -146 c 0
 365 -84 406 -31 483 6 c 1
 456 195 l 1
 228 195 l 1
 131 0 l 1
 -37 0 l 1
 329 690 l 1
 534 690 l 1
 654 0 l 1
 592 0 l 1
 547 -3 519 -56 519 -93 c 0xec
437 318 m 1
 404 548 l 1x74
 289 318 l 1
 437 318 l 1
EndSplineSet
Position2: "'cpsp' Capital Spacing in Latin lookup 0 subtable" dx=5 dy=0 dh=10 dv=0
EndChar

StartChar: aogonek
Encoding: 261 261 122
Width: 568
GlyphClass: 2
Flags: MW
HStem: -223 90<275.5 404.5> -14 21G -14 108<120 259.5> 0 21G<434 479 434 434> 237.18 88.82 439 108<290 339>
VStem: 12 163<130.5 182 130.5 192.5> 207 154<-174 -74.5> 327 152 377 158<388.5 399>
LayerCount: 2
Fore
SplineSet
333 547 m 0x2e40
 480 547 535 486 535 403 c 0
 535 374 530 344 521 294 c 2x1e40
 493 135 l 2
 486 95 482 59 479 0 c 1x1e80
 434 0 l 1
 389 -3 361 -56 361 -93 c 0
 361 -123 377 -133 397 -133 c 0
 412 -133 428 -129 446 -117 c 1
 434 -179 l 1
 403 -205 356 -223 303 -223 c 0
 248 -223 207 -202 207 -146 c 0x9f
 207 -83 249 -30 326 7 c 1
 328 77 l 1x4e80
 295 24 l 1x2e80
 259 -2 212 -14 161 -14 c 0
 79 -14 12 32 12 128 c 0
 12 257 146 338 371 326 c 1
 372 332 l 2
 375 350 377 367 377 384 c 0
 377 414 361 439 317 439 c 0
 263 439 231 409 218 356 c 1
 68 356 l 1
 91 478 201 547 333 547 c 0x2e40
238 94 m 0
 281 94 335 129 347 192 c 1
 347 194 l 1
 354 235 l 1
 251 246 175 215 175 149 c 0
 175 112 200 94 238 94 c 0
EndSplineSet
EndChar

StartChar: Cacute
Encoding: 262 262 14
Width: 755
GlyphClass: 2
Flags: MW
HStem: -14 116<325.5 403.5 325.5 432> 588 116<390 487>
VStem: 62 169 575 157<455 465 465 465>
AnchorPoint: "Anchor-0" 65 0 basechar 0
LayerCount: 2
Fore
SplineSet
461 704 m 0
 652 704 742 601 732 465 c 1
 731 455 l 1
 575 455 l 1
 575 465 l 1
 573 550 529 588 445 588 c 0
 335 588 246 494 231 335 c 1
 312 335 l 1
 228 272 l 1
 232 151 288 102 363 102 c 0
 444 102 500 151 531 233 c 1
 535 243 l 1
 691 243 l 1
 688 233 l 1
 644 75 520 -14 344 -14 c 0
 172 -14 61 88 62 271 c 1
 61 534 243 704 461 704 c 0
EndSplineSet
Position2: "'cpsp' Capital Spacing in Latin lookup 0 subtable" dx=5 dy=0 dh=10 dv=0
EndChar

StartChar: cacute
Encoding: 263 263 128
Width: 587
GlyphClass: 2
Flags: MW
HStem: -14 108<249 301.5 249 334> 333 211<421 424.5 246.5 574 421 421> 436 108<287.5 359.5> 572 121<304 549 304 549>
VStem: 22 166<171 270.5 171 302.5> 421 153<333 394>
AnchorPoint: "Anchor-0" 250 0 basechar 0
LayerCount: 2
Fore
SplineSet
390 572 m 1xbc
 304 572 l 1
 409 693 l 1
 549 693 l 1
 390 572 l 1xbc
345 544 m 0xac
 504 544 574 455 574 333 c 1xcc
 421 333 l 1
 420 403 387 436 332 436 c 0
 243 436 188 332 188 209 c 0
 188 133 225 94 273 94 c 0
 330 94 373 127 395 189 c 1
 551 189 l 1
 502 55 408 -14 260 -14 c 0
 123 -14 22 55 22 210 c 0
 22 395 148 544 345 544 c 0xac
EndSplineSet
EndChar

StartChar: cdotaccent
Encoding: 267 267 131
Width: 587
GlyphClass: 2
Flags: MW
HStem: -14 108<249 301.5 249 334> 333 211<421 424.5 246.5 574 421 421> 436 108<287.5 359.5> 580 159<350.5 391>
VStem: 22 166<171 270.5 171 302.5> 287 167<649.5 670.5> 421 153<333 394>
AnchorPoint: "Anchor-0" 250 0 basechar 0
LayerCount: 2
Fore
SplineSet
381 739 m 0xbc
 426 739 454 713 454 672 c 0
 454 627 422 580 360 580 c 0
 315 580 287 606 287 648 c 0
 287 693 320 739 381 739 c 0xbc
345 544 m 0xba
 504 544 574 455 574 333 c 1xda
 421 333 l 1
 420 403 387 436 332 436 c 0
 243 436 188 332 188 209 c 0
 188 133 225 94 273 94 c 0
 330 94 373 127 395 189 c 1
 551 189 l 1
 502 55 408 -14 260 -14 c 0
 123 -14 22 55 22 210 c 0
 22 395 148 544 345 544 c 0xba
EndSplineSet
EndChar

StartChar: Ccaron
Encoding: 268 268 15
Width: 755
GlyphClass: 2
Flags: MW
HStem: -14 116<325 403.5 325 432> 217 118<56 65 56 56> 588 116<390 487>
VStem: 575 157<455 465 465 465>
AnchorPoint: "Anchor-0" 65 0 basechar 0
LayerCount: 2
Fore
SplineSet
461 704 m 0
 652 704 742 601 732 465 c 1
 731 455 l 1
 575 455 l 1
 575 465 l 1
 573 550 529 588 445 588 c 0
 335 588 246 494 231 335 c 1
 267 335 l 1
 228 280 l 1
 229 153 287 102 363 102 c 0
 444 102 500 151 531 233 c 1
 535 243 l 1
 691 243 l 1
 688 233 l 1
 644 75 520 -14 344 -14 c 0
 190 -14 85 68 65 217 c 1
 56 217 l 1
 14 335 l 1
 66 335 l 1
 92 561 261 704 461 704 c 0
EndSplineSet
Position2: "'cpsp' Capital Spacing in Latin lookup 0 subtable" dx=5 dy=0 dh=10 dv=0
EndChar

StartChar: ccaron
Encoding: 269 269 129
Width: 587
GlyphClass: 2
Flags: MW
HStem: -14 108<249 301.5 249 334> 333 211<421 424.5 246.5 574 421 421> 436 108<287.5 359.5> 572 121<291 291 291 343 409 417>
VStem: 22 166<171 270.5 171 302.5> 421 153<333 394>
AnchorPoint: "Anchor-0" 250 0 basechar 0
LayerCount: 2
Fore
SplineSet
291 572 m 1x9c
 249 693 l 1
 343 693 l 1
 363 624 l 1
 409 693 l 1
 502 693 l 1
 417 572 l 1
 291 572 l 1x9c
273 94 m 0
 330 94 373 127 395 189 c 1
 551 189 l 1
 502 55 408 -14 260 -14 c 0
 123 -14 22 55 22 210 c 0
 22 395 148 544 345 544 c 0xbc
 504 544 574 455 574 333 c 1xdc
 421 333 l 1
 420 403 387 436 332 436 c 0xbc
 243 436 188 332 188 209 c 0
 188 133 225 94 273 94 c 0
EndSplineSet
EndChar

StartChar: Dcaron
Encoding: 270 270 20
Width: 734
GlyphClass: 2
Flags: MW
HStem: 0 123<207 270> 568 122<286 356 286 286> 735 118<367 367 367 419 484 494>
VStem: 554 166<325.5 448.5>
LayerCount: 2
Fore
SplineSet
367 735 m 1
 325 853 l 1
 419 853 l 1
 439 785 l 1
 484 853 l 1
 578 853 l 1
 494 735 l 1
 367 735 l 1
477 686 m 0
 614 671 720 581 720 396 c 0
 720 200 602 26 359 3 c 0
 323 0 306 0 270 0 c 2
 29 0 l 1
 151 690 l 1
 383 690 l 2
 420 690 443 690 477 686 c 0
348 125 m 0
 490 141 554 259 554 392 c 0
 554 505 502 557 423 565 c 0
 401 567 383 568 356 568 c 2
 286 568 l 1
 207 123 l 1
 279 123 l 2
 307 123 325 123 348 125 c 0
EndSplineSet
Position2: "'cpsp' Capital Spacing in Latin lookup 0 subtable" dx=5 dy=0 dh=10 dv=0
EndChar

StartChar: dcaron
Encoding: 271 271 134
Width: 662
GlyphClass: 2
Flags: MW
HStem: -14 108<161.5 324.5> 0 94<257.5 556 257.5 399> 439 108<298.5 358 230.5 394> 565 170<684 686 529 768 684 684> 565 171<684 881 684 881>
VStem: 21 166<179 277.5 179 287>
LayerCount: 2
Fore
SplineSet
881 736 m 1xac
 881 726 l 1xac
 768 565 l 1
 684 565 l 1xb4
 771 736 l 1
 881 736 l 1xac
686 735 m 1xb4
 556 0 l 1
 399 0 l 1
 413 79 l 1x64
 363 21 l 1
 330 -2 282 -14 228 -14 c 0
 95 -14 21 63 21 198 c 0
 21 376 125 547 336 547 c 0
 380 547 431 535 455 517 c 1
 481 459 l 1xa4
 529 735 l 1
 686 735 l 1xb4
445 260 m 1
 450 285 l 1
 463 363 441 439 347 439 c 0
 250 439 187 334 187 221 c 0
 187 137 226 94 289 94 c 0xa4
 360 94 423 140 445 259 c 1
 445 260 l 1
EndSplineSet
EndChar

StartChar: dcroat
Encoding: 273 273 135
Width: 663
GlyphClass: 2
Flags: MW
HStem: -14 108<161.5 324.5> 0 94<257.5 556 257.5 399> 439 108<298.5 358 230.5 394> 580 86<398 502 383 517 674 699> 580 155<383 686 383 686 659 686 529 699 659 659>
VStem: 21 166<179 277.5 179 287>
LayerCount: 2
Fore
SplineSet
699 580 m 1xac
 659 580 l 1
 556 0 l 1
 399 0 l 1
 413 79 l 1x6c
 363 21 l 1
 330 -2 282 -14 228 -14 c 0
 95 -14 21 63 21 198 c 0
 21 376 125 547 336 547 c 0
 380 547 431 535 455 517 c 1
 481 459 l 1
 502 580 l 1
 383 580 l 1xac
 398 666 l 1
 517 666 l 1xb4
 529 735 l 1
 686 735 l 1xac
 674 666 l 1
 714 666 l 1xb4
 699 580 l 1xac
445 260 m 1
 450 285 l 1
 463 363 441 439 347 439 c 0
 250 439 187 334 187 221 c 0
 187 137 226 94 289 94 c 0xac
 360 94 423 140 445 259 c 1
 445 260 l 1
EndSplineSet
EndChar

StartChar: Edotaccent
Encoding: 278 278 27
Width: 619
GlyphClass: 2
Flags: MW
HStem: 0 123<207 540> 285 122<257 558 235 580> 568 122<285 285 285 630> 726 155<405.5 445>
VStem: 344 163<793.5 814>
AnchorPoint: "Anchor-0" 266 0 basechar 0
LayerCount: 2
Fore
SplineSet
415 726 m 0
 371 726 344 751 344 792 c 0
 344 836 376 881 435 881 c 0
 479 881 507 856 507 815 c 0
 507 772 475 726 415 726 c 0
285 568 m 1
 257 407 l 1
 580 407 l 1
 558 285 l 1
 235 285 l 1
 207 123 l 1
 562 123 l 1
 540 0 l 1
 29 0 l 1
 151 690 l 1
 652 690 l 1
 630 568 l 1
 285 568 l 1
EndSplineSet
Position2: "'cpsp' Capital Spacing in Latin lookup 0 subtable" dx=5 dy=0 dh=10 dv=0
EndChar

StartChar: edotaccent
Encoding: 279 279 141
Width: 594
GlyphClass: 2
Flags: MW
HStem: -14 108<244.5 298.5 244.5 327> 226 99<181 412 199 412 199 554> 439 108<294 353.5> 580 159<352.5 393>
VStem: 22 159<165 205 205 226 165 302> 289 167<649.5 670.5> 413 159<340.5 372.5>
AnchorPoint: "Anchor-0" 252 0 basechar 0
LayerCount: 2
Fore
SplineSet
362 580 m 0xfc
 317 580 289 606 289 648 c 0
 289 693 322 739 383 739 c 0
 428 739 456 713 456 672 c 0
 456 627 424 580 362 580 c 0xfc
181 226 m 1
 181 205 l 2
 181 125 218 94 271 94 c 0
 326 94 369 124 386 174 c 1
 541 174 l 1
 499 51 395 -14 259 -14 c 0
 128 -14 22 50 22 205 c 0
 22 399 148 547 339 547 c 0
 497 547 572 450 572 332 c 0
 572 299 565 259 554 226 c 1xfa
 181 226 l 1
324 439 m 0
 264 439 221 393 199 325 c 1
 412 325 l 1
 413 333 413 338 413 343 c 0
 413 402 383 439 324 439 c 0
EndSplineSet
EndChar

StartChar: Eogonek
Encoding: 280 280 30
Width: 619
GlyphClass: 2
Flags: MW
HStem: -223 90<344.5 473.5> 0 123<207 382 503 540 503 503> 285 122<257 558 235 580> 568 122<285 285 285 630>
VStem: 29 623 276 154<-174 -74.5>
AnchorPoint: "Anchor-0" 266 0 basechar 0
LayerCount: 2
Fore
SplineSet
285 568 m 1x78
 257 407 l 1
 580 407 l 1
 558 285 l 1
 235 285 l 1
 207 123 l 1
 562 123 l 1
 540 0 l 1
 503 0 l 1
 458 -3 430 -56 430 -93 c 0
 430 -123 446 -133 466 -133 c 0
 481 -133 497 -129 515 -117 c 1
 503 -179 l 1
 472 -205 425 -223 372 -223 c 0
 317 -223 276 -202 276 -146 c 0xf4
 276 -87 313 -37 382 0 c 1
 29 0 l 1
 151 690 l 1
 652 690 l 1
 630 568 l 1
 285 568 l 1x78
EndSplineSet
Position2: "'cpsp' Capital Spacing in Latin lookup 0 subtable" dx=5 dy=0 dh=10 dv=0
EndChar

StartChar: eogonek
Encoding: 281 281 144
Width: 594
GlyphClass: 2
Flags: MW
HStem: -223 90<186.5 315.5> -10 21G 226 99<181 412 199 412 199 554> 439 108<294 353.5>
VStem: 22 159<165 205 205 226 165 302> 118 154<-174 -79> 413 159<340.5 372.5>
AnchorPoint: "Anchor-0" 252 0 basechar 0
LayerCount: 2
Fore
SplineSet
181 226 m 1x7a
 181 205 l 2
 181 125 218 94 271 94 c 0x7a
 326 94 369 124 386 174 c 1
 541 174 l 1
 505 69 424 6 316 -10 c 1
 288 -28 272 -65 272 -93 c 0
 272 -123 288 -133 308 -133 c 0
 323 -133 339 -129 357 -117 c 1
 345 -179 l 1
 314 -205 267 -223 214 -223 c 0
 159 -223 118 -202 118 -146 c 0xf6
 118 -92 149 -46 206 -10 c 1
 101 6 22 72 22 205 c 0
 22 399 148 547 339 547 c 0
 497 547 572 450 572 332 c 0
 572 299 565 259 554 226 c 1
 181 226 l 1x7a
324 439 m 0
 264 439 221 393 199 325 c 1
 412 325 l 1
 413 333 413 338 413 343 c 0
 413 402 383 439 324 439 c 0
EndSplineSet
EndChar

StartChar: Ecaron
Encoding: 282 282 24
Width: 619
GlyphClass: 2
Flags: MW
HStem: 0 123<207 540> 285 122<257 558 235 580> 568 122<285 285 285 630> 735 118<351 351 351 403 468 478>
VStem: 29 623
AnchorPoint: "Anchor-0" 266 0 basechar 0
LayerCount: 2
Fore
SplineSet
351 735 m 1
 309 853 l 1
 403 853 l 1
 423 785 l 1
 468 853 l 1
 562 853 l 1
 478 735 l 1
 351 735 l 1
285 568 m 1
 257 407 l 1
 580 407 l 1
 558 285 l 1
 235 285 l 1
 207 123 l 1
 562 123 l 1
 540 0 l 1
 29 0 l 1
 151 690 l 1
 652 690 l 1
 630 568 l 1
 285 568 l 1
EndSplineSet
Position2: "'cpsp' Capital Spacing in Latin lookup 0 subtable" dx=5 dy=0 dh=10 dv=0
EndChar

StartChar: Gbreve
Encoding: 286 286 33
Width: 773
GlyphClass: 2
Flags: MW
HStem: -14 116<327.5 357.5> 0 21G<529 653 529 529> 237 122<427 546 405 717> 588 116<395.5 497.5> 727 126<457 481 400 539.5>
VStem: 61 167<221.5 380 221.5 404.5> 397.44 83.56 583 158<455 465 465 465>
AnchorPoint: "Anchor-0" 326 0 basechar 0
LayerCount: 2
Fore
SplineSet
504 727 m 0xbf
 410 727 389 789 400 853 c 1
 481 853 l 1
 476 823 486 804 517 804 c 0
 546 804 565 820 573 853 c 1
 653 853 l 1
 638 767 575 727 504 727 c 0xbf
478 704 m 0xb7
 670 704 751 601 741 465 c 1
 740 455 l 1
 583 455 l 1
 583 465 l 1
 582 550 539 588 456 588 c 0
 335 588 228 476 228 284 c 0
 228 159 287 102 368 102 c 0xb7
 448 102 512 149 546 237 c 1
 405 237 l 1
 427 359 l 1
 717 359 l 1
 653 0 l 1
 529 0 l 1x77
 536 108 l 1
 493 37 l 1
 448 1 395 -14 320 -14 c 0
 159 -14 61 89 61 266 c 0
 61 543 261 704 478 704 c 0xb7
EndSplineSet
Position2: "'cpsp' Capital Spacing in Latin lookup 0 subtable" dx=5 dy=0 dh=10 dv=0
EndChar

StartChar: gbreve
Encoding: 287 287 147
Width: 663
GlyphClass: 2
Flags: MW
HStem: -218 116<215.5 286 215.5 323.5> -10 109<161.5 324.5> 439 94 439 108<298.5 358 230.5 394> 567 77<390.5 422 390.5 429.5> 567 128<346 372 291 429.5>
VStem: -6 153<-34 -33> 21 166<179 277.5 179 287> 288.03 83.97
LayerCount: 2
Fore
SplineSet
394 567 m 0xd580
 298 567 279 630 291 695 c 1
 372 695 l 1xd580
 368 667 374 644 407 644 c 0xd980
 437 644 455 661 464 695 c 1
 545 695 l 1
 529 606 465 567 394 567 c 0xd580
651 533 m 1xe180
 580 135 l 2
 574 102 567 61 561 32 c 0
 525 -139 423 -218 224 -218 c 0
 71 -218 -15 -153 -6 -34 c 1
 -5 -24 l 1
 148 -24 l 1
 147 -33 l 1
 144 -76 183 -102 248 -102 c 0xd280
 324 -102 382 -65 401 14 c 0
 405 33 410 56 414 81 c 1
 415 85 l 1
 363 26 l 1
 330 3 282 -10 228 -10 c 0
 95 -10 21 71 21 198 c 0
 21 376 125 547 336 547 c 0
 380 547 431 535 455 517 c 1
 481 459 l 1xd180
 494 533 l 1
 651 533 l 1xe180
289 99 m 0
 360 99 424 140 445 260 c 1
 444 253 l 1
 450 286 l 1
 450 285 l 1
 463 363 441 439 347 439 c 0
 250 439 187 334 187 221 c 0xd180
 187 137 226 99 289 99 c 0
EndSplineSet
EndChar

StartChar: Gdotaccent
Encoding: 288 288 35
Width: 773
GlyphClass: 2
Flags: MW
HStem: -14 116<327.5 357.5> 0 21G<529 653 529 529> 237 122<427 546 405 717> 588 116<395.5 497.5> 726 155<497.5 537>
VStem: 61 167<221.5 380 221.5 404.5> 436 163<793.5 814> 583 158<455 465 465 465>
AnchorPoint: "Anchor-0" 326 0 basechar 0
LayerCount: 2
Fore
SplineSet
507 726 m 0xbe
 463 726 436 751 436 792 c 0
 436 836 468 881 527 881 c 0
 571 881 599 856 599 815 c 0
 599 772 567 726 507 726 c 0xbe
478 704 m 0xb5
 670 704 751 601 741 465 c 1
 740 455 l 1
 583 455 l 1
 583 465 l 1
 582 550 539 588 456 588 c 0
 335 588 228 476 228 284 c 0
 228 159 287 102 368 102 c 0xb5
 448 102 512 149 546 237 c 1
 405 237 l 1
 427 359 l 1
 717 359 l 1
 653 0 l 1
 529 0 l 1x74
 536 108 l 1
 493 37 l 1
 448 1 395 -14 320 -14 c 0
 159 -14 61 89 61 266 c 0
 61 543 261 704 478 704 c 0xb5
EndSplineSet
Position2: "'cpsp' Capital Spacing in Latin lookup 0 subtable" dx=5 dy=0 dh=10 dv=0
EndChar

StartChar: gdotaccent
Encoding: 289 289 149
Width: 663
GlyphClass: 2
Flags: MW
HStem: -218 116<215.5 286 215.5 323.5> -10 109<161.5 324.5> 439 94 439 108<298.5 358 230.5 394> 580 159<392.5 433>
VStem: -6 153<-34 -33> 21 166<179 277.5 179 287> 329 167<649.5 670.5>
LayerCount: 2
Fore
SplineSet
402 580 m 0xdb
 357 580 329 606 329 648 c 0
 329 693 362 739 423 739 c 0
 468 739 496 713 496 672 c 0
 496 627 464 580 402 580 c 0xdb
651 533 m 1xeb
 580 135 l 2
 574 102 567 61 561 32 c 0
 525 -139 423 -218 224 -218 c 0
 71 -218 -15 -153 -6 -34 c 1
 -5 -24 l 1
 148 -24 l 1
 147 -33 l 1
 144 -76 183 -102 248 -102 c 0xdd
 324 -102 382 -65 401 14 c 0
 405 33 410 56 414 81 c 1
 415 85 l 1
 363 26 l 1
 330 3 282 -10 228 -10 c 0
 95 -10 21 71 21 198 c 0
 21 376 125 547 336 547 c 0
 380 547 431 535 455 517 c 1
 481 459 l 1xdb
 494 533 l 1
 651 533 l 1xeb
289 99 m 0
 360 99 424 140 445 260 c 1
 444 253 l 1
 450 286 l 1
 450 285 l 1
 463 363 441 439 347 439 c 0
 250 439 187 334 187 221 c 0xdb
 187 137 226 99 289 99 c 0
EndSplineSet
EndChar

StartChar: Gcommaaccent
Encoding: 290 290 34
Width: 773
GlyphClass: 2
Flags: MW
HStem: -211 170<189 386 189 386> -14 116<327.5 357.5> 0 21G<529 653 529 529> 237 122<427 546 405 717> 588 116<395.5 497.5>
VStem: 61 167<221.5 380 221.5 404.5> 583 158<455 465 465 465>
AnchorPoint: "Anchor-0" 326 0 basechar 0
LayerCount: 2
Fore
SplineSet
478 704 m 0x5e
 670 704 751 601 741 465 c 1
 740 455 l 1
 583 455 l 1
 583 465 l 1
 582 550 539 588 456 588 c 0
 335 588 228 476 228 284 c 0
 228 159 287 102 368 102 c 0x5e
 448 102 512 149 546 237 c 1
 405 237 l 1
 427 359 l 1
 717 359 l 1
 653 0 l 1
 529 0 l 1x3e
 536 108 l 1
 493 37 l 1
 448 1 395 -14 320 -14 c 0
 159 -14 61 89 61 266 c 0
 61 543 261 704 478 704 c 0x5e
276 -41 m 1xde
 386 -41 l 1
 386 -50 l 1
 273 -211 l 1
 189 -211 l 1
 276 -41 l 1xde
EndSplineSet
Position2: "'cpsp' Capital Spacing in Latin lookup 0 subtable" dx=5 dy=0 dh=10 dv=0
EndChar

StartChar: Hbar
Encoding: 294 294 37
Width: 753
GlyphClass: 2
Flags: MW
HStem: 0 21G<28 185 28 28 487 643 487 487> 277 123<256 536 234 558> 487 86<90 114 75 129 286 573 744 769> 487 203<75 307 75 307 271 271 271 307 150 573 729 765 729 729>
VStem: 28 756<0 573>
LayerCount: 2
Fore
SplineSet
769 487 m 1xd8
 729 487 l 1
 643 0 l 1
 487 0 l 1
 536 277 l 1
 234 277 l 1
 185 0 l 1
 28 0 l 1
 114 487 l 1
 75 487 l 1xd8
 90 573 l 1
 129 573 l 1xe8
 150 690 l 1
 307 690 l 1xd8
 286 573 l 1
 588 573 l 1xe8
 609 690 l 1
 765 690 l 1xd8
 744 573 l 1
 784 573 l 1xe8
 769 487 l 1xd8
573 487 m 1
 271 487 l 1
 256 400 l 1
 558 400 l 1
 573 487 l 1
EndSplineSet
Position2: "'cpsp' Capital Spacing in Latin lookup 0 subtable" dx=5 dy=0 dh=10 dv=0
EndChar

StartChar: hbar
Encoding: 295 295 151
Width: 645
GlyphClass: 2
Flags: MW
HStem: 0 21G<27 184 27 27 388 544 388 388> 439 108<368 504.5> 580 86<90 129 75 144 301 390> 580 160<75 314 75 314 286 286 286 314 157 390>
VStem: 447 164<349.5 450>
LayerCount: 2
Fore
SplineSet
450 547 m 0xd8
 559 547 611 490 611 410 c 0
 611 382 608 355 599 306 c 2
 544 0 l 1
 388 0 l 1
 437 274 l 2
 444 312 447 340 447 359 c 0
 447 407 427 439 368 439 c 0
 305 438 251 380 226 244 c 1
 184 0 l 1
 27 0 l 1
 129 580 l 1
 75 580 l 1xd8
 90 666 l 1
 144 666 l 1xe8
 157 740 l 1
 314 740 l 1xd8
 301 666 l 1
 405 666 l 1xe8
 390 580 l 1
 286 580 l 1
 263 454 l 1
 319 513 l 1
 360 537 400 547 450 547 c 0xd8
EndSplineSet
EndChar

StartChar: Imacron
Encoding: 298 298 45
Width: 295
GlyphClass: 2
Flags: MW
HStem: 0 21G<29 185 29 29> 670 20G<151 307 307 307> 759 85<114 384 99 399>
VStem: 29 370
LayerCount: 2
Fore
SplineSet
384 759 m 1
 99 759 l 1
 114 844 l 1
 399 844 l 1
 384 759 l 1
185 0 m 1
 29 0 l 1
 151 690 l 1
 307 690 l 1
 185 0 l 1
EndSplineSet
Position2: "'cpsp' Capital Spacing in Latin lookup 0 subtable" dx=5 dy=0 dh=10 dv=0
EndChar

StartChar: imacron
Encoding: 299 299 159
Width: 276
GlyphClass: 2
Flags: MW
HStem: 0 21G<13 170 13 13> 513 20G<108 264 264 264> 588 85<70 340 55 355>
VStem: 13 342
LayerCount: 2
Fore
SplineSet
340 588 m 1
 55 588 l 1
 70 673 l 1
 355 673 l 1
 340 588 l 1
170 0 m 1
 13 0 l 1
 108 533 l 1
 264 533 l 1
 170 0 l 1
EndSplineSet
EndChar

StartChar: Iogonek
Encoding: 302 302 46
Width: 295
GlyphClass: 2
Flags: MW
HStem: -223 90<-22.5 106.5> 0 21G<136 185 136 136> 670 20G<151 307 307 307>
VStem: -91 154<-174 -74.5> -91 398
LayerCount: 2
Fore
SplineSet
185 0 m 1x68
 136 0 l 1
 91 -3 63 -56 63 -93 c 0
 63 -123 79 -133 99 -133 c 0
 114 -133 130 -129 148 -117 c 1
 136 -179 l 1
 105 -205 58 -223 5 -223 c 0
 -50 -223 -91 -202 -91 -146 c 0xf0
 -91 -83 -50 -30 29 7 c 1
 30 7 l 1
 151 690 l 1
 307 690 l 1
 185 0 l 1x68
EndSplineSet
Position2: "'cpsp' Capital Spacing in Latin lookup 0 subtable" dx=5 dy=0 dh=10 dv=0
EndChar

StartChar: iogonek
Encoding: 303 303 160
Width: 276
GlyphClass: 2
Flags: MW
HStem: -223 90<-37.5 91.5> 0 21G<121 170 121 121> 513 20G<108 264 264 264> 580 159<191.5 232>
VStem: -106 154<-174 -74.5> 128 167<649.5 670.5>
LayerCount: 2
Fore
SplineSet
222 739 m 0
 267 739 295 713 295 672 c 0
 295 627 263 580 201 580 c 0
 156 580 128 606 128 648 c 0
 128 693 161 739 222 739 c 0
108 533 m 1
 264 533 l 1
 170 0 l 1
 121 0 l 1
 76 -3 48 -56 48 -93 c 0
 48 -123 64 -133 84 -133 c 0
 99 -133 115 -129 133 -117 c 1
 121 -179 l 1
 90 -205 43 -223 -10 -223 c 0
 -65 -223 -106 -202 -106 -146 c 0
 -106 -83 -65 -30 14 7 c 1
 108 533 l 1
EndSplineSet
EndChar

StartChar: Idotaccent
Encoding: 304 304 43
Width: 295
GlyphClass: 2
Flags: MW
HStem: 0 21G<29 185 29 29> 670 20G<151 307 307 307> 726 155<230.5 270>
VStem: 169 163<793.5 814>
LayerCount: 2
Fore
SplineSet
260 881 m 0
 304 881 332 856 332 815 c 0
 332 772 300 726 240 726 c 0
 196 726 169 751 169 792 c 0
 169 836 201 881 260 881 c 0
185 0 m 1
 29 0 l 1
 151 690 l 1
 307 690 l 1
 185 0 l 1
EndSplineSet
Position2: "'cpsp' Capital Spacing in Latin lookup 0 subtable" dx=5 dy=0 dh=10 dv=0
EndChar

StartChar: dotlessi
Encoding: 305 305 153
Width: 276
GlyphClass: 2
Flags: MW
HStem: 0 21G<13 170 13 13> 513 20G<108 264 264 264>
VStem: 13 251
LayerCount: 2
Fore
SplineSet
170 0 m 1
 13 0 l 1
 108 533 l 1
 264 533 l 1
 170 0 l 1
EndSplineSet
EndChar

StartChar: IJ
Encoding: 306 306 39
Width: 903
GlyphClass: 2
Flags: MW
HStem: -14 116<524.5 582.5 524.5 618> 0 21G<29 185 29 29> 670 20G<151 307 307 307 751 907 907 907>
VStem: 311.67 162.33
LayerCount: 2
Fore
SplineSet
185 0 m 1x70
 29 0 l 1
 151 690 l 1
 307 690 l 1
 185 0 l 1x70
907 690 m 1
 837 290 l 2
 832 260 828 238 817 191 c 0
 789 71 707 -14 529 -14 c 0
 371 -14 294 79 315 224 c 1
 319 257 l 1
 476 257 l 1
 472 224 l 1
 462 133 495 102 554 102 c 0
 611 102 646 137 663 200 c 0xb0
 669 223 673 245 678 270 c 2
 751 690 l 1
 907 690 l 1
EndSplineSet
Position2: "'cpsp' Capital Spacing in Latin lookup 0 subtable" dx=5 dy=0 dh=10 dv=0
EndChar

StartChar: ij
Encoding: 307 307 158
Width: 529
GlyphClass: 2
Flags: MW
HStem: -210 112<159 263.5> 0 21G<13 170 13 13> 513 20G<108 264 264 264 367 524 524 524> 580 159<191.5 232 445 490>
VStem: 128 167<649.5 670.5> 382 171<642.5 676.5>
LayerCount: 2
Fore
SplineSet
222 739 m 0
 267 739 295 713 295 672 c 0
 295 627 263 580 201 580 c 0
 156 580 128 606 128 648 c 0
 128 693 161 739 222 739 c 0
474 739 m 0
 525 739 553 713 553 673 c 0
 553 612 519 580 461 580 c 0
 410 580 382 606 382 646 c 0
 382 707 416 739 474 739 c 0
170 0 m 1
 13 0 l 1
 108 533 l 1
 264 533 l 1
 170 0 l 1
524 533 m 1
 430 1 l 2
 427 -20 421 -46 416 -64 c 0
 394 -155 332 -210 195 -210 c 0
 175 -210 156 -209 140 -207 c 1
 159 -98 l 1
 220 -105 250 -91 263 -49 c 0
 267 -35 271 -17 274 1 c 2
 367 533 l 1
 524 533 l 1
EndSplineSet
EndChar

StartChar: Kcommaaccent
Encoding: 310 310 49
Width: 694
GlyphClass: 2
Flags: MW
HStem: -211 170<164 361 164 361> 0 21G<29 185 29 29 451 644 451 451> 670 20G<151 307 307 307 589 776 776 776>
VStem: 29 747<0 690>
AnchorPoint: "Anchor-0" 301 0 basechar 0
LayerCount: 2
Fore
SplineSet
402 354 m 1
 644 0 l 1
 451 0 l 1
 282 275 l 1
 224 222 l 1
 185 0 l 1
 29 0 l 1
 151 690 l 1
 307 690 l 1
 251 376 l 1
 589 690 l 1
 776 690 l 1
 402 354 l 1
251 -41 m 1
 361 -41 l 1
 361 -50 l 1
 248 -211 l 1
 164 -211 l 1
 251 -41 l 1
EndSplineSet
Position2: "'cpsp' Capital Spacing in Latin lookup 0 subtable" dx=5 dy=0 dh=10 dv=0
EndChar

StartChar: Lacute
Encoding: 313 313 51
Width: 607
GlyphClass: 2
Flags: MW
HStem: 0 132<208 540> 670 20G<151 307 307 307> 735 118<188 430 188 430>
VStem: 29 535<0 132>
AnchorPoint: "Anchor-0" 281 0 basechar 0
LayerCount: 2
Fore
SplineSet
274 735 m 1
 188 735 l 1
 290 853 l 1
 430 853 l 1
 274 735 l 1
564 132 m 1
 540 0 l 1
 29 0 l 1
 151 690 l 1
 307 690 l 1
 208 132 l 1
 564 132 l 1
EndSplineSet
Position2: "'cpsp' Capital Spacing in Latin lookup 0 subtable" dx=5 dy=0 dh=10 dv=0
EndChar

StartChar: lacute
Encoding: 314 314 165
Width: 292
GlyphClass: 2
Flags: MW
HStem: -9 105<102 245> 715 20G<140 296 296 296> 779 121<169 414 169 414>
VStem: 27 164<41 135.5> 27 387
AnchorPoint: "Anchor-0" 106 0 basechar 0
LayerCount: 2
Fore
SplineSet
255 779 m 1xe8
 169 779 l 1
 274 900 l 1
 414 900 l 1
 255 779 l 1xe8
296 735 m 1
 198 182 l 2
 193 159 191 142 191 129 c 0
 191 99 206 94 245 96 c 1
 227 -3 l 1
 201 -7 175 -9 140 -9 c 0
 64 -9 27 13 27 69 c 0
 27 96 31 128 40 179 c 2xf0
 140 735 l 1
 296 735 l 1
EndSplineSet
EndChar

StartChar: Lcommaaccent
Encoding: 315 315 53
Width: 607
GlyphClass: 2
Flags: MW
HStem: -211 170<144 341 144 341> 0 132<208 540> 670 20G<151 307 307 307>
VStem: 29 535<0 132>
AnchorPoint: "Anchor-0" 281 0 basechar 0
LayerCount: 2
Fore
SplineSet
564 132 m 1
 540 0 l 1
 29 0 l 1
 151 690 l 1
 307 690 l 1
 208 132 l 1
 564 132 l 1
231 -41 m 1
 341 -41 l 1
 341 -50 l 1
 228 -211 l 1
 144 -211 l 1
 231 -41 l 1
EndSplineSet
Position2: "'cpsp' Capital Spacing in Latin lookup 0 subtable" dx=5 dy=0 dh=10 dv=0
EndChar

StartChar: lcommaaccent
Encoding: 316 316 167
Width: 292
GlyphClass: 2
Flags: MW
HStem: -211 170<-32 166 -32 166> -9 105<102 245> 715 20G<140 296 296 296>
VStem: -32 328 27 164<41 135.5>
AnchorPoint: "Anchor-0" 106 0 basechar 0
LayerCount: 2
Fore
SplineSet
296 735 m 1xf0
 198 182 l 2
 193 159 191 142 191 129 c 0
 191 99 206 94 245 96 c 1
 227 -3 l 1
 201 -7 175 -9 140 -9 c 0
 64 -9 27 13 27 69 c 0
 27 96 31 128 40 179 c 2xe8
 140 735 l 1
 296 735 l 1xf0
166 -50 m 1
 53 -211 l 1
 -32 -211 l 1
 56 -41 l 1
 166 -41 l 1
 166 -50 l 1
EndSplineSet
EndChar

StartChar: Ldot
Encoding: 319 319 54
Width: 607
GlyphClass: 2
Flags: MW
HStem: 0 132<208 540> 320 160<418.5 448.5> 670 20G<151 307 307 307>
VStem: 348 171<386 414>
AnchorPoint: "Anchor-0" 281 0 basechar 0
LayerCount: 2
Fore
SplineSet
564 132 m 1
 540 0 l 1
 29 0 l 1
 151 690 l 1
 307 690 l 1
 208 132 l 1
 564 132 l 1
419 320 m 0
 376 320 348 346 348 388 c 0
 348 440 389 480 448 480 c 0
 491 480 519 454 519 412 c 0
 519 360 478 320 419 320 c 0
EndSplineSet
Ligature2: "Ligature Substitution lookup 6 subtable" L periodcentered
Position2: "'cpsp' Capital Spacing in Latin lookup 0 subtable" dx=5 dy=0 dh=10 dv=0
EndChar

StartChar: ldot
Encoding: 320 320 168
Width: 442
GlyphClass: 2
Flags: MW
HStem: -9 105<102 245> 313 177<356 387> 715 20G<140 296 296 296>
VStem: 27 164<41 135.5> 281 181<388.5 414.5>
AnchorPoint: "Anchor-0" 106 0 basechar 0
LayerCount: 2
Fore
SplineSet
296 735 m 1
 198 182 l 2
 193 159 191 142 191 129 c 0
 191 99 206 94 245 96 c 1
 227 -3 l 1
 201 -7 175 -9 140 -9 c 0
 64 -9 27 13 27 69 c 0
 27 96 31 128 40 179 c 2
 140 735 l 1
 296 735 l 1
387 490 m 0
 429 490 462 466 462 421 c 0
 462 356 418 313 356 313 c 0
 315 313 281 337 281 382 c 0
 281 447 325 490 387 490 c 0
EndSplineSet
Ligature2: "Ligature Substitution lookup 6 subtable" l periodcentered
EndChar

StartChar: Lslash
Encoding: 321 321 55
Width: 648
GlyphClass: 2
Flags: MW
HStem: 0 132<250 582> 670 20G<192 349 349 349>
VStem: 18 587<132 232>
AnchorPoint: "Anchor-0" 322 0 basechar 0
LayerCount: 2
Fore
SplineSet
605 132 m 1
 582 0 l 1
 70 0 l 1
 120 283 l 1
 18 232 l 1
 36 334 l 1
 138 385 l 1
 192 690 l 1
 349 690 l 1
 310 470 l 1
 419 524 l 1
 401 422 l 1
 292 368 l 1
 250 132 l 1
 605 132 l 1
EndSplineSet
Position2: "'cpsp' Capital Spacing in Latin lookup 0 subtable" dx=5 dy=0 dh=10 dv=0
EndChar

StartChar: lslash
Encoding: 322 322 169
Width: 325
GlyphClass: 2
Flags: MW
HStem: -9 105<125.5 269> 715 20G<163 320 320 320>
VStem: 3 328<182 463> 50 164<41 135.5>
AnchorPoint: "Anchor-0" 130 0 basechar 0
LayerCount: 2
Fore
SplineSet
246 319 m 1xe0
 221 182 l 2
 217 159 214 142 214 129 c 0
 214 99 229 94 269 96 c 1
 251 -3 l 1
 225 -7 198 -9 163 -9 c 0
 88 -9 50 13 50 69 c 0
 50 96 55 128 64 179 c 2
 71 221 l 1
 3 182 l 1
 21 288 l 1
 90 327 l 1xd0
 163 735 l 1
 320 735 l 1
 265 426 l 1
 331 463 l 1
 312 357 l 1
 246 319 l 1xe0
EndSplineSet
EndChar

StartChar: Nacute
Encoding: 323 323 58
Width: 769
GlyphClass: 2
Flags: MW
HStem: 0 21G<29 185 29 29 450 659 450 450> 670 20G<151 352 352 352 624 781 781 781> 735 118<429 671 429 671>
VStem: 29 752<0 690>
AnchorPoint: "Anchor-0" 348 0 basechar 0
LayerCount: 2
Fore
SplineSet
515 735 m 1
 429 735 l 1
 531 853 l 1
 671 853 l 1
 515 735 l 1
781 690 m 1
 659 0 l 1
 450 0 l 1
 272 494 l 1
 185 0 l 1
 29 0 l 1
 151 690 l 1
 352 690 l 1
 535 181 l 1
 624 690 l 1
 781 690 l 1
EndSplineSet
Position2: "'cpsp' Capital Spacing in Latin lookup 0 subtable" dx=5 dy=0 dh=10 dv=0
EndChar

StartChar: Ncaron
Encoding: 327 327 59
Width: 769
GlyphClass: 2
Flags: MW
HStem: 0 21G<29 185 29 29 450 659 450 450> 670 20G<151 352 352 352 624 781 781 781> 735 118<415 415 415 467 532 542>
VStem: 29 752<0 690>
AnchorPoint: "Anchor-0" 348 0 basechar 0
LayerCount: 2
Fore
SplineSet
415 735 m 1
 373 853 l 1
 467 853 l 1
 487 785 l 1
 532 853 l 1
 626 853 l 1
 542 735 l 1
 415 735 l 1
781 690 m 1
 659 0 l 1
 450 0 l 1
 272 494 l 1
 185 0 l 1
 29 0 l 1
 151 690 l 1
 352 690 l 1
 535 181 l 1
 624 690 l 1
 781 690 l 1
EndSplineSet
Position2: "'cpsp' Capital Spacing in Latin lookup 0 subtable" dx=5 dy=0 dh=10 dv=0
EndChar

StartChar: ncaron
Encoding: 328 328 173
Width: 631
GlyphClass: 2
Flags: MW
HStem: 0 21G<13 170 13 13 374 530 374 374> 439 94<107 383.5> 439 108<354 490.5> 572 121<309 309 309 361 427 435>
VStem: 433 164<349.5 450>
AnchorPoint: "Anchor-0" 269 0 basechar 0
LayerCount: 2
Fore
SplineSet
309 572 m 1xd8
 267 693 l 1
 361 693 l 1
 381 624 l 1
 427 693 l 1
 520 693 l 1
 435 572 l 1
 309 572 l 1xd8
436 547 m 0xb8
 545 547 597 490 597 410 c 0
 597 382 594 355 585 306 c 2
 530 0 l 1
 374 0 l 1
 423 274 l 2
 429 312 433 340 433 359 c 0
 433 407 413 439 354 439 c 0
 290 438 237 380 212 244 c 1
 170 0 l 1
 13 0 l 1
 107 533 l 1
 263 533 l 1
 249 454 l 1xd8
 305 513 l 1
 345 537 386 547 436 547 c 0xb8
EndSplineSet
EndChar

StartChar: Eng
Encoding: 330 330 61
Width: 769
GlyphClass: 2
Flags: MW
HStem: 0 21G<30 186 30 30> 670 20G<151 352 352 352 624 781 781 781>
VStem: 30 751<0 690>
LayerCount: 2
Fore
SplineSet
781 690 m 1
 649 -60 l 2
 627 -187 588 -223 390 -223 c 1
 410 -107 l 1
 470 -102 488 -82 495 -46 c 2
 499 -23 l 1
 269 492 l 1
 186 0 l 1
 30 0 l 1
 151 690 l 1
 352 690 l 1
 546 222 l 1
 624 690 l 1
 781 690 l 1
EndSplineSet
Position2: "'cpsp' Capital Spacing in Latin lookup 0 subtable" dx=5 dy=0 dh=10 dv=0
EndChar

StartChar: eng
Encoding: 331 331 175
Width: 631
GlyphClass: 2
Flags: MW
HStem: -174 116<290 319 290 345> 0 21G<13 170 13 13> 439 94<107 383.5> 439 108<354 490.5>
VStem: 433 164<349.5 450>
LayerCount: 2
Fore
SplineSet
436 547 m 0xd8
 545 547 597 490 597 410 c 0
 597 382 594 355 585 306 c 2
 527 -18 l 2
 523 -39 520 -51 515 -65 c 0
 481 -155 420 -174 270 -174 c 1
 290 -58 l 1
 348 -58 365 -43 372 -9 c 2
 423 274 l 2
 429 312 433 340 433 359 c 0
 433 407 413 439 354 439 c 0
 290 438 237 380 212 244 c 1
 170 0 l 1
 13 0 l 1
 107 533 l 1
 263 533 l 1
 249 454 l 1xe8
 305 513 l 1
 345 537 386 547 436 547 c 0xd8
EndSplineSet
EndChar

StartChar: Omacron
Encoding: 332 332 69
Width: 793
GlyphClass: 2
Flags: MW
HStem: -14 116<338 465.5 338 498.5> 588 116<377 505> 759 85<369 639 354 654>
VStem: 64 166<234 357 234 408.5> 613 166<333 456.5>
LayerCount: 2
Fore
SplineSet
639 759 m 1
 354 759 l 1
 369 844 l 1
 654 844 l 1
 639 759 l 1
462 704 m 0
 666 704 779 574 779 405 c 0
 779 159 616 -14 381 -14 c 0
 177 -14 64 116 64 285 c 0
 64 532 227 704 462 704 c 0
390 102 m 0
 541 102 613 265 613 401 c 0
 613 512 557 588 453 588 c 0
 301 588 230 425 230 289 c 0
 230 179 286 102 390 102 c 0
EndSplineSet
Position2: "'cpsp' Capital Spacing in Latin lookup 0 subtable" dx=5 dy=0 dh=10 dv=0
EndChar

StartChar: omacron
Encoding: 333 333 183
Width: 626
GlyphClass: 2
Flags: MW
HStem: -14 108<256 339 256 387> 439 108<288.5 371.5> 588 85<243 513 228 528>
VStem: 24 166<189 280 189 305.5> 437 166<254 344.5>
LayerCount: 2
Fore
SplineSet
513 588 m 1
 228 588 l 1
 243 673 l 1
 528 673 l 1
 513 588 l 1
350 547 m 0
 520 547 603 446 603 310 c 0
 603 145 496 -14 278 -14 c 0
 107 -14 24 87 24 223 c 0
 24 388 131 547 350 547 c 0
290 94 m 0
 388 94 437 201 437 307 c 0
 437 382 406 439 337 439 c 0
 240 439 190 333 190 227 c 0
 190 151 222 94 290 94 c 0
EndSplineSet
EndChar

StartChar: Ohungarumlaut
Encoding: 336 336 68
Width: 793
GlyphClass: 2
Flags: MW
HStem: -14 116<338 465.5 338 498.5> 588 116<377 505> 736 117<330 573 330 573 516 573 433 602 516 516>
VStem: 64 166<234 357 234 408.5> 613 166<333 456.5>
LayerCount: 2
Fore
SplineSet
416 736 m 1
 330 736 l 1
 433 853 l 1
 573 853 l 1
 416 736 l 1
516 736 m 1
 618 853 l 1
 758 853 l 1
 602 736 l 1
 516 736 l 1
462 704 m 0
 666 704 779 574 779 405 c 0
 779 159 616 -14 381 -14 c 0
 177 -14 64 116 64 285 c 0
 64 532 227 704 462 704 c 0
390 102 m 0
 541 102 613 265 613 401 c 0
 613 512 557 588 453 588 c 0
 301 588 230 425 230 289 c 0
 230 179 286 102 390 102 c 0
EndSplineSet
Position2: "'cpsp' Capital Spacing in Latin lookup 0 subtable" dx=5 dy=0 dh=10 dv=0
EndChar

StartChar: ohungarumlaut
Encoding: 337 337 182
Width: 626
GlyphClass: 2
Flags: MW
HStem: -14 108<256 339 256 387> 439 108<288.5 371.5> 572 121<208 453 208 453 397 453 313 483 397 397>
VStem: 24 166<189 280 189 305.5> 437 166<254 344.5>
LayerCount: 2
Fore
SplineSet
294 572 m 1
 208 572 l 1
 313 693 l 1
 453 693 l 1
 294 572 l 1
397 572 m 1
 502 693 l 1
 642 693 l 1
 483 572 l 1
 397 572 l 1
350 547 m 0xf8
 520 547 603 446 603 310 c 0
 603 145 496 -14 278 -14 c 0
 107 -14 24 87 24 223 c 0
 24 388 131 547 350 547 c 0xf8
290 94 m 0
 388 94 437 201 437 307 c 0
 437 382 406 439 337 439 c 0
 240 439 190 333 190 227 c 0
 190 151 222 94 290 94 c 0
EndSplineSet
EndChar

StartChar: OE
Encoding: 338 338 72
Width: 1138
GlyphClass: 2
Flags: MW
HStem: -14 116<333.5 372.5> 0 123<726 1059> 285 122<776 1077 754 1098> 568 122<804 804 804 1149> 588 116<382 499.5 321.5 537>
VStem: 61 164<220 351.5 220 377>
LayerCount: 2
Fore
SplineSet
804 568 m 1x74
 776 407 l 1
 1098 407 l 1
 1077 285 l 1
 754 285 l 1
 726 123 l 1
 1081 123 l 1
 1059 0 l 1
 547 0 l 1x74
 567 111 l 1
 525 44 l 1
 465 -1 417 -14 328 -14 c 0
 172 -14 61 82 61 276 c 0
 61 478 189 704 454 704 c 0
 545 704 588 691 631 647 c 1xac
 650 580 l 1
 669 690 l 1
 1171 690 l 1
 1149 568 l 1
 804 568 l 1x74
381 102 m 0xac
 495 102 580 193 608 345 c 1
 628 466 607 588 467 588 c 0
 297 588 225 420 225 283 c 0
 225 157 286 102 381 102 c 0xac
EndSplineSet
Position2: "'cpsp' Capital Spacing in Latin lookup 0 subtable" dx=5 dy=0 dh=10 dv=0
EndChar

StartChar: oe
Encoding: 339 339 186
Width: 994
GlyphClass: 2
Flags: MW
HStem: -14 108<249.5 302 642 696> 226 99<603 812 603 954 580 812> 436 108<283.5 371.5 719.5 756.5>
VStem: 22 163<178.5 260 178.5 282> 436 143<161.5 356.5> 814 158<342 374.5>
LayerCount: 2
Fore
SplineSet
954 226 m 1
 580 226 l 1
 579 215 579 207 579 202 c 0
 579 121 616 94 668 94 c 0
 724 94 767 124 784 174 c 1
 939 174 l 1
 889 51 785 -14 651 -14 c 0
 576 -14 510 13 477 85 c 1
 421 15 343 -14 261 -14 c 0
 108 -14 22 72 22 211 c 0
 22 353 116 544 352 544 c 0
 440 544 508 514 542 443 c 1
 600 514 677 544 762 544 c 0
 904 544 972 450 972 333 c 0
 972 296 965 257 954 226 c 1
280 94 m 0
 394 94 436 235 436 322 c 0
 436 391 402 436 341 436 c 0
 226 436 185 305 185 215 c 0
 185 142 219 94 280 94 c 0
730 436 m 0
 673 436 628 402 603 325 c 1
 812 325 l 1
 814 334 814 340 814 344 c 0
 814 405 783 436 730 436 c 0
EndSplineSet
EndChar

StartChar: Racute
Encoding: 340 340 77
Width: 655
GlyphClass: 2
Flags: MW
HStem: 0 21G<29 185 29 29 426 596 426 426> 271 115<253 296 233 336> 568 122<285 373 285 285> 735 118<352 594 352 594>
VStem: 418 157<162 189 100.5 194.5> 500 171<480.5 520>
AnchorPoint: "Anchor-0" 269 0 basechar 0
LayerCount: 2
Fore
SplineSet
438 735 m 1xf8
 352 735 l 1
 454 853 l 1
 594 853 l 1
 438 735 l 1xf8
671 535 m 0xf4
 671 426 605 358 494 330 c 1
 555 307 575 250 575 128 c 0
 575 73 582 31 596 0 c 1
 426 0 l 1
 421 35 419 71 418 162 c 0
 418 227 397 267 351 270 c 0xf8
 332 271 315 271 296 271 c 2
 233 271 l 1
 185 0 l 1
 29 0 l 1
 151 690 l 1
 413 690 l 2
 454 690 481 689 516 685 c 0
 602 675 671 631 671 535 c 0xf4
389 387 m 0
 447 392 500 420 500 496 c 0
 500 544 469 562 426 566 c 0
 412 567 395 568 373 568 c 2
 285 568 l 1
 253 386 l 1
 336 386 l 2
 358 386 374 386 389 387 c 0
EndSplineSet
Position2: "'cpsp' Capital Spacing in Latin lookup 0 subtable" dx=5 dy=0 dh=10 dv=0
EndChar

StartChar: racute
Encoding: 341 341 191
Width: 393
GlyphClass: 2
Flags: MW
HStem: 0 21G<13 170 13 13> 523 20G<443 443> 527 20G<388 412> 572 121<207 452 207 452>
VStem: 13 439
AnchorPoint: "Anchor-0" 91 0 basechar 0
LayerCount: 2
Fore
SplineSet
293 572 m 1x98
 207 572 l 1
 312 693 l 1
 452 693 l 1
 293 572 l 1x98
245 430 m 1
 300 505 l 1
 331 533 372 547 404 547 c 0xb8
 420 547 431 545 443 543 c 1xd8
 421 416 l 1
 327 425 241 398 209 223 c 1
 170 0 l 1
 13 0 l 1
 106 530 l 1
 263 530 l 1
 245 430 l 1
EndSplineSet
EndChar

StartChar: rcommaaccent
Encoding: 343 343 193
Width: 393
GlyphClass: 2
Flags: MW
HStem: -211 170<-47 151 -47 151> 0 21G<13 170 13 13> 523 20G<443 443> 527 20G<388 412>
VStem: -47 490
AnchorPoint: "Anchor-0" 91 0 basechar 0
LayerCount: 2
Fore
SplineSet
404 547 m 0xd8
 420 547 431 545 443 543 c 1xe8
 421 416 l 1
 327 425 241 398 209 223 c 1
 170 0 l 1
 13 0 l 1
 106 530 l 1
 263 530 l 1
 245 430 l 1
 300 505 l 1
 331 533 372 547 404 547 c 0xd8
41 -41 m 1
 151 -41 l 1
 151 -50 l 1
 38 -211 l 1
 -47 -211 l 1
 41 -41 l 1
EndSplineSet
EndChar

StartChar: rcaron
Encoding: 345 345 192
Width: 393
GlyphClass: 2
Flags: MW
HStem: 0 21G<13 170 13 13> 523 20G<443 443> 527 20G<388 412> 572 121<194 194 194 246 312 320>
VStem: 13 430
AnchorPoint: "Anchor-0" 91 0 basechar 0
LayerCount: 2
Fore
SplineSet
194 572 m 1x98
 152 693 l 1
 246 693 l 1
 266 624 l 1
 312 693 l 1
 405 693 l 1
 320 572 l 1
 194 572 l 1x98
404 547 m 0xb8
 420 547 431 545 443 543 c 1xd8
 421 416 l 1
 327 425 241 398 209 223 c 1
 170 0 l 1
 13 0 l 1
 106 530 l 1
 263 530 l 1
 245 430 l 1
 300 505 l 1
 331 533 372 547 404 547 c 0xb8
EndSplineSet
EndChar

StartChar: Sacute
Encoding: 346 346 81
Width: 612
GlyphClass: 2
Flags: MW
HStem: -14 116<256.5 320 256.5 350> -14 221<16 350> 483 221<450 461 301 608 450 450> 588 116<330 391> 735 118<329 571 329 571>
VStem: 91 169<480 529.5 480 542> 404 169<165 212.5> 450 158<483 483>
AnchorPoint: "Anchor-0" 263 0 basechar 0
LayerCount: 2
Fore
SplineSet
415 735 m 1x9e
 329 735 l 1
 431 853 l 1
 571 853 l 1
 415 735 l 1x9e
375 704 m 0x9d
 547 704 615 608 608 483 c 1xad
 450 483 l 1x9d
 454 547 424 588 358 588 c 0
 302 588 260 558 260 501 c 0
 260 459 294 432 390 409 c 0
 516 378 573 315 573 223 c 0
 573 69 430 -14 270 -14 c 0x9e
 109 -14 2 58 16 207 c 1x5e
 174 207 l 1
 175 136 225 102 288 102 c 0
 352 102 404 137 404 193 c 0x9e
 404 232 372 264 293 285 c 0
 167 317 91 364 91 466 c 0
 91 618 227 704 375 704 c 0x9d
EndSplineSet
Position2: "'cpsp' Capital Spacing in Latin lookup 0 subtable" dx=5 dy=0 dh=10 dv=0
EndChar

StartChar: Scedilla
Encoding: 350 350 83
Width: 612
GlyphClass: 2
Flags: MW
HStem: -210 62<186.5 214 183.5 244.5> -86 188<168 320> -11 21G<218 218> 483 221<450 461 301 608 450 450> 588 116<330 391>
VStem: 91 169<480 529.5 480 542> 259 96<-124.5 -101.5> 404 169<165 212.5> 450 158<483 483>
AnchorPoint: "Anchor-0" 263 0 basechar 0
LayerCount: 2
Fore
SplineSet
608 483 m 1xb480
 450 483 l 1
 454 547 424 588 358 588 c 0
 302 588 260 558 260 501 c 0xac80
 260 459 294 432 390 409 c 0
 516 378 573 315 573 223 c 0
 573 77 445 -5 295 -13 c 1
 276 -42 l 1
 328 -50 355 -74 355 -112 c 0
 355 -180 285 -210 204 -210 c 0
 169 -210 143 -208 126 -203 c 1
 138 -141 l 1
 157 -147 174 -148 193 -148 c 0
 235 -148 259 -135 259 -114 c 0
 259 -89 221 -81 168 -86 c 1xcb
 218 -11 l 1xab
 87 3 4 75 16 207 c 1
 174 207 l 1
 175 136 225 102 288 102 c 0
 352 102 404 137 404 193 c 0xcd
 404 232 372 264 293 285 c 0
 167 317 91 364 91 466 c 0
 91 618 227 704 375 704 c 0xac80
 547 704 615 608 608 483 c 1xb480
EndSplineSet
Substitution2: "'locl' Localized Forms in Latin lookup 2 subtable" Scommaaccent
Substitution2: "'locl' Localized Forms in Latin lookup 1 subtable" Scommaaccent
Substitution2: "'aalt' Access All Alternates in Latin lookup 0 subtable" Scommaaccent
Position2: "'cpsp' Capital Spacing in Latin lookup 0 subtable" dx=5 dy=0 dh=10 dv=0
EndChar

StartChar: scedilla
Encoding: 351 351 197
Width: 499
GlyphClass: 2
Flags: MW
HStem: -210 62<125.5 153 122.5 183.5> -86 244<107 107> -14 21G<155 155> 375 169<333 348 199.5 487 333 333> 444 100<249.5 288>
VStem: 46 164<376 408.5 376 420.5> 198 96<-124.5 -101.5> 301 164<118.5 154.5> 333 154<375 375>
AnchorPoint: "Anchor-0" 201 0 basechar 0
LayerCount: 2
Fore
SplineSet
315 314 m 0xad
 419 280 465 235 465 153 c 0xc9
 465 45 368 -18 229 -20 c 1
 214 -42 l 1
 267 -50 294 -74 294 -112 c 0
 294 -180 224 -210 143 -210 c 0
 108 -210 82 -208 65 -203 c 1
 77 -141 l 1
 96 -147 113 -148 132 -148 c 0
 174 -148 198 -135 198 -114 c 0
 198 -89 160 -81 107 -86 c 1xca80
 155 -14 l 1xaa80
 50 4 -7 66 -12 158 c 1
 144 158 l 1
 149 102 185 81 230 81 c 0
 271 81 301 100 301 137 c 0xc9
 301 172 276 193 187 223 c 0
 101 253 46 287 46 375 c 0
 46 466 124 544 275 544 c 0xac80
 421 544 482 472 487 375 c 1
 333 375 l 1xb280
 328 419 307 444 269 444 c 0
 230 444 210 422 210 395 c 0
 210 357 234 341 315 314 c 0xad
EndSplineSet
Substitution2: "'locl' Localized Forms in Latin lookup 2 subtable" scommaaccent
Substitution2: "'locl' Localized Forms in Latin lookup 1 subtable" scommaaccent
Substitution2: "'aalt' Access All Alternates in Latin lookup 0 subtable" scommaaccent
EndChar

StartChar: Scaron
Encoding: 352 352 82
Width: 612
GlyphClass: 2
Flags: MW
HStem: -14 116<256.5 320 256.5 350> -14 221<16 350> 483 221<450 461 301 608 450 450> 588 116<330 391> 735 118<316 316 316 368 433 443>
VStem: 91 169<480 529.5 480 542> 404 169<165 212.5> 450 158<483 483>
AnchorPoint: "Anchor-0" 263 0 basechar 0
LayerCount: 2
Fore
SplineSet
316 735 m 1x9e
 274 853 l 1
 368 853 l 1
 388 785 l 1
 433 853 l 1
 527 853 l 1
 443 735 l 1
 316 735 l 1x9e
608 483 m 1xad
 450 483 l 1x9d
 454 547 424 588 358 588 c 0
 302 588 260 558 260 501 c 0
 260 459 294 432 390 409 c 0
 516 378 573 315 573 223 c 0
 573 69 430 -14 270 -14 c 0x9e
 109 -14 2 58 16 207 c 1x5e
 174 207 l 1
 175 136 225 102 288 102 c 0
 352 102 404 137 404 193 c 0x9e
 404 232 372 264 293 285 c 0
 167 317 91 364 91 466 c 0
 91 618 227 704 375 704 c 0x9d
 547 704 615 608 608 483 c 1xad
EndSplineSet
Position2: "'cpsp' Capital Spacing in Latin lookup 0 subtable" dx=5 dy=0 dh=10 dv=0
EndChar

StartChar: scaron
Encoding: 353 353 196
Width: 499
GlyphClass: 2
Flags: MW
HStem: -20 101<207.5 250.5 207.5 295> 375 169<333 348 199.5 487 333 333> 444 100<249.5 288> 572 121<239 239 239 291 357 365>
VStem: 46 164<376 408.5 376 420.5> 301 164<118.5 154.5> 333 154<375 375>
AnchorPoint: "Anchor-0" 201 0 basechar 0
LayerCount: 2
Fore
SplineSet
239 572 m 1x9c
 197 693 l 1
 291 693 l 1
 311 624 l 1
 357 693 l 1
 450 693 l 1
 365 572 l 1
 239 572 l 1x9c
315 314 m 0
 419 280 465 235 465 153 c 0
 465 44 366 -20 224 -20 c 0
 76 -20 -6 47 -12 158 c 1
 144 158 l 1
 149 102 185 81 230 81 c 0
 271 81 301 100 301 137 c 0x9c
 301 172 276 193 187 223 c 0
 101 253 46 287 46 375 c 0
 46 466 124 544 275 544 c 0xba
 421 544 482 472 487 375 c 1
 333 375 l 1xda
 328 419 307 444 269 444 c 0
 230 444 210 422 210 395 c 0xbc
 210 357 234 341 315 314 c 0
EndSplineSet
EndChar

StartChar: Tcedilla
Encoding: 354 354 88
Width: 627
GlyphClass: 2
Flags: MW
HStem: -210 62<203.5 231 200.5 261.5> 0 21G<202 242 202 202 321 358 321 321> 568 122<94 302 72 710 458 458 458 687>
VStem: 276 96<-124.5 -101.5>
AnchorPoint: "Anchor-0" 280 0 basechar 0
LayerCount: 2
Fore
SplineSet
321 0 m 1
 292 -42 l 1
 345 -50 372 -74 372 -112 c 0
 372 -180 302 -210 221 -210 c 0
 186 -210 160 -208 143 -203 c 1
 155 -141 l 1
 174 -147 191 -148 210 -148 c 0
 252 -148 276 -135 276 -114 c 0
 276 -89 238 -81 185 -86 c 1
 242 0 l 1
 202 0 l 1
 302 568 l 1
 72 568 l 1
 94 690 l 1
 710 690 l 1
 687 568 l 1
 458 568 l 1
 358 0 l 1
 321 0 l 1
EndSplineSet
Substitution2: "'locl' Localized Forms in Latin lookup 2 subtable" uni021A
Substitution2: "'locl' Localized Forms in Latin lookup 1 subtable" uni021A
Substitution2: "'aalt' Access All Alternates in Latin lookup 0 subtable" uni021A
Position2: "'cpsp' Capital Spacing in Latin lookup 0 subtable" dx=5 dy=0 dh=10 dv=0
EndChar

StartChar: tcedilla
Encoding: 355 355 203
Width: 372
GlyphClass: 2
Flags: MW
HStem: -210 62<83.5 111 80.5 141.5> -13 110.05 -13 113<192 320> -4 21G<119 119> 429 100<52 111 34 129 286 378>
VStem: 57 165<61.5 153.5> 156 96<-124.5 -101.5>
AnchorPoint: "Anchor-0" 159 0 basechar 0
LayerCount: 2
Fore
SplineSet
269 429 m 1x9a
 229 205 l 2
 223 176 222 162 222 145 c 0xcc
 222 101 252 91 320 100 c 1xac
 302 -1 l 1
 266 -9 231 -13 192 -13 c 1xcc
 172 -42 l 1
 225 -50 252 -74 252 -112 c 0
 252 -180 182 -210 101 -210 c 0
 66 -210 40 -208 23 -203 c 1
 35 -141 l 1
 54 -147 71 -148 90 -148 c 0
 132 -148 156 -135 156 -114 c 0
 156 -89 118 -81 65 -86 c 1xca
 119 -4 l 1
 75 10 57 39 57 84 c 0
 57 106 60 135 68 184 c 2
 111 429 l 1
 34 429 l 1
 52 529 l 1
 129 529 l 1
 153 663 l 1x9c
 310 663 l 1
 286 529 l 1
 396 529 l 1
 378 429 l 1
 269 429 l 1x9a
EndSplineSet
Substitution2: "'locl' Localized Forms in Latin lookup 2 subtable" uni021B
Substitution2: "'locl' Localized Forms in Latin lookup 1 subtable" uni021B
Substitution2: "'aalt' Access All Alternates in Latin lookup 0 subtable" uni021B
EndChar

StartChar: Tcaron
Encoding: 356 356 87
Width: 627
GlyphClass: 2
Flags: MW
HStem: 0 21G<202 358 202 202> 568 122<94 302 72 710 458 687 458 458> 735 118<348 348 348 400 465 475>
VStem: 72 638<568 690>
AnchorPoint: "Anchor-0" 280 0 basechar 0
LayerCount: 2
Fore
SplineSet
348 735 m 1
 306 853 l 1
 400 853 l 1
 420 785 l 1
 465 853 l 1
 559 853 l 1
 475 735 l 1
 348 735 l 1
687 568 m 1
 458 568 l 1
 358 0 l 1
 202 0 l 1
 302 568 l 1
 72 568 l 1
 94 690 l 1
 710 690 l 1
 687 568 l 1
EndSplineSet
Position2: "'cpsp' Capital Spacing in Latin lookup 0 subtable" dx=5 dy=0 dh=10 dv=0
EndChar

StartChar: tcaron
Encoding: 357 357 202
Width: 372
GlyphClass: 2
Flags: MW
HStem: -13 110.05 -13 113<143.5 320> 429 100<52 111 34 129 286 378> 576 87<153 413 153 329> 576 170<329 527 329 527>
VStem: 34 493<429 746> 57 165<51.5 153.5>
AnchorPoint: "Anchor-0" 159 0 basechar 0
LayerCount: 2
Fore
SplineSet
527 746 m 1xac
 527 737 l 1
 413 576 l 1
 329 576 l 1
 416 746 l 1
 527 746 l 1xac
286 529 m 1
 396 529 l 1
 378 429 l 1
 269 429 l 1
 229 205 l 2
 223 176 222 162 222 145 c 0xaa
 222 101 252 91 320 100 c 1x6a
 302 -1 l 1
 266 -9 231 -13 192 -13 c 0
 95 -13 57 19 57 84 c 0
 57 106 60 135 68 184 c 2
 111 429 l 1
 34 429 l 1
 52 529 l 1
 129 529 l 1
 153 663 l 1xb2
 310 663 l 1xb4
 286 529 l 1
EndSplineSet
EndChar

StartChar: Tbar
Encoding: 358 358 86
Width: 655
GlyphClass: 2
Flags: MW
HStem: 0 21G<202 358 202 202> 296 86<179 254 163 270 426 511> 568 122<94 302 72 710 458 687 458 458>
VStem: 72 638<568 690>
AnchorPoint: "Anchor-0" 280 0 basechar 0
LayerCount: 2
Fore
SplineSet
458 568 m 1
 426 382 l 1
 526 382 l 1
 511 296 l 1
 410 296 l 1
 358 0 l 1
 202 0 l 1
 254 296 l 1
 163 296 l 1
 179 382 l 1
 270 382 l 1
 302 568 l 1
 72 568 l 1
 94 690 l 1
 710 690 l 1
 687 568 l 1
 458 568 l 1
EndSplineSet
Position2: "'cpsp' Capital Spacing in Latin lookup 0 subtable" dx=5 dy=0 dh=10 dv=0
EndChar

StartChar: umacron
Encoding: 363 363 211
Width: 626
GlyphClass: 2
Flags: MW
HStem: -14 109<137 305> 0 95<273 520 273 364> 513 20G<97 254 254 254 458 614 614 614> 588 85<255 525 240 540>
VStem: 30 164<83 183.5>
LayerCount: 2
Fore
SplineSet
525 588 m 1x78
 240 588 l 1
 255 673 l 1
 540 673 l 1
 525 588 l 1x78
614 533 m 1
 520 0 l 1
 364 0 l 1
 378 79 l 1x78
 322 20 l 1
 282 -4 242 -14 191 -14 c 0xb8
 83 -14 30 43 30 123 c 0
 30 151 33 178 42 228 c 2
 97 533 l 1
 254 533 l 1
 204 259 l 2
 198 222 194 193 194 174 c 0
 194 127 215 94 273 95 c 1
 337 95 391 153 415 289 c 2
 458 533 l 1
 614 533 l 1
EndSplineSet
EndChar

StartChar: Uring
Encoding: 366 366 98
Width: 710
GlyphClass: 2
Flags: MW
HStem: -14 116<310.5 386 310.5 434> 670 20G<150 306 306 306 582 738 738 738> 721 58<450.5 472 450.5 489.5> 859 59<462 483.5>
VStem: 69 156<172 203.5> 353 76<801 825 801 839.5> 505 76<813.5 837>
LayerCount: 2
Fore
SplineSet
482 918 m 0
 541 918 581 880 581 832 c 0
 581 765 527 721 452 721 c 0
 392 721 353 758 353 806 c 0
 353 873 407 918 482 918 c 0
474 859 m 0
 450 859 429 840 429 810 c 0
 429 792 441 779 460 779 c 0
 484 779 505 799 505 828 c 0
 505 846 493 859 474 859 c 0
738 690 m 1
 671 306 l 2
 664 267 660 246 651 210 c 0
 619 76 534 -14 334 -14 c 0
 154 -14 69 69 69 186 c 0
 69 221 73 252 84 315 c 2
 150 690 l 1
 306 690 l 1
 232 270 l 2
 227 242 225 225 225 205 c 0
 225 139 275 102 346 102 c 0
 426 102 475 132 498 222 c 0
 502 236 504 249 508 268 c 2
 582 690 l 1
 738 690 l 1
EndSplineSet
Position2: "'cpsp' Capital Spacing in Latin lookup 0 subtable" dx=5 dy=0 dh=10 dv=0
EndChar

StartChar: uring
Encoding: 367 367 213
Width: 626
GlyphClass: 2
Flags: MW
HStem: -14 109<137 305> 0 95<273 520 273 364> 513 20G<97 254 254 254 458 614 614 614> 567 58<379.5 405 379.5 419.5> 711 58<387 412.5>
VStem: 30 164<83 183.5> 282 76<647 668 647 686> 434 76<667.5 689>
LayerCount: 2
Fore
SplineSet
381 567 m 0x7f
 320 567 282 599 282 653 c 0
 282 719 334 769 413 769 c 0
 472 769 510 737 510 683 c 0
 510 616 458 567 381 567 c 0x7f
403 711 m 0
 371 711 358 679 358 657 c 0
 358 637 370 625 389 625 c 0
 421 625 434 656 434 679 c 0
 434 699 422 711 403 711 c 0
614 533 m 1
 520 0 l 1
 364 0 l 1
 378 79 l 1x7f
 322 20 l 1
 282 -4 242 -14 191 -14 c 0xbf
 83 -14 30 43 30 123 c 0
 30 151 33 178 42 228 c 2
 97 533 l 1
 254 533 l 1
 204 259 l 2
 198 222 194 193 194 174 c 0
 194 127 215 94 273 95 c 1
 337 95 391 153 415 289 c 2
 458 533 l 1
 614 533 l 1
EndSplineSet
EndChar

StartChar: Uhungarumlaut
Encoding: 368 368 95
Width: 710
GlyphClass: 2
Flags: MW
HStem: -14 116<310.5 386 310.5 434> 670 20G<150 306 306 306 582 738 738 738> 736 117<289 532 289 532 475 475 475 532 392 561>
VStem: 69 156<172 203.5>
LayerCount: 2
Fore
SplineSet
375 736 m 1
 289 736 l 1
 392 853 l 1
 532 853 l 1
 375 736 l 1
561 736 m 1
 475 736 l 1
 577 853 l 1
 717 853 l 1
 561 736 l 1
738 690 m 1
 671 306 l 2
 664 267 660 246 651 210 c 0
 619 76 534 -14 334 -14 c 0
 154 -14 69 69 69 186 c 0
 69 221 73 252 84 315 c 2
 150 690 l 1
 306 690 l 1
 232 270 l 2
 227 242 225 225 225 205 c 0
 225 139 275 102 346 102 c 0
 426 102 475 132 498 222 c 0
 502 236 504 249 508 268 c 2
 582 690 l 1
 738 690 l 1
EndSplineSet
Position2: "'cpsp' Capital Spacing in Latin lookup 0 subtable" dx=5 dy=0 dh=10 dv=0
EndChar

StartChar: uhungarumlaut
Encoding: 369 369 210
Width: 626
GlyphClass: 2
Flags: MW
HStem: -14 109<137 305> 0 95<273 520 273 364> 513 20G<97 254 254 254 458 614 614 614> 572 121<220 465 220 465 409 465 325 495 409 409>
VStem: 30 164<83 183.5>
LayerCount: 2
Fore
SplineSet
306 572 m 1x78
 220 572 l 1
 325 693 l 1
 465 693 l 1
 306 572 l 1x78
409 572 m 1
 514 693 l 1
 654 693 l 1
 495 572 l 1
 409 572 l 1
458 533 m 1
 614 533 l 1
 520 0 l 1
 364 0 l 1
 378 79 l 1x78
 322 20 l 1
 282 -4 242 -14 191 -14 c 0xb8
 83 -14 30 43 30 123 c 0
 30 151 33 178 42 228 c 2
 97 533 l 1
 254 533 l 1
 204 259 l 2
 198 222 194 193 194 174 c 0
 194 127 215 94 273 95 c 1
 337 95 391 153 415 289 c 2
 458 533 l 1
EndSplineSet
EndChar

StartChar: Uogonek
Encoding: 370 370 97
Width: 710
GlyphClass: 2
Flags: MW
HStem: -223 90<280.5 409.5> -13 21G -13 115 670 20G<150 306 306 306 582 738 738 738>
VStem: 69 156<172 203.5> 212 154<-174 -78.5>
LayerCount: 2
Fore
SplineSet
738 690 m 1x58
 671 306 l 2
 664 267 660 246 651 210 c 0
 623 95 557 12 411 -9 c 1
 383 -26 366 -64 366 -93 c 0
 366 -123 382 -133 402 -133 c 0
 417 -133 433 -129 451 -117 c 1
 439 -179 l 1
 408 -205 361 -223 308 -223 c 0
 253 -223 212 -202 212 -146 c 0xd4
 212 -93 241 -48 296 -13 c 1
 142 -2 69 78 69 186 c 0
 69 221 73 252 84 315 c 2
 150 690 l 1
 306 690 l 1
 232 270 l 2
 227 242 225 225 225 205 c 0
 225 139 275 102 346 102 c 0x38
 426 102 475 132 498 222 c 0
 502 236 504 249 508 268 c 2
 582 690 l 1
 738 690 l 1x58
EndSplineSet
Position2: "'cpsp' Capital Spacing in Latin lookup 0 subtable" dx=5 dy=0 dh=10 dv=0
EndChar

StartChar: uogonek
Encoding: 371 371 212
Width: 626
GlyphClass: 2
Flags: MW
HStem: -223 90<331.5 460.5> -14 109<137 305> 0 21G<364 369 364 364 490 520 490 490> 513 20G<97 254 254 254 458 614 614 614>
VStem: 30 164<83 183.5> 263 154<-174 -74.5>
LayerCount: 2
Fore
SplineSet
520 0 m 1x3c
 490 0 l 1
 445 -3 417 -56 417 -93 c 0
 417 -123 433 -133 453 -133 c 0
 468 -133 484 -129 502 -117 c 1
 490 -179 l 1
 459 -205 412 -223 359 -223 c 0
 304 -223 263 -202 263 -146 c 0
 263 -87 300 -37 369 0 c 1
 364 0 l 1
 378 79 l 1xbc
 322 20 l 1
 282 -4 242 -14 191 -14 c 0
 83 -14 30 43 30 123 c 0
 30 151 33 178 42 228 c 2
 97 533 l 1
 254 533 l 1
 204 259 l 2
 198 222 194 193 194 174 c 0
 194 127 215 94 273 95 c 1x5c
 337 95 391 153 415 289 c 2
 458 533 l 1
 614 533 l 1
 520 0 l 1x3c
EndSplineSet
EndChar

StartChar: Wcircumflex
Encoding: 372 372 102
Width: 1000
GlyphClass: 2
Flags: MW
HStem: 0 21G<154 364 154 154 575 783 575 575> 0 128<703 703 703 783> 670 20G<101 264 264 264 910 1083 1083 1083> 735 118<559 569 475 686 634 634 634 686 559 728>
VStem: 569.5 133.5
LayerCount: 2
Fore
SplineSet
569 735 m 1xb8
 475 735 l 1
 559 853 l 1
 686 853 l 1
 728 735 l 1
 634 735 l 1
 614 803 l 1
 569 735 l 1xb8
1083 690 m 1
 783 0 l 1
 575 0 l 1
 564 536 l 1
 364 0 l 1
 154 0 l 1
 101 690 l 1
 264 690 l 1
 283 133 l 1
 478 680 l 1
 703 680 l 1
 703 128 l 1x78
 910 690 l 1
 1083 690 l 1
EndSplineSet
Position2: "'cpsp' Capital Spacing in Latin lookup 0 subtable" dx=5 dy=0 dh=10 dv=0
EndChar

StartChar: wcircumflex
Encoding: 373 373 217
Width: 823
GlyphClass: 2
Flags: MW
HStem: 0 21G<107 284 107 107 444 621 444 444> 0 136<564 564 564 621 444 564> 513 20G<32 205 205 205 715 884 884 884> 572 121<427 435 342 553 501 501 501 553 427 595> 644 49<481 481>
VStem: 438 120
LayerCount: 2
Fore
SplineSet
435 572 m 1xb4
 342 572 l 1
 427 693 l 1
 553 693 l 1
 595 572 l 1
 501 572 l 1x74
 481 644 l 1xac
 435 572 l 1xb4
884 533 m 1
 621 0 l 1
 444 0 l 1
 432 388 l 1
 284 0 l 1
 107 0 l 1
 32 533 l 1
 205 533 l 1
 220 138 l 1
 364 530 l 1
 552 530 l 1
 564 136 l 1
 715 533 l 1
 884 533 l 1
EndSplineSet
EndChar

StartChar: Ycircumflex
Encoding: 374 374 108
Width: 658
GlyphClass: 2
Flags: MW
HStem: 0 21G<219 376 219 219> 670 20G<98 265 265 265 566 741 741 741> 735 118<385 395 301 512 460 460 460 512 385 554>
VStem: 98 643<690 690>
LayerCount: 2
Fore
SplineSet
395 735 m 1
 301 735 l 1
 385 853 l 1
 512 853 l 1
 554 735 l 1
 460 735 l 1
 440 803 l 1
 395 735 l 1
422 261 m 1
 376 0 l 1
 219 0 l 1
 266 266 l 1
 98 690 l 1
 265 690 l 1
 369 398 l 1
 566 690 l 1
 741 690 l 1
 422 261 l 1
EndSplineSet
Position2: "'cpsp' Capital Spacing in Latin lookup 0 subtable" dx=5 dy=0 dh=10 dv=0
EndChar

StartChar: ycircumflex
Encoding: 375 375 223
Width: 562
GlyphClass: 2
Flags: MW
HStem: -210 105<35.5 65 35.5 106> 513 20G<32 207 207 207 450 622 622 622> 572 121<289 297 204 415 363 363 363 415 289 457> 644 49<343 343>
VStem: -19 641
LayerCount: 2
Fore
SplineSet
297 572 m 1xe8
 204 572 l 1
 289 693 l 1
 415 693 l 1
 457 572 l 1
 363 572 l 1xe8
 343 644 l 1xd8
 297 572 l 1xe8
622 533 m 1
 321 0 l 2
 232 -157 164 -210 48 -210 c 0
 23 -210 3 -208 -19 -205 c 1
 -2 -102 l 1
 13 -104 27 -105 44 -105 c 0
 86 -105 118 -86 144 -36 c 1
 150 -25 l 1
 32 533 l 1
 207 533 l 1
 257 129 l 1
 450 533 l 1
 622 533 l 1
EndSplineSet
EndChar

StartChar: Ydieresis
Encoding: 376 376 109
Width: 658
GlyphClass: 2
Flags: MW
HStem: 0 21G<219 376 219 219> 670 20G<98 265 265 265 566 741 741 741> 726 132<334 355 519 540>
VStem: 276 136<779 805.5> 461 136<779 805.5>
LayerCount: 2
Fore
SplineSet
337 726 m 0
 298 726 276 747 276 781 c 0
 276 830 316 858 352 858 c 0
 389 858 412 838 412 803 c 0
 412 755 373 726 337 726 c 0
522 726 m 0
 483 726 461 747 461 781 c 0
 461 830 501 858 537 858 c 0
 574 858 597 838 597 803 c 0
 597 755 558 726 522 726 c 0
422 261 m 1
 376 0 l 1
 219 0 l 1
 266 266 l 1
 98 690 l 1
 265 690 l 1
 369 398 l 1
 566 690 l 1
 741 690 l 1
 422 261 l 1
EndSplineSet
Position2: "'cpsp' Capital Spacing in Latin lookup 0 subtable" dx=5 dy=0 dh=10 dv=0
EndChar

StartChar: Zacute
Encoding: 377 377 112
Width: 634
GlyphClass: 2
Flags: MW
HStem: 0 123<222 559> 568 122<154 462 132 676> 735 118<367 609 367 609>
VStem: 4 672
LayerCount: 2
Fore
SplineSet
453 735 m 1
 367 735 l 1
 469 853 l 1
 609 853 l 1
 453 735 l 1
655 569 m 1
 222 123 l 1
 581 123 l 1
 559 0 l 1
 4 0 l 1
 25 119 l 1
 462 568 l 1
 132 568 l 1
 154 690 l 1
 676 690 l 1
 655 569 l 1
EndSplineSet
Position2: "'cpsp' Capital Spacing in Latin lookup 0 subtable" dx=5 dy=0 dh=10 dv=0
EndChar

StartChar: Zdotaccent
Encoding: 379 379 114
Width: 634
GlyphClass: 2
Flags: MW
HStem: 0 123<222 559> 568 122<154 462 132 676> 726 155<408.5 448>
VStem: 347 163<793.5 814>
LayerCount: 2
Fore
SplineSet
418 726 m 0
 374 726 347 751 347 792 c 0
 347 836 379 881 438 881 c 0
 482 881 510 856 510 815 c 0
 510 772 478 726 418 726 c 0
655 569 m 1
 222 123 l 1
 581 123 l 1
 559 0 l 1
 4 0 l 1
 25 119 l 1
 462 568 l 1
 132 568 l 1
 154 690 l 1
 676 690 l 1
 655 569 l 1
EndSplineSet
Position2: "'cpsp' Capital Spacing in Latin lookup 0 subtable" dx=5 dy=0 dh=10 dv=0
EndChar

StartChar: zdotaccent
Encoding: 380 380 229
Width: 526
GlyphClass: 2
Flags: MW
HStem: 0 101<185 453> 428 101<95 335 78 538> 580 159<310.5 351>
VStem: 247 167<649.5 670.5>
LayerCount: 2
Fore
SplineSet
320 580 m 0
 275 580 247 606 247 648 c 0
 247 693 280 739 341 739 c 0
 386 739 414 713 414 672 c 0
 414 627 382 580 320 580 c 0
520 429 m 1
 185 101 l 1
 470 101 l 1
 453 0 l 1
 -20 0 l 1
 -4 95 l 1
 335 428 l 1
 78 428 l 1
 95 529 l 1
 538 529 l 1
 520 429 l 1
EndSplineSet
EndChar

StartChar: Zcaron
Encoding: 381 381 113
Width: 634
GlyphClass: 2
Flags: MW
HStem: 0 123<222 559> 568 122<154 462 132 676> 735 118<353 353 353 405 470 480>
VStem: 4 672
LayerCount: 2
Fore
SplineSet
353 735 m 1
 311 853 l 1
 405 853 l 1
 425 785 l 1
 470 853 l 1
 564 853 l 1
 480 735 l 1
 353 735 l 1
655 569 m 1
 222 123 l 1
 581 123 l 1
 559 0 l 1
 4 0 l 1
 25 119 l 1
 462 568 l 1
 132 568 l 1
 154 690 l 1
 676 690 l 1
 655 569 l 1
EndSplineSet
Position2: "'cpsp' Capital Spacing in Latin lookup 0 subtable" dx=5 dy=0 dh=10 dv=0
EndChar

StartChar: zcaron
Encoding: 382 382 228
Width: 526
GlyphClass: 2
Flags: MW
HStem: 0 101<185 453> 428 101<95 335 78 538> 572 121<251 251 251 303 369 377>
VStem: -20 558<0 529>
LayerCount: 2
Fore
SplineSet
251 572 m 1
 209 693 l 1
 303 693 l 1
 323 624 l 1
 369 693 l 1
 462 693 l 1
 377 572 l 1
 251 572 l 1
520 429 m 1
 185 101 l 1
 470 101 l 1
 453 0 l 1
 -20 0 l 1
 -4 95 l 1
 335 428 l 1
 78 428 l 1
 95 529 l 1
 538 529 l 1
 520 429 l 1
EndSplineSet
EndChar

StartChar: Scommaaccent
Encoding: 536 536 84
Width: 612
GlyphClass: 2
Flags: MW
HStem: -211 170<126 323 126 323> -14 116<256.5 320 256.5 350> -14 221<16 350> 483 221<450 461 301 608 450 450> 588 116<330 391>
VStem: 91 169<480 529.5 480 542> 404 169<165 212.5> 450 158<483 483>
AnchorPoint: "Anchor-0" 263 0 basechar 0
LayerCount: 2
Fore
SplineSet
375 704 m 0x4d
 547 704 615 608 608 483 c 1x55
 450 483 l 1x4d
 454 547 424 588 358 588 c 0
 302 588 260 558 260 501 c 0
 260 459 294 432 390 409 c 0
 516 378 573 315 573 223 c 0
 573 69 430 -14 270 -14 c 0x4e
 109 -14 2 58 16 207 c 1x2e
 174 207 l 1
 175 136 225 102 288 102 c 0
 352 102 404 137 404 193 c 0x4e
 404 232 372 264 293 285 c 0
 167 317 91 364 91 466 c 0
 91 618 227 704 375 704 c 0x4d
323 -50 m 1xce
 210 -211 l 1
 126 -211 l 1
 213 -41 l 1
 323 -41 l 1
 323 -50 l 1xce
EndSplineSet
Position2: "'cpsp' Capital Spacing in Latin lookup 0 subtable" dx=5 dy=0 dh=10 dv=0
EndChar

StartChar: scommaaccent
Encoding: 537 537 198
Width: 499
GlyphClass: 2
Flags: MW
HStem: -211 170<64 261 64 261> -20 101<207.5 250.5 207.5 295> 375 169<333 348 199.5 487 333 333> 444 100<249.5 288>
VStem: 46 164<376 408.5 376 420.5> 301 164<118.5 154.5> 333 154<375 375>
AnchorPoint: "Anchor-0" 201 0 basechar 0
LayerCount: 2
Fore
SplineSet
275 544 m 0x5a
 421 544 482 472 487 375 c 1
 333 375 l 1x6a
 328 419 307 444 269 444 c 0
 230 444 210 422 210 395 c 0
 210 357 234 341 315 314 c 0
 419 280 465 235 465 153 c 0
 465 44 366 -20 224 -20 c 0
 76 -20 -6 47 -12 158 c 1
 144 158 l 1
 149 102 185 81 230 81 c 0
 271 81 301 100 301 137 c 0x5c
 301 172 276 193 187 223 c 0
 101 253 46 287 46 375 c 0
 46 466 124 544 275 544 c 0x5a
261 -50 m 1xdc
 148 -211 l 1
 64 -211 l 1
 151 -41 l 1
 261 -41 l 1
 261 -50 l 1xdc
EndSplineSet
EndChar

StartChar: uni021B
Encoding: 539 539 204
Width: 372
GlyphClass: 2
Flags: MW
HStem: -211 170<22 219 22 219> -13 110.05 -13 113<143.5 320> 429 100<52 111 34 129 286 378>
VStem: 22 374 57 165<51.5 153.5>
AnchorPoint: "Anchor-0" 159 0 basechar 0
LayerCount: 2
Fore
SplineSet
269 429 m 1x58
 229 205 l 2
 223 176 222 162 222 145 c 0x54
 222 101 252 91 320 100 c 1x34
 302 -1 l 1
 266 -9 231 -13 192 -13 c 0
 95 -13 57 19 57 84 c 0
 57 106 60 135 68 184 c 2
 111 429 l 1
 34 429 l 1
 52 529 l 1
 129 529 l 1
 153 663 l 1x54
 310 663 l 1
 286 529 l 1
 396 529 l 1
 378 429 l 1
 269 429 l 1x58
109 -41 m 1xd4
 219 -41 l 1
 219 -50 l 1
 106 -211 l 1
 22 -211 l 1
 109 -41 l 1xd4
EndSplineSet
EndChar

StartChar: circumflex
Encoding: 710 710 330
Width: 300
Flags: MW
HStem: 572 121<100 108 15 226 174 226 100 268 174 174> 644 49<154 154>
VStem: 15 253<572 572>
LayerCount: 2
Fore
SplineSet
174 572 m 1xa0
 154 644 l 1x60
 108 572 l 1
 15 572 l 1
 100 693 l 1
 226 693 l 1
 268 572 l 1
 174 572 l 1xa0
EndSplineSet
EndChar

StartChar: caron
Encoding: 711 711 328
Width: 300
Flags: MW
HStem: 572 121<77 129 195 203 77 77>
VStem: 35 253<693 693>
LayerCount: 2
Fore
SplineSet
288 693 m 1
 203 572 l 1
 77 572 l 1
 35 693 l 1
 129 693 l 1
 149 624 l 1
 195 693 l 1
 288 693 l 1
EndSplineSet
EndChar

StartChar: breve
Encoding: 728 728 327
Width: 300
Flags: MW
HStem: 567 77<134.5 166 134.5 173.5> 567 128<90 116 35 173.5>
VStem: 32.03 83.97
LayerCount: 2
Fore
SplineSet
208 695 m 1x60
 289 695 l 1
 273 606 209 567 138 567 c 0
 42 567 23 630 35 695 c 1
 116 695 l 1x60
 112 667 118 644 151 644 c 0xa0
 181 644 199 661 208 695 c 1x60
EndSplineSet
EndChar

StartChar: dotaccent
Encoding: 729 729 332
Width: 300
Flags: MW
HStem: 580 159<131.5 172>
VStem: 68 167<649.5 670.5>
LayerCount: 2
Fore
SplineSet
162 739 m 0
 207 739 235 713 235 672 c 0
 235 627 203 580 141 580 c 0
 96 580 68 606 68 648 c 0
 68 693 101 739 162 739 c 0
EndSplineSet
EndChar

StartChar: ring
Encoding: 730 730 337
Width: 300
Flags: MW
HStem: 567 58<133.5 159 133.5 173.5> 711 58<141 166.5>
VStem: 36 76<647 668 647 686> 188 76<667.5 689>
LayerCount: 2
Fore
SplineSet
167 769 m 0
 226 769 264 737 264 683 c 0
 264 616 212 567 135 567 c 0
 74 567 36 599 36 653 c 0
 36 719 88 769 167 769 c 0
157 711 m 0
 125 711 112 679 112 657 c 0
 112 637 124 625 143 625 c 0
 175 625 188 656 188 679 c 0
 188 699 176 711 157 711 c 0
EndSplineSet
EndChar

StartChar: ogonek
Encoding: 731 731 336
Width: 300
Flags: MW
HStem: -223 90<118.5 247.5> 0 21G<277 277>
VStem: 50 154<-174 -74.5> 50 239<-117 -117 -117 -114.5>
LayerCount: 2
Fore
SplineSet
170 7 m 1x50
 277 0 l 1
 232 -3 204 -56 204 -93 c 0
 204 -123 220 -133 240 -133 c 0
 255 -133 271 -129 289 -117 c 1
 277 -179 l 1
 246 -205 199 -223 146 -223 c 0
 91 -223 50 -202 50 -146 c 0xe0
 50 -83 92 -30 170 7 c 1x50
EndSplineSet
EndChar

StartChar: tilde
Encoding: 732 732 338
Width: 300
Flags: MW
HStem: 576 90<205.5 213.5 202.5 243> 576 118<229 243> 579 118<57 72 -10 95.5> 607 90<88.5 95.5 57 99.5>
VStem: -10 320<579 694>
LayerCount: 2
Fore
SplineSet
84 697 m 0x28
 107 697 125 694 162 678 c 0
 185 669 197 666 208 666 c 0x88
 219 666 225 674 229 694 c 1
 310 694 l 1
 295 610 270 576 216 576 c 0x48
 195 576 177 578 138 595 c 0
 117 604 105 607 94 607 c 0x18
 83 607 75 599 72 579 c 1
 -10 579 l 1
 5 663 30 697 84 697 c 0x28
EndSplineSet
EndChar

StartChar: hungarumlaut
Encoding: 733 733 334
Width: 300
Flags: MW
HStem: 572 121<-20 225 -20 225 169 169 169 225 85 255>
VStem: -20 434<572 693>
LayerCount: 2
Fore
SplineSet
66 572 m 1
 -20 572 l 1
 85 693 l 1
 225 693 l 1
 66 572 l 1
255 572 m 1
 169 572 l 1
 274 693 l 1
 414 693 l 1
 255 572 l 1
EndSplineSet
EndChar

StartChar: uni0326
Encoding: 806 806 339
Width: 0
GlyphClass: 4
Flags: MW
HStem: -211 170<35 232 35 232>
VStem: 35 197<-211 -50>
AnchorPoint: "Anchor-0" 172 0 mark 0
LayerCount: 2
Fore
SplineSet
232 -50 m 1
 119 -211 l 1
 35 -211 l 1
 122 -41 l 1
 232 -41 l 1
 232 -50 l 1
EndSplineSet
EndChar

StartChar: Wgrave
Encoding: 7808 7808 104
Width: 1000
GlyphClass: 2
Flags: MW
HStem: 0 21G<154 364 154 154 575 783 575 575> 0 128<703 703 703 783> 670 20G<101 264 264 264 910 1083 1083 1083> 735 118<570 570 570 594 454 656>
VStem: 569.5 133.5
LayerCount: 2
Fore
SplineSet
570 735 m 1xb8
 454 853 l 1
 594 853 l 1
 656 735 l 1
 570 735 l 1xb8
1083 690 m 1
 783 0 l 1
 575 0 l 1
 564 536 l 1
 364 0 l 1
 154 0 l 1
 101 690 l 1
 264 690 l 1
 283 133 l 1
 478 680 l 1
 703 680 l 1
 703 128 l 1x78
 910 690 l 1
 1083 690 l 1
EndSplineSet
Position2: "'cpsp' Capital Spacing in Latin lookup 0 subtable" dx=5 dy=0 dh=10 dv=0
EndChar

StartChar: wgrave
Encoding: 7809 7809 219
Width: 823
GlyphClass: 2
Flags: MW
HStem: 0 21G<107 284 107 107 444 621 444 444> 0 136<564 564 564 621 444 564> 513 20G<32 205 205 205 715 884 884 884> 572 121<439 439 439 463 323 525>
VStem: 438 120
LayerCount: 2
Fore
SplineSet
439 572 m 1xb8
 323 693 l 1
 463 693 l 1
 525 572 l 1
 439 572 l 1xb8
884 533 m 1
 621 0 l 1
 444 0 l 1
 432 388 l 1
 284 0 l 1
 107 0 l 1
 32 533 l 1
 205 533 l 1
 220 138 l 1
 364 530 l 1
 552 530 l 1
 564 136 l 1x78
 715 533 l 1
 884 533 l 1
EndSplineSet
EndChar

StartChar: Wacute
Encoding: 7810 7810 101
Width: 1000
GlyphClass: 2
Flags: MW
HStem: 0 21G<154 364 154 154 575 783 575 575> 0 128<703 703 703 783> 670 20G<101 264 264 264 910 1083 1083 1083> 735 118<553 795 553 795>
VStem: 569.5 133.5
LayerCount: 2
Fore
SplineSet
639 735 m 1xb8
 553 735 l 1
 655 853 l 1
 795 853 l 1
 639 735 l 1xb8
1083 690 m 1
 783 0 l 1
 575 0 l 1
 564 536 l 1
 364 0 l 1
 154 0 l 1
 101 690 l 1
 264 690 l 1
 283 133 l 1
 478 680 l 1
 703 680 l 1
 703 128 l 1x78
 910 690 l 1
 1083 690 l 1
EndSplineSet
Position2: "'cpsp' Capital Spacing in Latin lookup 0 subtable" dx=5 dy=0 dh=10 dv=0
EndChar

StartChar: Wdieresis
Encoding: 7812 7812 103
Width: 1000
GlyphClass: 2
Flags: MW
HStem: 0 21G<154 364 154 154 575 783 575 575> 0 128<703 703 703 783> 670 20G<101 264 264 264 910 1083 1083 1083> 726 132<508 529 693 714>
VStem: 450 136<779 805.5> 569.5 133.5 635 136<779 805.5>
LayerCount: 2
Fore
SplineSet
511 726 m 0xb8
 472 726 450 747 450 781 c 0
 450 830 490 858 526 858 c 0
 563 858 586 838 586 803 c 0
 586 755 547 726 511 726 c 0xb8
696 726 m 0xb4
 657 726 635 747 635 781 c 0xb4
 635 830 675 858 711 858 c 0
 748 858 771 838 771 803 c 0xb2
 771 755 732 726 696 726 c 0xb4
1083 690 m 1x74
 783 0 l 1
 575 0 l 1
 564 536 l 1
 364 0 l 1
 154 0 l 1
 101 690 l 1
 264 690 l 1
 283 133 l 1
 478 680 l 1
 703 680 l 1
 703 128 l 1
 910 690 l 1
 1083 690 l 1x74
EndSplineSet
Position2: "'cpsp' Capital Spacing in Latin lookup 0 subtable" dx=5 dy=0 dh=10 dv=0
EndChar

StartChar: wdieresis
Encoding: 7813 7813 218
Width: 823
GlyphClass: 2
Flags: MW
HStem: 0 21G<107 284 107 107 444 621 444 444> 0 136<564 564 564 621 444 564> 513 20G<32 205 205 205 715 884 884 884> 573 132<369 390 556 576>
VStem: 311 136<625.5 652> 438 120 498 136<625.5 652>
LayerCount: 2
Fore
SplineSet
372 573 m 0xba
 333 573 311 593 311 628 c 0
 311 676 351 705 387 705 c 0
 424 705 447 685 447 650 c 0
 447 601 408 573 372 573 c 0xba
558 573 m 0
 520 573 498 593 498 628 c 0
 498 676 538 705 574 705 c 0
 611 705 634 685 634 650 c 0
 634 601 594 573 558 573 c 0
884 533 m 1
 621 0 l 1
 444 0 l 1
 432 388 l 1
 284 0 l 1
 107 0 l 1
 32 533 l 1
 205 533 l 1
 220 138 l 1
 364 530 l 1
 552 530 l 1
 564 136 l 1x74
 715 533 l 1
 884 533 l 1
EndSplineSet
EndChar

StartChar: Ygrave
Encoding: 7922 7922 110
Width: 658
GlyphClass: 2
Flags: MW
HStem: 0 21G<219 376 219 219> 670 20G<98 265 265 265 566 741 741 741> 735 118<396 396 396 420 280 482>
VStem: 98 643<690 690>
LayerCount: 2
Fore
SplineSet
396 735 m 1
 280 853 l 1
 420 853 l 1
 482 735 l 1
 396 735 l 1
422 261 m 1
 376 0 l 1
 219 0 l 1
 266 266 l 1
 98 690 l 1
 265 690 l 1
 369 398 l 1
 566 690 l 1
 741 690 l 1
 422 261 l 1
EndSplineSet
Position2: "'cpsp' Capital Spacing in Latin lookup 0 subtable" dx=5 dy=0 dh=10 dv=0
EndChar

StartChar: ygrave
Encoding: 7923 7923 225
Width: 562
GlyphClass: 2
Flags: MW
HStem: -210 105<35.5 65 35.5 106> 513 20G<32 207 207 207 450 622 622 622> 572 121<301 301 301 325 185 387>
VStem: -19 641
LayerCount: 2
Fore
SplineSet
301 572 m 1
 185 693 l 1
 325 693 l 1
 387 572 l 1
 301 572 l 1
622 533 m 1
 321 0 l 2
 232 -157 164 -210 48 -210 c 0
 23 -210 3 -208 -19 -205 c 1
 -2 -102 l 1
 13 -104 27 -105 44 -105 c 0
 86 -105 118 -86 144 -36 c 1
 150 -25 l 1
 32 533 l 1
 207 533 l 1
 257 129 l 1
 450 533 l 1
 622 533 l 1
EndSplineSet
EndChar

StartChar: endash
Encoding: 8211 8211 270
Width: 500
Flags: MW
HStem: 248 86<92 408 78 422>
VStem: 78 344<248 334>
LayerCount: 2
Fore
SplineSet
408 248 m 1
 78 248 l 1
 92 334 l 1
 422 334 l 1
 408 248 l 1
EndSplineSet
EndChar

StartChar: emdash
Encoding: 8212 8212 269
Width: 1000
Flags: MW
HStem: 248 86<92 908 78 922>
VStem: 78 844<248 334>
LayerCount: 2
Fore
SplineSet
908 248 m 1
 78 248 l 1
 92 334 l 1
 922 334 l 1
 908 248 l 1
EndSplineSet
EndChar

StartChar: quoteleft
Encoding: 8216 8216 279
Width: 270
Flags: MW
HStem: 413 277<62 339 62 339>
VStem: 62 277
LayerCount: 2
Fore
SplineSet
63 424 m 1
 215 690 l 1
 339 690 l 1
 211 413 l 1
 62 413 l 1
 63 424 l 1
EndSplineSet
EndChar

StartChar: quoteright
Encoding: 8217 8217 280
Width: 269
Flags: MW
HStem: 413 277<33 309 33 309> 670 20G<161 309 309 309>
VStem: 33 276<413 680>
LayerCount: 2
Fore
SplineSet
309 680 m 1x60
 156 413 l 1
 33 413 l 1xa0
 161 690 l 1
 309 690 l 1
 309 680 l 1x60
EndSplineSet
EndChar

StartChar: quotesinglbase
Encoding: 8218 8218 281
Width: 271
Flags: MW
HStem: -123 277<-98 180 -98 180>
VStem: -98 278<-123 154>
LayerCount: 2
Fore
SplineSet
179 144 m 1
 26 -123 l 1
 -98 -123 l 1
 31 154 l 1
 180 154 l 1
 179 144 l 1
EndSplineSet
EndChar

StartChar: quotedblleft
Encoding: 8220 8220 277
Width: 500
Flags: MW
HStem: 413 277<62 339 62 339 292 292 292 339 215 440>
VStem: 62 507<413 690 424 690>
LayerCount: 2
Fore
SplineSet
62 424 m 1
 215 690 l 1
 339 690 l 1
 210 413 l 1
 62 413 l 1
 62 424 l 1
292 424 m 1
 445 690 l 1
 569 690 l 1
 440 413 l 1
 292 413 l 1
 292 424 l 1
EndSplineSet
EndChar

StartChar: quotedblright
Encoding: 8221 8221 278
Width: 499
Flags: MW
HStem: 413 277<33 309 33 309 263 263 263 309 161 386>
VStem: 33 506<413 680>
LayerCount: 2
Fore
SplineSet
309 680 m 1
 156 413 l 1
 33 413 l 1
 161 690 l 1
 309 690 l 1
 309 680 l 1
539 680 m 1
 386 413 l 1
 263 413 l 1
 391 690 l 1
 539 690 l 1
 539 680 l 1
EndSplineSet
EndChar

StartChar: quotedblbase
Encoding: 8222 8222 276
Width: 501
Flags: MW
HStem: -123 277<-98 180 -98 180 133 133 133 180 31 256>
VStem: -98 508<-123 154>
LayerCount: 2
Fore
SplineSet
179 144 m 1
 26 -123 l 1
 -98 -123 l 1
 31 154 l 1
 180 154 l 1
 179 144 l 1
409 144 m 1
 256 -123 l 1
 133 -123 l 1
 261 154 l 1
 410 154 l 1
 409 144 l 1
EndSplineSet
EndChar

StartChar: dagger
Encoding: 8224 8224 319
Width: 590
Flags: MW
HStem: 349.5 127 670 20G<277 424 424 424>
VStem: 48 506<347 479>
LayerCount: 2
Fore
SplineSet
531 347 m 1
 353 352 l 1
 274 -160 l 1
 127 -160 l 1
 229 352 l 1
 48 347 l 1
 71 479 l 1
 250 474 l 1
 277 690 l 1
 424 690 l 1
 376 474 l 1
 554 479 l 1
 531 347 l 1
EndSplineSet
EndChar

StartChar: daggerdbl
Encoding: 8225 8225 320
Width: 560
Flags: MW
HStem: 53.5 127 349.5 127 670 20G<269 416 416 416>
VStem: -12 559<51 479>
LayerCount: 2
Fore
SplineSet
345 352 m 1
 313 178 l 1
 495 183 l 1
 472 51 l 1
 293 56 l 1
 266 -160 l 1
 119 -160 l 1
 167 56 l 1
 -12 51 l 1
 12 183 l 1
 190 178 l 1
 222 352 l 1
 41 347 l 1
 64 479 l 1
 242 474 l 1
 269 690 l 1
 416 690 l 1
 368 474 l 1
 547 479 l 1
 524 347 l 1
 345 352 l 1
EndSplineSet
EndChar

StartChar: bullet
Encoding: 8226 8226 246
Width: 385
Flags: MW
HStem: 182 247<169 216>
VStem: 66 254<290 320>
LayerCount: 2
Fore
SplineSet
214 429 m 0
 276 429 320 395 320 333 c 0
 320 247 261 182 171 182 c 0
 110 182 66 215 66 277 c 0
 66 363 124 429 214 429 c 0
EndSplineSet
EndChar

StartChar: ellipsis
Encoding: 8230 8230 249
Width: 821
Flags: MW
HStem: -14 182<69 100 344 375 619 650>
VStem: -8 185<63.5 90.5> 267 185<63.5 90.5> 542 185<63.5 90.5>
LayerCount: 2
Fore
SplineSet
101 168 m 0
 143 168 177 143 177 97 c 0
 177 30 132 -14 68 -14 c 0
 26 -14 -8 11 -8 57 c 0
 -8 124 37 168 101 168 c 0
376 168 m 0
 418 168 452 143 452 97 c 0
 452 30 407 -14 343 -14 c 0
 301 -14 267 11 267 57 c 0
 267 124 312 168 376 168 c 0
651 168 m 0
 693 168 727 143 727 97 c 0
 727 30 682 -14 618 -14 c 0
 576 -14 542 11 542 57 c 0
 542 124 587 168 651 168 c 0
EndSplineSet
EndChar

StartChar: perthousand
Encoding: 8240 8240 306
Width: 1123
Flags: MW
HStem: -14 78<553.5 589 553.5 619 890 925.5> 0 21G<59 189 59 59> 241 78<570 605.5 906.5 941.5> 371 78<209.5 244.5 209.5 274.5> 626 78<225.5 261> 670 20G<626 757 757 757>
VStem: 74 103<490 543 490 560> 294 102<532.5 585> 419 102<105 158 105 175> 638 102<147.5 200> 755 102<105 158 105 175> 974 103<147.5 200>
LayerCount: 2
Fore
SplineSet
215 371 m 0xbab0
 130 371 74 423 74 511 c 0
 74 609 136 704 256 704 c 0
 340 704 396 653 396 564 c 0x1b
 396 466 334 371 215 371 c 0xbab0
757 690 m 1x4420
 189 0 l 1
 59 0 l 1
 626 690 l 1
 757 690 l 1x4420
246 626 m 0x3b40
 205 626 177 575 177 511 c 0
 177 469 195 449 224 449 c 0
 265 449 294 501 294 564 c 0
 294 606 276 626 246 626 c 0x3b40
600 319 m 0
 684 319 740 268 740 179 c 0
 740 81 679 -14 559 -14 c 0
 475 -14 419 38 419 126 c 0xa0c0
 419 224 480 319 600 319 c 0
936 319 m 0xa030
 1021 319 1077 268 1077 179 c 0
 1077 81 1015 -14 895 -14 c 0
 811 -14 755 38 755 126 c 0
 755 224 817 319 936 319 c 0xa030
568 64 m 0xa0c0
 610 64 638 116 638 179 c 0
 638 221 620 241 591 241 c 0
 549 241 521 190 521 126 c 0
 521 84 539 64 568 64 c 0xa0c0
905 64 m 0xa030
 946 64 974 116 974 179 c 0
 974 221 956 241 927 241 c 0
 886 241 857 190 857 126 c 0
 857 84 875 64 905 64 c 0xa030
EndSplineSet
EndChar

StartChar: guilsinglleft
Encoding: 8249 8249 274
Width: 424
Flags: MW
HStem: 82 332<276 330 218 403>
VStem: 110 293<248 414>
LayerCount: 2
Fore
SplineSet
228 240 m 1
 330 82 l 1
 218 82 l 1
 110 248 l 1
 276 414 l 1
 403 414 l 1
 228 240 l 1
EndSplineSet
EndChar

StartChar: guilsinglright
Encoding: 8250 8250 275
Width: 433
Flags: MW
HStem: 82 332<87 141 14 199>
VStem: 14 293<82 248>
LayerCount: 2
Fore
SplineSet
307 248 m 1
 141 82 l 1
 14 82 l 1
 189 257 l 1
 87 414 l 1
 199 414 l 1
 307 248 l 1
EndSplineSet
EndChar

StartChar: fraction
Encoding: 8260 8260 243
Width: 279
Flags: MW
HStem: 0 21G<-200 -77 -200 -200> 670 20G<368 491 491 491>
VStem: -200 691<0 690>
LayerCount: 2
Fore
SplineSet
-77 0 m 1
 -200 0 l 1
 368 690 l 1
 491 690 l 1
 -77 0 l 1
EndSplineSet
EndChar

StartChar: Euro
Encoding: 8364 8364 286
Width: 642
Flags: MW
HStem: -14 116<352 380.5> 233 86<36 95 11 96 259 446 259 259> 370 86<77 102 52 122 281 486> 588 116<409.5 477>
VStem: 11 633<233 642> 95 164<233 233> 99 159
LayerCount: 2
Fore
SplineSet
453 588 m 0xf8
 366 588 310 542 281 456 c 1
 512 456 l 1
 486 370 l 1
 263 370 l 1
 261 354 259 337 258 319 c 1xf2
 470 319 l 1
 446 233 l 1
 259 233 l 1
 268 133 317 102 387 102 c 0
 450 102 499 115 548 141 c 1
 527 25 l 1
 474 -1 422 -14 339 -14 c 0
 197 -14 104 59 95 233 c 1
 11 233 l 1
 36 319 l 1xf4
 96 319 l 1
 97 336 99 353 102 370 c 1
 52 370 l 1
 77 456 l 1
 122 456 l 1xf2
 165 593 266 704 465 704 c 0
 555 704 613 679 644 642 c 1
 571 545 l 1
 536 576 501 588 453 588 c 0xf8
EndSplineSet
EndChar

StartChar: trademark
Encoding: 8482 8482 325
Width: 538
Flags: MW
HStem: 456 203<76 353 76 353 230 353 266 288 266 414 420 472> 460 55<362 362 362 382 323 362> 616 44<40 104 32 242 162 234 162 162>
VStem: 317.5 40
LayerCount: 2
Fore
SplineSet
162 616 m 1x30
 134 456 l 1
 76 456 l 1
 104 616 l 1
 32 616 l 1
 40 660 l 1
 242 660 l 1
 234 616 l 1
 162 616 l 1x30
508 659 m 1x90
 472 456 l 1
 414 456 l 1
 441 598 l 1x90
 382 460 l 1
 323 460 l 1
 312 597 l 1
 288 456 l 1
 230 456 l 1
 266 659 l 1
 353 659 l 1
 362 515 l 1x70
 420 659 l 1
 508 659 l 1x90
EndSplineSet
EndChar

StartChar: partialdiff
Encoding: 8706 8706 304
Width: 642
Flags: MW
HStem: -14 116<268 333 268 408.5> 394 115<291 363.5> 643 115<339 380.5>
VStem: 42 166<170.5 248.5 170.5 281> 456 161<489.5 544.5>
LayerCount: 2
Fore
SplineSet
381 758 m 0
 543 758 617 656 617 486 c 0
 617 244 539 -14 278 -14 c 0
 138 -14 42 51 42 206 c 0
 42 356 124 509 331 509 c 0
 402 509 437 487 455 456 c 1
 456 470 456 483 456 496 c 0
 456 593 423 643 338 643 c 0
 288 643 246 629 200 600 c 1
 167 699 l 1
 239 741 297 758 381 758 c 0
295 102 m 0
 371 102 418 192 440 332 c 1
 424 379 387 394 340 394 c 0
 242 394 208 293 208 204 c 0
 208 137 241 102 295 102 c 0
EndSplineSet
EndChar

StartChar: product
Encoding: 8719 8719 309
Width: 642
Flags: MW
HStem: 568 122<92 128 70 663 285 426 285 285 583 641 583 583>
VStem: 8 655
LayerCount: 2
Fore
SplineSet
641 568 m 1
 583 568 l 1
 463 -110 l 1
 306 -110 l 1
 426 568 l 1
 285 568 l 1
 165 -110 l 1
 8 -110 l 1
 128 568 l 1
 70 568 l 1
 92 690 l 1
 663 690 l 1
 641 568 l 1
EndSplineSet
EndChar

StartChar: summation
Encoding: 8721 8721 311
Width: 642
Flags: MW
HStem: -110 123<175 511> 568 122<297 625 297 297>
VStem: -31 678
LayerCount: 2
Fore
SplineSet
625 568 m 1
 297 568 l 1
 470 296 l 1
 175 13 l 1
 533 13 l 1
 511 -110 l 1
 -31 -110 l 1
 -10 3 l 1
 294 301 l 1
 121 577 l 1
 142 690 l 1
 647 690 l 1
 625 568 l 1
EndSplineSet
EndChar

StartChar: minus
Encoding: 8722 8722 301
Width: 642
Flags: MW
HStem: 275 86<110 538 95 552>
VStem: 95 457<275 361>
LayerCount: 2
Fore
SplineSet
538 275 m 1
 95 275 l 1
 110 361 l 1
 552 361 l 1
 538 275 l 1
EndSplineSet
EndChar

StartChar: radical
Encoding: 8730 8730 310
Width: 642
Flags: MW
HStem: 230 80<57 120 42 207>
VStem: 42 644<230 780>
LayerCount: 2
Fore
SplineSet
686 780 m 1
 297 -160 l 1
 179 -160 l 1
 120 230 l 1
 42 230 l 1
 57 310 l 1
 207 310 l 1
 255 -60 l 1
 591 780 l 1
 686 780 l 1
EndSplineSet
EndChar

StartChar: infinity
Encoding: 8734 8734 296
Width: 1025
Flags: MW
HStem: -14 108<251.5 295.5 668.5 747.5> 436 108<281.5 361.5 733.5 778.5>
VStem: 24 166<187 269.5 187 299.5> 836 166<260.5 343>
LayerCount: 2
Fore
SplineSet
781 544 m 0
 920 544 1002 458 1002 307 c 0
 1002 154 905 -14 696 -14 c 0
 591 -14 518 19 482 110 c 1
 415 19 343 -14 248 -14 c 0
 110 -14 24 73 24 223 c 0
 24 376 123 544 334 544 c 0
 439 544 514 512 551 420 c 1
 617 512 686 544 781 544 c 0
426 265 m 1
 429 391 392 436 331 436 c 0
 232 436 190 310 190 229 c 0
 190 145 224 94 279 94 c 0
 334 94 392 141 426 265 c 1
699 94 m 0
 796 94 836 220 836 301 c 0
 836 385 806 436 751 436 c 0
 695 436 639 389 606 265 c 1
 601 140 638 94 699 94 c 0
EndSplineSet
EndChar

StartChar: integral
Encoding: 8747 8747 297
Width: 642
Flags: MW
HStem: -160 86<187.5 240 187.5 268.5> 668 86<410 462.5>
VStem: 255 98<483 549 483 573> 297 98<45 111.5>
LayerCount: 2
Fore
SplineSet
454 754 m 0xe0
 491 754 517 749 540 732 c 1
 510 651 l 1
 492 664 475 668 450 668 c 0
 370 668 353 590 353 508 c 0xe0
 353 458 359 400 374 304 c 0
 388 217 395 157 395 86 c 0
 395 -44 341 -160 196 -160 c 0
 159 -160 133 -155 110 -138 c 1
 139 -57 l 1
 158 -70 175 -74 200 -74 c 0
 280 -74 297 4 297 86 c 0xd0
 297 137 290 194 276 290 c 1
 261 378 255 437 255 508 c 0
 255 638 309 754 454 754 c 0xe0
EndSplineSet
EndChar

StartChar: approxequal
Encoding: 8776 8776 289
Width: 613
Flags: MW
HStem: 122 94<386 408.5> 198 94<171.5 194.5> 312 94<419 442.5> 388 94<205.5 228>
VStem: 47 520<207 397>
LayerCount: 2
Fore
SplineSet
232 482 m 0x98
 272 482 295 469 345 441 c 1
 389 414 407 406 431 406 c 0
 465 406 492 421 522 452 c 1
 567 397 l 1
 517 333 469 312 416 312 c 0xa8
 375 312 352 324 302 353 c 0
 258 379 240 388 216 388 c 0
 183 388 155 373 125 341 c 1
 80 397 l 1
 130 461 179 482 232 482 c 0x98
198 292 m 0x68
 238 292 262 279 311 251 c 1
 356 224 374 216 398 216 c 0
 431 216 459 231 489 262 c 1
 534 207 l 1
 484 143 435 122 382 122 c 0xa8
 341 122 318 134 269 163 c 0
 224 189 207 198 182 198 c 0
 149 198 122 183 91 151 c 1
 47 207 l 1
 97 271 145 292 198 292 c 0x68
EndSplineSet
EndChar

StartChar: notequal
Encoding: 8800 8800 303
Width: 642
Flags: MW
HStem: 177 80<80 170 66 225 321 538 80 265> 377 80<115 308 101 363 459 574 115 403>
VStem: 66 521<177 457>
LayerCount: 2
Fore
SplineSet
403 377 m 1
 321 257 l 1
 552 257 l 1
 538 177 l 1
 265 177 l 1
 193 72 l 1
 98 72 l 1
 170 177 l 1
 66 177 l 1
 80 257 l 1
 225 257 l 1
 308 377 l 1
 101 377 l 1
 115 457 l 1
 363 457 l 1
 435 562 l 1
 531 562 l 1
 459 457 l 1
 587 457 l 1
 574 377 l 1
 403 377 l 1
EndSplineSet
EndChar

StartChar: lessequal
Encoding: 8804 8804 299
Width: 642
Flags: MW
HStem: 0 86<76 495 60 511>
VStem: 60 527<0 518>
LayerCount: 2
Fore
SplineSet
569 418 m 1
 208 316 l 1
 533 211 l 1
 516 116 l 1
 106 258 l 1
 127 377 l 1
 587 518 l 1
 569 418 l 1
76 86 m 1
 511 86 l 1
 495 0 l 1
 60 0 l 1
 76 86 l 1
EndSplineSet
EndChar

StartChar: greaterequal
Encoding: 8805 8805 295
Width: 642
Flags: MW
HStem: 0 86<64 476 48 491>
VStem: 48 495<0 377>
LayerCount: 2
Fore
SplineSet
543 377 m 1
 522 258 l 1
 69 116 l 1
 87 216 l 1
 442 318 l 1
 123 424 l 1
 140 518 l 1
 543 377 l 1
64 86 m 1
 491 86 l 1
 476 0 l 1
 48 0 l 1
 64 86 l 1
EndSplineSet
EndChar

StartChar: lozenge
Encoding: 9674 9674 312
Width: 544
Flags: MW
HStem: 0 21G<146 276 146 146> 0 100<229 229 229 276 146 229> 590 100<315 315> 670 20G<268 398 398 398>
VStem: 47 450<345 345>
LayerCount: 2
Fore
SplineSet
497 345 m 1x98
 276 0 l 1
 146 0 l 1
 47 345 l 1
 268 690 l 1
 398 690 l 1
 497 345 l 1x98
381 345 m 1
 315 590 l 1
 163 345 l 1
 229 100 l 1x68
 381 345 l 1
EndSplineSet
EndChar

StartChar: fi
Encoding: 64257 64257 231
Width: 603
GlyphClass: 3
Flags: MW
HStem: 0 21G<19 175 19 19 341 497 341 341> 429 100<64 94 47 112 268 416> 645.13 101.87
VStem: 19 571<0 529>
LayerCount: 2
Fore
SplineSet
590 529 m 1
 497 0 l 1
 341 0 l 1
 416 429 l 1
 251 429 l 1
 175 0 l 1
 19 0 l 1
 94 429 l 1
 47 429 l 1
 64 529 l 1
 112 529 l 1
 113 536 l 2
 116 553 120 577 125 595 c 0
 151 694 239 754 390 754 c 0
 426 754 447 751 472 747 c 1
 453 641 l 1
 343 656 294 632 279 581 c 0
 275 567 272 551 270 538 c 2
 268 529 l 1
 590 529 l 1
EndSplineSet
Ligature2: "'liga' Standard Ligatures in Latin lookup 4 subtable" f i
EndChar

StartChar: fl
Encoding: 64258 64258 232
Width: 629
GlyphClass: 3
Flags: MW
HStem: -9 21G<439 494.5> -9 105<439 582> 0 21G<18 174 18 18> 429 100<64 94 46 112 268 359> 646 108<361.5 406>
VStem: 364 164<41 135.5>
LayerCount: 2
Fore
SplineSet
528 129 m 0x5c
 528 101 543 94 582 96 c 1x5c
 564 -3 l 1
 538 -7 512 -9 477 -9 c 0
 401 -9 364 13 364 69 c 0x9c
 364 96 368 128 378 179 c 2
 460 639 l 1
 435 645 419 646 393 646 c 0
 330 646 290 623 279 581 c 0
 275 567 272 551 270 538 c 2
 268 529 l 1
 377 529 l 1
 359 429 l 1
 251 429 l 1
 174 0 l 1
 18 0 l 1x3c
 94 429 l 1
 46 429 l 1
 64 529 l 1
 112 529 l 1
 113 536 l 2
 115 553 120 577 124 595 c 0
 150 694 232 754 420 754 c 0
 501 754 567 746 624 731 c 1
 633 731 l 1
 535 182 l 2
 531 159 528 142 528 129 c 0x5c
EndSplineSet
Ligature2: "'liga' Standard Ligatures in Latin lookup 4 subtable" f l
EndChar

StartChar: .notdef
Encoding: 65536 -1 0
Width: 573
Flags: MW
HStem: 0 50<153 493 153 573> 650 50<153 493 153 153>
LayerCount: 2
Fore
SplineSet
73 0 m 1
 73 700 l 1
 573 700 l 1
 573 0 l 1
 73 0 l 1
323 395 m 1
 493 650 l 1
 153 650 l 1
 323 395 l 1
353 350 m 1
 523 95 l 1
 523 605 l 1
 353 350 l 1
153 50 m 1
 493 50 l 1
 323 305 l 1
 153 50 l 1
123 605 m 1
 123 95 l 1
 293 350 l 1
 123 605 l 1
EndSplineSet
EndChar

StartChar: a.alt
Encoding: 65537 -1 230
Width: 662
GlyphClass: 2
Flags: MW
HStem: -14 108<161.5 324.5> 0 94<255.5 556 255.5 399> 439 94 439 108<298.5 358 230.5 394>
VStem: 21 166<179 277.5 179 287>
LayerCount: 2
Fore
SplineSet
649 533 m 1xa8
 556 0 l 1
 399 0 l 1
 413 79 l 1x58
 363 21 l 1
 330 -2 282 -14 228 -14 c 0
 95 -14 21 63 21 198 c 0
 21 376 125 547 336 547 c 0
 380 547 431 535 455 517 c 1
 480 460 l 1x98
 493 533 l 1
 649 533 l 1xa8
445 260 m 1
 450 285 l 1
 463 363 441 439 347 439 c 0
 250 439 187 334 187 221 c 0
 187 137 222 94 289 94 c 0x98
 360 94 423 140 445 259 c 1
 445 260 l 1
EndSplineSet
EndChar
